{"glyphs":{"0":{"ha":1010,"x_min":61,"x_max":949,"o":"m 504 -17 q 329 21 410 -17 q 188 128 249 58 q 94 292 128 197 q 61 500 61 386 q 94 708 61 613 q 188 872 128 803 q 329 980 249 942 q 504 1018 410 1018 q 679 980 599 1018 q 820 872 760 942 q 915 708 881 803 q 949 500 949 613 q 915 292 949 386 q 820 128 881 197 q 679 21 760 58 q 504 -17 599 -17 m 504 32 q 594 52 557 32 q 655 123 632 72 q 688 265 678 174 q 699 500 699 357 q 688 735 699 643 q 655 878 678 826 q 594 949 632 929 q 504 969 557 969 q 411 949 449 969 q 352 878 374 929 q 321 735 331 826 q 311 500 311 643 q 321 265 311 357 q 352 123 331 174 q 411 52 374 72 q 504 32 449 32 z "},"1":{"ha":667,"x_min":11,"x_max":656,"o":"m 11 0 l 11 42 l 231 42 l 231 953 l 11 953 l 11 994 l 450 994 l 450 42 l 656 42 l 656 0 l 11 0 z "},"2":{"ha":868,"x_min":44,"x_max":794,"o":"m 44 0 l 44 135 l 367 389 q 482 497 442 449 q 538 594 522 546 q 553 699 553 643 q 500 886 553 818 q 356 954 447 954 q 260 934 304 954 q 189 883 215 914 q 163 822 163 853 q 168 801 163 808 q 182 794 174 794 q 208 803 193 794 q 253 811 224 811 q 321 785 299 811 q 343 715 343 758 q 308 629 343 656 q 225 603 272 603 q 145 627 176 603 q 99 689 114 651 q 85 765 85 726 q 137 904 85 849 q 271 988 189 960 q 443 1017 353 1017 q 569 1001 507 1017 q 683 954 632 986 q 764 871 733 922 q 794 749 794 819 q 778 656 794 701 q 722 564 761 610 q 614 471 683 518 l 215 199 l 215 193 l 668 193 q 719 202 701 193 q 745 242 738 211 q 753 340 753 274 l 794 340 l 794 0 l 44 0 z "},"3":{"ha":836,"x_min":33,"x_max":785,"o":"m 351 -17 q 181 8 253 -17 q 72 77 110 32 q 33 183 33 122 q 65 278 33 238 q 154 319 96 319 q 206 310 179 319 q 250 278 232 300 q 268 215 268 256 q 255 161 268 181 q 225 130 242 142 q 195 108 208 118 q 182 85 182 99 q 210 53 182 65 q 273 37 238 42 q 333 32 308 32 q 478 95 429 32 q 526 275 526 158 q 471 454 526 393 q 283 515 415 515 l 433 550 q 613 513 533 544 q 739 424 693 481 q 785 283 785 367 q 732 137 785 206 q 583 26 679 68 q 351 -17 486 -17 m 190 515 l 190 564 l 433 564 l 433 515 l 190 515 m 350 549 l 256 564 q 439 626 385 564 q 493 800 493 688 q 476 904 493 868 q 429 954 460 940 q 356 968 399 968 q 277 958 314 968 q 240 924 240 947 q 258 894 240 907 q 294 863 276 881 q 313 811 313 846 q 276 742 313 764 q 199 719 239 719 q 122 748 151 719 q 92 825 92 776 q 123 916 92 872 q 222 988 154 960 q 397 1017 290 1017 q 578 988 503 1017 q 695 907 654 958 q 736 789 736 856 q 695 674 736 725 q 569 591 654 624 q 350 549 485 558 z "},"4":{"ha":931,"x_min":21,"x_max":879,"o":"m 293 0 l 293 42 l 443 42 l 443 278 l 21 278 l 21 324 l 521 1017 l 663 1017 l 663 322 l 836 322 l 836 432 l 879 432 l 879 164 l 836 164 l 836 278 l 663 278 l 663 42 l 796 42 l 796 0 l 293 0 m 85 322 l 443 322 l 443 817 l 438 817 l 85 328 l 85 322 z "},"5":{"ha":861,"x_min":40,"x_max":818,"o":"m 369 -17 q 192 8 265 -17 q 79 78 118 33 q 40 179 40 122 q 75 271 40 236 q 165 306 110 306 q 246 281 210 306 q 282 203 282 257 q 269 151 282 169 q 239 121 256 132 q 209 101 222 110 q 196 79 196 92 q 218 52 196 63 q 273 37 240 42 q 335 32 306 32 q 499 95 442 32 q 557 286 557 158 q 490 493 557 429 q 319 557 424 557 q 217 545 269 557 q 142 515 164 533 l 157 583 q 208 599 169 590 q 301 615 247 608 q 410 621 354 621 q 639 578 549 621 q 774 466 729 536 q 818 311 818 396 q 758 135 818 208 q 596 22 697 61 q 369 -17 494 -17 m 142 515 l 118 531 l 158 994 l 214 994 l 175 569 l 142 515 m 200 801 l 165 994 l 632 994 q 693 1004 675 994 q 725 1047 711 1014 l 767 1047 l 717 801 l 200 801 z "},"6":{"ha":875,"x_min":64,"x_max":838,"o":"m 451 -17 q 256 35 343 -17 q 116 182 168 88 q 64 404 64 276 q 117 642 64 529 q 263 845 171 756 q 475 989 356 935 q 726 1047 594 1043 l 726 1000 q 528 930 613 989 q 391 781 443 871 q 324 585 339 692 l 328 583 q 406 628 364 613 q 504 644 449 644 q 672 603 597 644 q 792 490 747 561 q 838 328 838 418 q 806 190 838 253 q 720 81 775 128 q 596 9 665 35 q 451 -17 526 -17 m 447 32 q 535 58 503 32 q 581 146 567 85 q 594 311 594 207 q 581 485 594 425 q 539 567 567 544 q 471 589 511 589 q 374 560 414 589 q 311 490 335 531 q 299 396 301 446 q 297 307 297 346 q 312 143 297 203 q 360 58 326 83 q 447 32 393 32 z "},"7":{"ha":819,"x_min":53,"x_max":796,"o":"m 411 -17 q 313 17 346 -17 q 279 107 279 50 q 292 178 279 142 q 335 266 306 214 q 410 397 364 318 l 646 801 l 190 801 q 158 791 169 801 q 135 748 146 781 q 101 650 124 715 l 53 650 l 144 994 l 796 994 l 796 925 l 596 581 q 528 440 549 500 q 508 331 508 379 q 515 262 508 293 q 531 203 522 231 q 546 151 539 176 q 553 100 553 125 q 511 12 553 40 q 411 -17 469 -17 z "},"8":{"ha":885,"x_min":47,"x_max":838,"o":"m 442 -17 q 221 19 308 -17 q 90 115 133 54 q 47 250 47 176 q 86 378 47 324 q 194 467 125 432 q 350 519 263 503 l 350 525 l 536 525 l 536 519 q 692 467 624 503 q 799 377 760 431 q 838 250 838 324 q 794 115 838 176 q 663 19 750 54 q 442 -17 575 -17 m 443 25 q 559 79 524 25 q 594 257 594 133 q 561 433 594 372 q 443 494 528 494 q 324 435 357 494 q 290 257 290 375 q 326 79 290 133 q 443 25 361 25 m 443 543 q 540 601 513 543 q 567 765 567 658 q 540 920 567 872 q 444 968 513 968 q 347 920 375 968 q 318 765 318 872 q 347 601 318 658 q 443 543 375 543 m 443 515 q 264 547 344 515 q 136 635 183 578 q 89 771 89 693 q 128 894 89 839 q 247 983 168 950 q 442 1017 325 1017 q 641 983 563 1017 q 758 892 719 949 q 796 769 796 836 q 749 635 796 693 q 622 547 701 578 q 443 515 542 515 z "},"9":{"ha":875,"x_min":44,"x_max":818,"o":"m 144 -15 l 144 32 q 346 94 258 43 q 488 227 433 144 q 558 417 543 310 l 554 418 q 476 373 518 389 q 378 357 435 357 q 210 399 286 357 q 90 513 135 440 q 44 674 44 585 q 76 811 44 749 q 162 921 107 874 q 286 994 217 968 q 431 1019 356 1019 q 626 967 539 1019 q 766 820 714 915 q 818 597 818 725 q 763 362 818 471 q 613 169 708 253 q 397 38 518 86 q 144 -15 276 -11 m 411 413 q 508 442 468 413 q 571 511 549 471 q 583 606 582 556 q 585 694 585 656 q 570 859 585 799 q 523 945 556 919 q 435 971 490 971 q 347 944 379 971 q 301 857 315 918 q 288 690 288 796 q 301 517 288 576 q 343 435 315 457 q 411 413 371 413 z "},"A":{"ha":993,"x_min":-21,"x_max":1014,"o":"m 685 21 l 431 717 l 425 717 l 417 768 l 511 1060 l 547 1060 l 925 21 l 685 21 m -21 0 l -21 42 l 318 42 l 318 0 l -21 0 m 228 283 l 228 324 l 706 324 l 706 283 l 228 283 m 532 0 l 532 42 l 1014 42 l 1014 0 l 532 0 m 101 21 l 511 1060 l 547 1060 l 475 839 l 147 21 l 101 21 z "},"Á":{"ha":993,"x_min":-21,"x_max":1014,"o":"m 685 21 l 431 717 l 425 717 l 417 768 l 511 1060 l 547 1060 l 925 21 l 685 21 m -21 0 l -21 42 l 318 42 l 318 0 l -21 0 m 228 283 l 228 324 l 706 324 l 706 283 l 228 283 m 532 0 l 532 42 l 1014 42 l 1014 0 l 532 0 m 101 21 l 511 1060 l 547 1060 l 475 839 l 147 21 l 101 21 m 328 1172 l 551 1317 q 611 1351 588 1340 q 665 1363 635 1363 q 717 1343 700 1363 q 735 1299 735 1324 q 721 1253 735 1275 q 661 1221 707 1231 l 415 1172 l 328 1172 z "},"Ă":{"ha":993,"x_min":-21,"x_max":1014,"o":"m 685 21 l 431 717 l 425 717 l 417 768 l 511 1060 l 547 1060 l 925 21 l 685 21 m -21 0 l -21 42 l 318 42 l 318 0 l -21 0 m 228 283 l 228 324 l 706 324 l 706 283 l 228 283 m 532 0 l 532 42 l 1014 42 l 1014 0 l 532 0 m 101 21 l 511 1060 l 547 1060 l 475 839 l 147 21 l 101 21 m 532 1172 q 359 1225 418 1172 q 300 1363 300 1278 l 361 1363 q 410 1315 364 1329 q 529 1301 457 1301 q 651 1317 603 1301 q 701 1363 699 1332 l 763 1363 q 706 1227 763 1282 q 532 1172 650 1172 z "},"Ắ":{"ha":993,"x_min":-21,"x_max":1014,"o":"m 685 21 l 431 717 l 425 717 l 417 768 l 511 1060 l 547 1060 l 925 21 l 685 21 m -21 0 l -21 42 l 318 42 l 318 0 l -21 0 m 228 283 l 228 324 l 706 324 l 706 283 l 228 283 m 532 0 l 532 42 l 1014 42 l 1014 0 l 532 0 m 101 21 l 511 1060 l 547 1060 l 475 839 l 147 21 l 101 21 m 532 1146 q 383 1199 439 1146 q 328 1336 328 1251 l 389 1336 q 435 1289 392 1303 q 529 1275 478 1275 q 626 1290 582 1275 q 674 1336 671 1306 l 735 1336 q 711 1240 735 1283 q 642 1171 688 1196 q 532 1146 597 1146 m 328 1432 l 551 1576 q 611 1611 588 1600 q 665 1622 635 1622 q 717 1603 700 1622 q 735 1558 735 1583 q 721 1513 735 1535 q 661 1481 707 1490 l 415 1432 l 328 1432 z "},"Ặ":{"ha":993,"x_min":-21,"x_max":1014,"o":"m 685 21 l 431 717 l 425 717 l 417 768 l 511 1060 l 547 1060 l 925 21 l 685 21 m -21 0 l -21 42 l 318 42 l 318 0 l -21 0 m 228 283 l 228 324 l 706 324 l 706 283 l 228 283 m 532 0 l 532 42 l 1014 42 l 1014 0 l 532 0 m 101 21 l 511 1060 l 547 1060 l 475 839 l 147 21 l 101 21 m 496 -361 q 418 -328 451 -361 q 385 -250 385 -294 q 418 -171 385 -204 q 496 -137 451 -137 q 575 -171 542 -137 q 608 -250 608 -204 q 575 -328 608 -294 q 496 -361 542 -361 m 532 1172 q 359 1225 418 1172 q 300 1363 300 1278 l 361 1363 q 410 1315 364 1329 q 529 1301 457 1301 q 651 1317 603 1301 q 701 1363 699 1332 l 763 1363 q 706 1227 763 1282 q 532 1172 650 1172 z "},"Ằ":{"ha":993,"x_min":-21,"x_max":1014,"o":"m 685 21 l 431 717 l 425 717 l 417 768 l 511 1060 l 547 1060 l 925 21 l 685 21 m -21 0 l -21 42 l 318 42 l 318 0 l -21 0 m 228 283 l 228 324 l 706 324 l 706 283 l 228 283 m 532 0 l 532 42 l 1014 42 l 1014 0 l 532 0 m 101 21 l 511 1060 l 547 1060 l 475 839 l 147 21 l 101 21 m 532 1146 q 383 1199 439 1146 q 328 1336 328 1251 l 389 1336 q 435 1289 392 1303 q 529 1275 478 1275 q 626 1290 582 1275 q 674 1336 671 1306 l 735 1336 q 711 1240 735 1283 q 642 1171 688 1196 q 532 1146 597 1146 m 647 1442 l 401 1490 q 342 1522 356 1500 q 328 1568 328 1544 q 345 1613 328 1593 q 397 1632 363 1632 q 451 1621 428 1632 q 511 1586 475 1610 l 735 1442 l 647 1442 z "},"Ẳ":{"ha":993,"x_min":-21,"x_max":1014,"o":"m 685 21 l 431 717 l 425 717 l 417 768 l 511 1060 l 547 1060 l 925 21 l 685 21 m -21 0 l -21 42 l 318 42 l 318 0 l -21 0 m 228 283 l 228 324 l 706 324 l 706 283 l 228 283 m 532 0 l 532 42 l 1014 42 l 1014 0 l 532 0 m 101 21 l 511 1060 l 547 1060 l 475 839 l 147 21 l 101 21 m 532 1146 q 383 1199 439 1146 q 328 1336 328 1251 l 389 1336 q 435 1289 392 1303 q 529 1275 478 1275 q 626 1290 582 1275 q 674 1336 671 1306 l 735 1336 q 711 1240 735 1283 q 642 1171 688 1196 q 532 1146 597 1146 m 496 1339 q 506 1398 496 1375 q 531 1435 517 1421 q 556 1463 546 1450 q 567 1494 567 1476 q 550 1533 567 1518 q 503 1547 533 1547 q 457 1533 474 1547 q 440 1503 440 1518 q 447 1482 440 1486 q 462 1472 454 1478 q 469 1447 469 1467 q 451 1419 469 1428 q 415 1411 433 1411 q 372 1430 390 1411 q 354 1479 354 1449 q 374 1553 354 1525 q 428 1594 394 1581 q 503 1607 461 1607 q 616 1578 579 1607 q 653 1496 653 1549 q 638 1432 653 1453 q 601 1401 622 1411 q 565 1378 581 1390 q 550 1339 550 1365 l 496 1339 z "},"Ẵ":{"ha":993,"x_min":-21,"x_max":1014,"o":"m 685 21 l 431 717 l 425 717 l 417 768 l 511 1060 l 547 1060 l 925 21 l 685 21 m -21 0 l -21 42 l 318 42 l 318 0 l -21 0 m 228 283 l 228 324 l 706 324 l 706 283 l 228 283 m 532 0 l 532 42 l 1014 42 l 1014 0 l 532 0 m 101 21 l 511 1060 l 547 1060 l 475 839 l 147 21 l 101 21 m 532 1146 q 383 1199 439 1146 q 328 1336 328 1251 l 389 1336 q 435 1289 392 1303 q 529 1275 478 1275 q 626 1290 582 1275 q 674 1336 671 1306 l 735 1336 q 711 1240 735 1283 q 642 1171 688 1196 q 532 1146 597 1146 m 260 1400 q 293 1490 268 1447 q 358 1562 318 1533 q 451 1590 397 1590 q 520 1576 489 1590 q 581 1549 551 1563 q 642 1535 610 1535 q 721 1553 694 1535 q 757 1590 747 1572 l 804 1590 q 769 1500 793 1543 q 707 1429 746 1457 q 611 1401 668 1401 q 542 1415 572 1401 q 483 1443 511 1429 q 421 1457 454 1457 q 346 1441 376 1457 q 306 1400 315 1425 l 260 1400 z "},"Â":{"ha":993,"x_min":-21,"x_max":1014,"o":"m 685 21 l 431 717 l 425 717 l 417 768 l 511 1060 l 547 1060 l 925 21 l 685 21 m -21 0 l -21 42 l 318 42 l 318 0 l -21 0 m 228 283 l 228 324 l 706 324 l 706 283 l 228 283 m 532 0 l 532 42 l 1014 42 l 1014 0 l 532 0 m 101 21 l 511 1060 l 547 1060 l 475 839 l 147 21 l 101 21 m 251 1172 l 489 1361 l 575 1361 l 813 1172 l 739 1172 l 532 1231 l 325 1172 l 251 1172 z "},"Ấ":{"ha":993,"x_min":-21,"x_max":1014,"o":"m 685 21 l 431 717 l 425 717 l 417 768 l 511 1060 l 547 1060 l 925 21 l 685 21 m -21 0 l -21 42 l 318 42 l 318 0 l -21 0 m 228 283 l 228 324 l 706 324 l 706 283 l 228 283 m 532 0 l 532 42 l 1014 42 l 1014 0 l 532 0 m 101 21 l 511 1060 l 547 1060 l 475 839 l 147 21 l 101 21 m 293 1149 l 489 1310 l 575 1310 l 771 1149 l 697 1149 l 532 1207 l 367 1149 l 293 1149 m 328 1360 l 551 1504 q 611 1539 588 1528 q 665 1550 635 1550 q 717 1531 700 1550 q 735 1486 735 1511 q 721 1440 735 1463 q 661 1408 707 1418 l 415 1360 l 328 1360 z "},"Ậ":{"ha":993,"x_min":-21,"x_max":1014,"o":"m 685 21 l 431 717 l 425 717 l 417 768 l 511 1060 l 547 1060 l 925 21 l 685 21 m -21 0 l -21 42 l 318 42 l 318 0 l -21 0 m 228 283 l 228 324 l 706 324 l 706 283 l 228 283 m 532 0 l 532 42 l 1014 42 l 1014 0 l 532 0 m 101 21 l 511 1060 l 547 1060 l 475 839 l 147 21 l 101 21 m 496 -361 q 418 -328 451 -361 q 385 -250 385 -294 q 418 -171 385 -204 q 496 -137 451 -137 q 575 -171 542 -137 q 608 -250 608 -204 q 575 -328 608 -294 q 496 -361 542 -361 m 251 1172 l 489 1361 l 575 1361 l 813 1172 l 739 1172 l 532 1231 l 325 1172 l 251 1172 z "},"Ầ":{"ha":993,"x_min":-21,"x_max":1014,"o":"m 685 21 l 431 717 l 425 717 l 417 768 l 511 1060 l 547 1060 l 925 21 l 685 21 m -21 0 l -21 42 l 318 42 l 318 0 l -21 0 m 228 283 l 228 324 l 706 324 l 706 283 l 228 283 m 532 0 l 532 42 l 1014 42 l 1014 0 l 532 0 m 101 21 l 511 1060 l 547 1060 l 475 839 l 147 21 l 101 21 m 293 1149 l 489 1310 l 575 1310 l 771 1149 l 697 1149 l 532 1207 l 367 1149 l 293 1149 m 647 1369 l 401 1418 q 342 1450 356 1428 q 328 1496 328 1472 q 345 1540 328 1521 q 397 1560 363 1560 q 451 1549 428 1560 q 511 1514 475 1538 l 735 1369 l 647 1369 z "},"Ẩ":{"ha":993,"x_min":-21,"x_max":1014,"o":"m 685 21 l 431 717 l 425 717 l 417 768 l 511 1060 l 547 1060 l 925 21 l 685 21 m -21 0 l -21 42 l 318 42 l 318 0 l -21 0 m 228 283 l 228 324 l 706 324 l 706 283 l 228 283 m 532 0 l 532 42 l 1014 42 l 1014 0 l 532 0 m 101 21 l 511 1060 l 547 1060 l 475 839 l 147 21 l 101 21 m 293 1149 l 489 1310 l 575 1310 l 771 1149 l 697 1149 l 532 1207 l 367 1149 l 293 1149 m 714 1313 q 724 1371 714 1349 q 749 1407 735 1393 q 774 1431 764 1421 q 785 1454 785 1442 q 768 1504 785 1488 q 721 1521 751 1521 q 675 1506 692 1521 q 658 1476 658 1492 q 666 1456 658 1460 q 681 1446 674 1451 q 688 1421 688 1440 q 669 1393 688 1401 q 633 1385 651 1385 q 590 1403 608 1385 q 572 1453 572 1422 q 592 1526 572 1499 q 645 1567 611 1554 q 721 1581 679 1581 q 834 1548 797 1581 q 871 1442 871 1515 q 856 1394 871 1410 q 819 1371 840 1379 q 783 1351 799 1363 q 768 1313 768 1339 l 714 1313 z "},"Ẫ":{"ha":993,"x_min":-21,"x_max":1014,"o":"m 685 21 l 431 717 l 425 717 l 417 768 l 511 1060 l 547 1060 l 925 21 l 685 21 m -21 0 l -21 42 l 318 42 l 318 0 l -21 0 m 228 283 l 228 324 l 706 324 l 706 283 l 228 283 m 532 0 l 532 42 l 1014 42 l 1014 0 l 532 0 m 101 21 l 511 1060 l 547 1060 l 475 839 l 147 21 l 101 21 m 293 1149 l 489 1310 l 575 1310 l 771 1149 l 697 1149 l 532 1207 l 367 1149 l 293 1149 m 260 1393 q 293 1483 268 1440 q 358 1555 318 1526 q 451 1583 397 1583 q 520 1569 489 1583 q 581 1542 551 1556 q 642 1528 610 1528 q 721 1547 694 1528 q 757 1583 747 1565 l 804 1583 q 769 1493 793 1536 q 707 1422 746 1450 q 611 1394 668 1394 q 542 1408 572 1394 q 483 1436 511 1422 q 421 1450 454 1450 q 346 1434 376 1450 q 306 1393 315 1418 l 260 1393 z "},"Ȁ":{"ha":993,"x_min":-21,"x_max":1014,"o":"m 685 21 l 431 717 l 425 717 l 417 768 l 511 1060 l 547 1060 l 925 21 l 685 21 m -21 0 l -21 42 l 318 42 l 318 0 l -21 0 m 228 283 l 228 324 l 706 324 l 706 283 l 228 283 m 532 0 l 532 42 l 1014 42 l 1014 0 l 532 0 m 101 21 l 511 1060 l 547 1060 l 475 839 l 147 21 l 101 21 m 801 1172 l 556 1221 q 496 1253 510 1231 q 482 1299 482 1275 q 499 1343 482 1324 q 551 1363 517 1363 q 606 1351 582 1363 q 665 1317 629 1340 l 889 1172 l 801 1172 m 493 1172 l 247 1221 q 188 1253 201 1231 q 174 1299 174 1275 q 191 1343 174 1324 q 243 1363 208 1363 q 297 1351 274 1363 q 357 1317 321 1340 l 581 1172 l 493 1172 z "},"Ä":{"ha":993,"x_min":-21,"x_max":1014,"o":"m 685 21 l 431 717 l 425 717 l 417 768 l 511 1060 l 547 1060 l 925 21 l 685 21 m -21 0 l -21 42 l 318 42 l 318 0 l -21 0 m 228 283 l 228 324 l 706 324 l 706 283 l 228 283 m 532 0 l 532 42 l 1014 42 l 1014 0 l 532 0 m 101 21 l 511 1060 l 547 1060 l 475 839 l 147 21 l 101 21 m 676 1154 q 606 1184 636 1154 q 576 1254 576 1214 q 606 1324 576 1294 q 676 1354 636 1354 q 747 1324 717 1354 q 776 1254 776 1294 q 747 1184 776 1214 q 676 1154 717 1154 m 388 1154 q 317 1184 347 1154 q 288 1254 288 1214 q 317 1324 288 1294 q 388 1354 347 1354 q 458 1324 428 1354 q 488 1254 488 1294 q 458 1184 488 1214 q 388 1154 428 1154 z "},"Ạ":{"ha":993,"x_min":-21,"x_max":1014,"o":"m 685 21 l 431 717 l 425 717 l 417 768 l 511 1060 l 547 1060 l 925 21 l 685 21 m -21 0 l -21 42 l 318 42 l 318 0 l -21 0 m 228 283 l 228 324 l 706 324 l 706 283 l 228 283 m 532 0 l 532 42 l 1014 42 l 1014 0 l 532 0 m 101 21 l 511 1060 l 547 1060 l 475 839 l 147 21 l 101 21 m 496 -361 q 418 -328 451 -361 q 385 -250 385 -294 q 418 -171 385 -204 q 496 -137 451 -137 q 575 -171 542 -137 q 608 -250 608 -204 q 575 -328 608 -294 q 496 -361 542 -361 z "},"À":{"ha":993,"x_min":-21,"x_max":1014,"o":"m 685 21 l 431 717 l 425 717 l 417 768 l 511 1060 l 547 1060 l 925 21 l 685 21 m -21 0 l -21 42 l 318 42 l 318 0 l -21 0 m 228 283 l 228 324 l 706 324 l 706 283 l 228 283 m 532 0 l 532 42 l 1014 42 l 1014 0 l 532 0 m 101 21 l 511 1060 l 547 1060 l 475 839 l 147 21 l 101 21 m 647 1172 l 401 1221 q 342 1253 356 1231 q 328 1299 328 1275 q 345 1343 328 1324 q 397 1363 363 1363 q 451 1351 428 1363 q 511 1317 475 1340 l 735 1172 l 647 1172 z "},"Ả":{"ha":993,"x_min":-21,"x_max":1014,"o":"m 685 21 l 431 717 l 425 717 l 417 768 l 511 1060 l 547 1060 l 925 21 l 685 21 m -21 0 l -21 42 l 318 42 l 318 0 l -21 0 m 228 283 l 228 324 l 706 324 l 706 283 l 228 283 m 532 0 l 532 42 l 1014 42 l 1014 0 l 532 0 m 101 21 l 511 1060 l 547 1060 l 475 839 l 147 21 l 101 21 m 524 1126 q 534 1184 524 1163 q 559 1220 544 1206 q 584 1248 574 1235 q 594 1282 594 1261 q 578 1320 594 1306 q 531 1335 561 1335 q 485 1320 501 1335 q 468 1290 468 1306 q 475 1269 468 1274 q 490 1260 482 1265 q 497 1235 497 1254 q 479 1207 497 1215 q 443 1199 461 1199 q 400 1217 418 1199 q 382 1267 382 1236 q 402 1340 382 1313 q 456 1381 422 1368 q 531 1394 489 1394 q 644 1365 607 1394 q 681 1283 681 1336 q 665 1219 681 1240 q 629 1188 650 1199 q 593 1165 608 1178 q 578 1126 578 1153 l 524 1126 z "},"Ȃ":{"ha":993,"x_min":-21,"x_max":1014,"o":"m 685 21 l 431 717 l 425 717 l 417 768 l 511 1060 l 547 1060 l 925 21 l 685 21 m -21 0 l -21 42 l 318 42 l 318 0 l -21 0 m 228 283 l 228 324 l 706 324 l 706 283 l 228 283 m 532 0 l 532 42 l 1014 42 l 1014 0 l 532 0 m 101 21 l 511 1060 l 547 1060 l 475 839 l 147 21 l 101 21 m 300 1172 q 359 1310 300 1257 q 532 1363 418 1363 q 706 1308 650 1363 q 763 1172 763 1253 l 701 1172 q 651 1219 699 1204 q 529 1233 603 1233 q 410 1219 457 1233 q 361 1172 364 1206 l 300 1172 z "},"Ā":{"ha":993,"x_min":-21,"x_max":1014,"o":"m 685 21 l 431 717 l 425 717 l 417 768 l 511 1060 l 547 1060 l 925 21 l 685 21 m -21 0 l -21 42 l 318 42 l 318 0 l -21 0 m 228 283 l 228 324 l 706 324 l 706 283 l 228 283 m 532 0 l 532 42 l 1014 42 l 1014 0 l 532 0 m 101 21 l 511 1060 l 547 1060 l 475 839 l 147 21 l 101 21 m 306 1181 l 306 1300 l 778 1300 l 778 1181 l 306 1181 z "},"Ą":{"ha":993,"x_min":-21,"x_max":1014,"o":"m 685 21 l 431 717 l 425 717 l 417 768 l 511 1060 l 547 1060 l 925 21 l 685 21 m -21 0 l -21 42 l 318 42 l 318 0 l -21 0 m 228 283 l 228 324 l 706 324 l 706 283 l 228 283 m 532 0 l 532 42 l 1014 42 l 1014 0 l 532 0 m 101 21 l 511 1060 l 547 1060 l 475 839 l 147 21 l 101 21 m 757 -337 q 667 -306 701 -337 q 633 -224 633 -275 q 652 -153 633 -187 q 714 -78 671 -118 q 829 14 757 -37 l 893 14 q 794 -103 831 -43 q 758 -211 758 -162 q 808 -264 758 -264 q 847 -256 828 -264 q 888 -229 865 -247 l 893 -229 l 893 -278 q 833 -322 869 -306 q 757 -337 797 -337 z "},"Å":{"ha":993,"x_min":-21,"x_max":1014,"o":"m 685 21 l 431 717 l 425 717 l 417 768 l 511 1060 l 547 1060 l 925 21 l 685 21 m -21 0 l -21 42 l 318 42 l 318 0 l -21 0 m 228 283 l 228 324 l 706 324 l 706 283 l 228 283 m 532 0 l 532 42 l 1014 42 l 1014 0 l 532 0 m 101 21 l 511 1060 l 547 1060 l 475 839 l 147 21 l 101 21 m 531 1142 q 437 1181 476 1142 q 397 1275 397 1221 q 437 1369 397 1331 q 531 1408 476 1408 q 626 1369 586 1408 q 665 1276 665 1331 q 626 1181 665 1221 q 531 1142 586 1142 m 531 1215 q 573 1233 556 1215 q 590 1275 590 1251 q 572 1316 590 1299 q 531 1333 554 1333 q 490 1316 508 1333 q 472 1275 472 1299 q 490 1234 472 1253 q 531 1215 507 1215 z "},"Ǻ":{"ha":993,"x_min":-21,"x_max":1014,"o":"m 685 21 l 431 717 l 425 717 l 417 768 l 511 1060 l 547 1060 l 925 21 l 685 21 m -21 0 l -21 42 l 318 42 l 318 0 l -21 0 m 228 283 l 228 324 l 706 324 l 706 283 l 228 283 m 532 0 l 532 42 l 1014 42 l 1014 0 l 532 0 m 101 21 l 511 1060 l 547 1060 l 475 839 l 147 21 l 101 21 m 531 1142 q 437 1181 476 1142 q 397 1275 397 1221 q 437 1369 397 1331 q 531 1408 476 1408 q 626 1369 586 1408 q 665 1276 665 1331 q 626 1181 665 1221 q 531 1142 586 1142 m 531 1215 q 573 1233 556 1215 q 590 1275 590 1251 q 572 1316 590 1299 q 531 1333 554 1333 q 490 1316 508 1333 q 472 1275 472 1299 q 490 1234 472 1253 q 531 1215 507 1215 m 328 1526 l 551 1671 q 611 1706 588 1694 q 665 1717 635 1717 q 717 1697 700 1717 q 735 1653 735 1678 q 721 1607 735 1629 q 661 1575 707 1585 l 415 1526 l 328 1526 z "},"Ã":{"ha":993,"x_min":-21,"x_max":1014,"o":"m 685 21 l 431 717 l 425 717 l 417 768 l 511 1060 l 547 1060 l 925 21 l 685 21 m -21 0 l -21 42 l 318 42 l 318 0 l -21 0 m 228 283 l 228 324 l 706 324 l 706 283 l 228 283 m 532 0 l 532 42 l 1014 42 l 1014 0 l 532 0 m 101 21 l 511 1060 l 547 1060 l 475 839 l 147 21 l 101 21 m 260 1172 q 292 1263 268 1219 q 357 1334 317 1306 q 451 1363 397 1363 q 520 1349 489 1363 q 581 1321 551 1335 q 642 1307 610 1307 q 721 1326 694 1307 q 757 1363 747 1344 l 804 1363 q 769 1272 793 1315 q 707 1201 746 1229 q 611 1174 668 1174 q 542 1188 572 1174 q 483 1215 511 1201 q 421 1229 454 1229 q 346 1213 376 1229 q 306 1172 315 1197 l 260 1172 z "},"Æ":{"ha":1571,"x_min":14,"x_max":1522,"o":"m 14 0 l 14 42 l 142 42 l 653 1006 l 535 1006 l 535 1047 l 1501 1047 l 1501 769 l 1446 769 q 1417 887 1444 833 q 1340 973 1390 940 q 1219 1006 1290 1006 l 983 1006 l 983 536 q 1127 557 1074 538 q 1206 616 1181 576 q 1232 717 1231 656 l 1288 717 l 1288 300 l 1232 300 q 1206 409 1231 367 q 1127 473 1181 451 q 983 494 1074 494 l 983 42 l 1219 42 q 1351 83 1297 42 q 1435 193 1406 125 q 1467 340 1465 261 l 1522 340 l 1522 0 l 632 0 l 632 42 l 764 42 l 764 321 l 357 321 l 208 42 l 353 42 l 353 0 l 14 0 m 381 365 l 764 365 l 764 1006 l 722 1006 l 381 365 z "},"Ǽ":{"ha":1571,"x_min":14,"x_max":1522,"o":"m 14 0 l 14 42 l 142 42 l 653 1006 l 535 1006 l 535 1047 l 1501 1047 l 1501 769 l 1446 769 q 1417 887 1444 833 q 1340 973 1390 940 q 1219 1006 1290 1006 l 983 1006 l 983 536 q 1127 557 1074 538 q 1206 616 1181 576 q 1232 717 1231 656 l 1288 717 l 1288 300 l 1232 300 q 1206 409 1231 367 q 1127 473 1181 451 q 983 494 1074 494 l 983 42 l 1219 42 q 1351 83 1297 42 q 1435 193 1406 125 q 1467 340 1465 261 l 1522 340 l 1522 0 l 632 0 l 632 42 l 764 42 l 764 321 l 357 321 l 208 42 l 353 42 l 353 0 l 14 0 m 381 365 l 764 365 l 764 1006 l 722 1006 l 381 365 m 804 1172 l 1028 1317 q 1088 1351 1064 1340 q 1142 1363 1111 1363 q 1194 1343 1176 1363 q 1211 1299 1211 1324 q 1197 1253 1211 1275 q 1138 1221 1183 1231 l 892 1172 l 804 1172 z "},"B":{"ha":1043,"x_min":35,"x_max":981,"o":"m 35 0 l 35 42 l 539 42 q 643 61 600 42 q 710 134 686 81 q 733 286 733 188 q 713 422 733 374 q 645 490 693 471 q 515 510 597 510 l 474 558 q 739 530 625 558 q 917 438 853 501 q 981 269 981 375 q 930 117 981 176 q 792 28 879 57 q 594 0 704 0 l 35 0 m 174 21 l 174 1047 l 393 1047 l 393 21 l 174 21 m 317 510 l 317 558 l 539 558 q 634 576 597 558 q 688 643 671 594 q 706 783 706 692 q 688 924 706 876 q 634 989 671 972 q 539 1006 597 1006 l 35 1006 l 35 1047 l 594 1047 q 770 1018 692 1047 q 895 931 849 989 q 942 785 942 872 q 890 633 942 694 q 749 540 839 571 q 539 510 658 510 l 317 510 z "},"C":{"ha":988,"x_min":69,"x_max":925,"o":"m 572 -18 q 371 25 463 -18 q 212 142 279 68 q 107 313 144 217 q 69 517 69 410 q 106 721 69 624 q 211 894 143 818 q 372 1015 279 971 q 578 1060 465 1060 q 702 1040 650 1060 q 810 978 754 1019 l 871 1047 l 906 1047 l 906 726 l 864 726 q 813 872 849 807 q 719 974 778 936 q 572 1011 660 1011 q 477 992 521 1011 q 401 919 433 972 q 351 765 369 865 q 333 501 333 664 q 348 266 333 358 q 393 122 363 174 q 469 51 424 71 q 574 31 514 31 q 731 68 668 31 q 831 167 794 106 q 883 301 868 229 l 925 301 l 925 0 l 883 0 l 822 64 q 701 1 763 21 q 572 -18 639 -18 z "},"Ć":{"ha":988,"x_min":69,"x_max":925,"o":"m 572 -18 q 371 25 463 -18 q 212 142 279 68 q 107 313 144 217 q 69 517 69 410 q 106 721 69 624 q 211 894 143 818 q 372 1015 279 971 q 578 1060 465 1060 q 702 1040 650 1060 q 810 978 754 1019 l 871 1047 l 906 1047 l 906 726 l 864 726 q 813 872 849 807 q 719 974 778 936 q 572 1011 660 1011 q 477 992 521 1011 q 401 919 433 972 q 351 765 369 865 q 333 501 333 664 q 348 266 333 358 q 393 122 363 174 q 469 51 424 71 q 574 31 514 31 q 731 68 668 31 q 831 167 794 106 q 883 301 868 229 l 925 301 l 925 0 l 883 0 l 822 64 q 701 1 763 21 q 572 -18 639 -18 m 365 1172 l 589 1317 q 649 1351 625 1340 q 703 1363 672 1363 q 755 1343 738 1363 q 772 1299 772 1324 q 758 1253 772 1275 q 699 1221 744 1231 l 453 1172 l 365 1172 z "},"Č":{"ha":988,"x_min":69,"x_max":925,"o":"m 572 -18 q 371 25 463 -18 q 212 142 279 68 q 107 313 144 217 q 69 517 69 410 q 106 721 69 624 q 211 894 143 818 q 372 1015 279 971 q 578 1060 465 1060 q 702 1040 650 1060 q 810 978 754 1019 l 871 1047 l 906 1047 l 906 726 l 864 726 q 813 872 849 807 q 719 974 778 936 q 572 1011 660 1011 q 477 992 521 1011 q 401 919 433 972 q 351 765 369 865 q 333 501 333 664 q 348 266 333 358 q 393 122 363 174 q 469 51 424 71 q 574 31 514 31 q 731 68 668 31 q 831 167 794 106 q 883 301 868 229 l 925 301 l 925 0 l 883 0 l 822 64 q 701 1 763 21 q 572 -18 639 -18 m 526 1172 l 289 1361 l 363 1361 l 569 1303 l 776 1361 l 850 1361 l 613 1172 l 526 1172 z "},"Ç":{"ha":988,"x_min":69,"x_max":925,"o":"m 572 -18 q 371 25 463 -18 q 212 142 279 68 q 107 313 144 217 q 69 517 69 410 q 106 721 69 624 q 211 894 143 818 q 372 1015 279 971 q 578 1060 465 1060 q 702 1040 650 1060 q 810 978 754 1019 l 871 1047 l 906 1047 l 906 726 l 864 726 q 813 872 849 807 q 719 974 778 936 q 572 1011 660 1011 q 477 992 521 1011 q 401 919 433 972 q 351 765 369 865 q 333 501 333 664 q 348 266 333 358 q 393 122 363 174 q 469 51 424 71 q 574 31 514 31 q 731 68 668 31 q 831 167 794 106 q 883 301 868 229 l 925 301 l 925 0 l 883 0 l 822 64 q 701 1 763 21 q 572 -18 639 -18 m 524 -331 q 453 -322 482 -331 q 413 -307 424 -314 l 428 -260 q 462 -270 439 -265 q 506 -275 485 -275 q 567 -260 544 -275 q 589 -212 589 -244 q 478 -143 589 -144 l 532 10 l 594 10 l 561 -96 l 588 -96 q 692 -122 653 -96 q 732 -196 732 -147 q 675 -295 732 -260 q 524 -331 618 -331 z "},"Ĉ":{"ha":988,"x_min":69,"x_max":925,"o":"m 572 -18 q 371 25 463 -18 q 212 142 279 68 q 107 313 144 217 q 69 517 69 410 q 106 721 69 624 q 211 894 143 818 q 372 1015 279 971 q 578 1060 465 1060 q 702 1040 650 1060 q 810 978 754 1019 l 871 1047 l 906 1047 l 906 726 l 864 726 q 813 872 849 807 q 719 974 778 936 q 572 1011 660 1011 q 477 992 521 1011 q 401 919 433 972 q 351 765 369 865 q 333 501 333 664 q 348 266 333 358 q 393 122 363 174 q 469 51 424 71 q 574 31 514 31 q 731 68 668 31 q 831 167 794 106 q 883 301 868 229 l 925 301 l 925 0 l 883 0 l 822 64 q 701 1 763 21 q 572 -18 639 -18 m 289 1172 l 526 1361 l 613 1361 l 850 1172 l 776 1172 l 569 1231 l 363 1172 l 289 1172 z "},"Ċ":{"ha":988,"x_min":69,"x_max":925,"o":"m 572 -18 q 371 25 463 -18 q 212 142 279 68 q 107 313 144 217 q 69 517 69 410 q 106 721 69 624 q 211 894 143 818 q 372 1015 279 971 q 578 1060 465 1060 q 702 1040 650 1060 q 810 978 754 1019 l 871 1047 l 906 1047 l 906 726 l 864 726 q 813 872 849 807 q 719 974 778 936 q 572 1011 660 1011 q 477 992 521 1011 q 401 919 433 972 q 351 765 369 865 q 333 501 333 664 q 348 266 333 358 q 393 122 363 174 q 469 51 424 71 q 574 31 514 31 q 731 68 668 31 q 831 167 794 106 q 883 301 868 229 l 925 301 l 925 0 l 883 0 l 822 64 q 701 1 763 21 q 572 -18 639 -18 m 568 1144 q 490 1178 524 1144 q 457 1256 457 1211 q 490 1335 457 1301 q 568 1368 524 1368 q 647 1335 614 1368 q 681 1256 681 1301 q 647 1178 681 1211 q 568 1144 614 1144 z "},"D":{"ha":1108,"x_min":28,"x_max":1067,"o":"m 28 0 l 28 42 l 529 42 q 656 63 604 42 q 741 136 708 83 q 788 284 774 189 q 803 526 803 379 q 789 765 803 671 q 744 911 775 858 q 663 985 713 964 q 542 1006 613 1006 l 28 1006 l 28 1047 l 585 1047 q 774 1006 686 1047 q 927 891 861 964 q 1030 724 993 818 q 1067 528 1067 631 q 1028 328 1067 424 q 923 160 990 233 q 765 43 856 86 q 571 0 675 0 l 28 0 m 160 21 l 160 1047 l 379 1047 l 379 21 l 160 21 z "},"Ǳ":{"ha":1971,"x_min":28,"x_max":1964,"o":"m 28 0 l 28 42 l 529 42 q 656 63 604 42 q 741 136 708 83 q 788 284 774 189 q 803 526 803 379 q 789 765 803 671 q 744 911 775 858 q 663 985 713 964 q 542 1006 613 1006 l 28 1006 l 28 1047 l 585 1047 q 774 1006 686 1047 q 927 891 861 964 q 1030 724 993 818 q 1067 528 1067 631 q 1028 328 1067 424 q 923 160 990 233 q 765 43 856 86 q 571 0 675 0 l 28 0 m 160 21 l 160 1047 l 379 1047 l 379 21 l 160 21 m 1122 10 l 1122 54 l 1697 1000 l 1697 1008 l 1964 1017 l 1964 992 l 1379 50 l 1379 32 l 1122 10 m 1122 0 l 1122 44 l 1619 44 q 1766 86 1706 44 q 1860 195 1826 128 q 1894 340 1893 263 l 1950 340 l 1950 0 l 1122 0 m 1192 763 l 1192 1047 l 1964 1047 l 1964 1006 l 1508 1006 q 1369 972 1428 1006 q 1280 883 1311 939 q 1247 763 1249 828 l 1192 763 z "},"Ǆ":{"ha":1971,"x_min":28,"x_max":1964,"o":"m 28 0 l 28 42 l 529 42 q 656 63 604 42 q 741 136 708 83 q 788 284 774 189 q 803 526 803 379 q 789 765 803 671 q 744 911 775 858 q 663 985 713 964 q 542 1006 613 1006 l 28 1006 l 28 1047 l 585 1047 q 774 1006 686 1047 q 927 891 861 964 q 1030 724 993 818 q 1067 528 1067 631 q 1028 328 1067 424 q 923 160 990 233 q 765 43 856 86 q 571 0 675 0 l 28 0 m 160 21 l 160 1047 l 379 1047 l 379 21 l 160 21 m 1122 10 l 1122 54 l 1697 1000 l 1697 1008 l 1964 1017 l 1964 992 l 1379 50 l 1379 32 l 1122 10 m 1122 0 l 1122 44 l 1619 44 q 1766 86 1706 44 q 1860 195 1826 128 q 1894 340 1893 263 l 1950 340 l 1950 0 l 1122 0 m 1192 763 l 1192 1047 l 1964 1047 l 1964 1006 l 1508 1006 q 1369 972 1428 1006 q 1280 883 1311 939 q 1247 763 1249 828 l 1192 763 m 1497 1172 l 1260 1361 l 1333 1361 l 1540 1303 l 1747 1361 l 1821 1361 l 1583 1172 l 1497 1172 z "},"Ð":{"ha":1108,"x_min":-21,"x_max":1067,"o":"m 28 0 l 28 42 l 529 42 q 656 63 604 42 q 741 136 708 83 q 788 284 774 189 q 803 526 803 379 q 789 765 803 671 q 744 911 775 858 q 663 985 713 964 q 542 1006 613 1006 l 28 1006 l 28 1047 l 585 1047 q 774 1006 686 1047 q 927 891 861 964 q 1030 724 993 818 q 1067 528 1067 631 q 1028 328 1067 424 q 923 160 990 233 q 765 43 856 86 q 571 0 675 0 l 28 0 m 160 21 l 160 1047 l 379 1047 l 379 21 l 160 21 m -21 518 l -21 583 l 528 583 l 528 518 l -21 518 z "},"Ď":{"ha":1108,"x_min":28,"x_max":1067,"o":"m 28 0 l 28 42 l 529 42 q 656 63 604 42 q 741 136 708 83 q 788 284 774 189 q 803 526 803 379 q 789 765 803 671 q 744 911 775 858 q 663 985 713 964 q 542 1006 613 1006 l 28 1006 l 28 1047 l 585 1047 q 774 1006 686 1047 q 927 891 861 964 q 1030 724 993 818 q 1067 528 1067 631 q 1028 328 1067 424 q 923 160 990 233 q 765 43 856 86 q 571 0 675 0 l 28 0 m 160 21 l 160 1047 l 379 1047 l 379 21 l 160 21 m 511 1172 l 274 1361 l 347 1361 l 554 1303 l 761 1361 l 835 1361 l 597 1172 l 511 1172 z "},"Đ":{"ha":1108,"x_min":-21,"x_max":1067,"o":"m 28 0 l 28 42 l 529 42 q 656 63 604 42 q 741 136 708 83 q 788 284 774 189 q 803 526 803 379 q 789 765 803 671 q 744 911 775 858 q 663 985 713 964 q 542 1006 613 1006 l 28 1006 l 28 1047 l 585 1047 q 774 1006 686 1047 q 927 891 861 964 q 1030 724 993 818 q 1067 528 1067 631 q 1028 328 1067 424 q 923 160 990 233 q 765 43 856 86 q 571 0 675 0 l 28 0 m 160 21 l 160 1047 l 379 1047 l 379 21 l 160 21 m -21 518 l -21 583 l 528 583 l 528 518 l -21 518 z "},"Ḍ":{"ha":1108,"x_min":28,"x_max":1067,"o":"m 28 0 l 28 42 l 529 42 q 656 63 604 42 q 741 136 708 83 q 788 284 774 189 q 803 526 803 379 q 789 765 803 671 q 744 911 775 858 q 663 985 713 964 q 542 1006 613 1006 l 28 1006 l 28 1047 l 585 1047 q 774 1006 686 1047 q 927 891 861 964 q 1030 724 993 818 q 1067 528 1067 631 q 1028 328 1067 424 q 923 160 990 233 q 765 43 856 86 q 571 0 675 0 l 28 0 m 160 21 l 160 1047 l 379 1047 l 379 21 l 160 21 m 553 -361 q 475 -328 508 -361 q 442 -250 442 -294 q 475 -171 442 -204 q 553 -137 508 -137 q 632 -171 599 -137 q 665 -250 665 -204 q 632 -328 665 -294 q 553 -361 599 -361 z "},"ǲ":{"ha":1769,"x_min":28,"x_max":1728,"o":"m 28 0 l 28 42 l 529 42 q 656 63 604 42 q 741 136 708 83 q 788 284 774 189 q 803 526 803 379 q 789 765 803 671 q 744 911 775 858 q 663 985 713 964 q 542 1006 613 1006 l 28 1006 l 28 1047 l 585 1047 q 774 1006 686 1047 q 927 891 861 964 q 1030 724 993 818 q 1067 528 1067 631 q 1028 328 1067 424 q 923 160 990 233 q 765 43 856 86 q 571 0 675 0 l 28 0 m 160 21 l 160 1047 l 379 1047 l 379 21 l 160 21 m 1147 21 l 1143 49 l 1529 613 l 1708 613 l 1728 578 l 1351 21 l 1147 21 m 1143 0 l 1143 49 l 1154 42 l 1486 42 q 1618 90 1564 42 q 1676 235 1672 139 l 1678 257 l 1719 257 l 1719 0 l 1143 0 m 1188 382 l 1188 625 l 1728 625 l 1728 578 l 1717 583 l 1421 583 q 1319 556 1361 583 q 1253 483 1276 528 q 1229 382 1231 438 l 1188 382 z "},"ǅ":{"ha":1769,"x_min":28,"x_max":1728,"o":"m 28 0 l 28 42 l 529 42 q 656 63 604 42 q 741 136 708 83 q 788 284 774 189 q 803 526 803 379 q 789 765 803 671 q 744 911 775 858 q 663 985 713 964 q 542 1006 613 1006 l 28 1006 l 28 1047 l 585 1047 q 774 1006 686 1047 q 927 891 861 964 q 1030 724 993 818 q 1067 528 1067 631 q 1028 328 1067 424 q 923 160 990 233 q 765 43 856 86 q 571 0 675 0 l 28 0 m 160 21 l 160 1047 l 379 1047 l 379 21 l 160 21 m 1147 21 l 1143 49 l 1529 613 l 1708 613 l 1728 578 l 1351 21 l 1147 21 m 1143 0 l 1143 49 l 1154 42 l 1486 42 q 1618 90 1564 42 q 1676 235 1672 139 l 1678 257 l 1719 257 l 1719 0 l 1143 0 m 1188 382 l 1188 625 l 1728 625 l 1728 578 l 1717 583 l 1421 583 q 1319 556 1361 583 q 1253 483 1276 528 q 1229 382 1231 438 l 1188 382 m 1396 728 l 1186 1006 l 1246 1006 l 1439 886 l 1632 1006 l 1692 1006 l 1482 728 l 1396 728 z "},"E":{"ha":967,"x_min":28,"x_max":918,"o":"m 28 0 l 28 42 l 615 42 q 747 83 693 42 q 831 193 801 125 q 863 340 861 261 l 918 340 l 918 0 l 28 0 m 160 21 l 160 1047 l 379 1047 l 379 21 l 160 21 m 628 300 q 601 410 626 367 q 521 474 576 453 q 374 494 465 494 l 374 536 q 521 556 465 536 q 601 615 576 575 q 628 717 626 656 l 683 717 l 683 300 l 628 300 m 842 769 q 813 887 840 833 q 736 973 786 940 q 615 1006 686 1006 l 28 1006 l 28 1047 l 897 1047 l 897 769 l 842 769 z "},"É":{"ha":967,"x_min":28,"x_max":918,"o":"m 28 0 l 28 42 l 615 42 q 747 83 693 42 q 831 193 801 125 q 863 340 861 261 l 918 340 l 918 0 l 28 0 m 160 21 l 160 1047 l 379 1047 l 379 21 l 160 21 m 628 300 q 601 410 626 367 q 521 474 576 453 q 374 494 465 494 l 374 536 q 521 556 465 536 q 601 615 576 575 q 628 717 626 656 l 683 717 l 683 300 l 628 300 m 842 769 q 813 887 840 833 q 736 973 786 940 q 615 1006 686 1006 l 28 1006 l 28 1047 l 897 1047 l 897 769 l 842 769 m 279 1172 l 503 1317 q 563 1351 539 1340 q 617 1363 586 1363 q 669 1343 651 1363 q 686 1299 686 1324 q 672 1253 686 1275 q 613 1221 658 1231 l 367 1172 l 279 1172 z "},"Ĕ":{"ha":967,"x_min":28,"x_max":918,"o":"m 28 0 l 28 42 l 615 42 q 747 83 693 42 q 831 193 801 125 q 863 340 861 261 l 918 340 l 918 0 l 28 0 m 160 21 l 160 1047 l 379 1047 l 379 21 l 160 21 m 628 300 q 601 410 626 367 q 521 474 576 453 q 374 494 465 494 l 374 536 q 521 556 465 536 q 601 615 576 575 q 628 717 626 656 l 683 717 l 683 300 l 628 300 m 842 769 q 813 887 840 833 q 736 973 786 940 q 615 1006 686 1006 l 28 1006 l 28 1047 l 897 1047 l 897 769 l 842 769 m 483 1172 q 310 1225 369 1172 q 251 1363 251 1278 l 313 1363 q 362 1315 315 1329 q 481 1301 408 1301 q 602 1317 554 1301 q 653 1363 650 1332 l 714 1363 q 658 1227 714 1282 q 483 1172 601 1172 z "},"Ě":{"ha":967,"x_min":28,"x_max":918,"o":"m 28 0 l 28 42 l 615 42 q 747 83 693 42 q 831 193 801 125 q 863 340 861 261 l 918 340 l 918 0 l 28 0 m 160 21 l 160 1047 l 379 1047 l 379 21 l 160 21 m 628 300 q 601 410 626 367 q 521 474 576 453 q 374 494 465 494 l 374 536 q 521 556 465 536 q 601 615 576 575 q 628 717 626 656 l 683 717 l 683 300 l 628 300 m 842 769 q 813 887 840 833 q 736 973 786 940 q 615 1006 686 1006 l 28 1006 l 28 1047 l 897 1047 l 897 769 l 842 769 m 440 1172 l 203 1361 l 276 1361 l 483 1303 l 690 1361 l 764 1361 l 526 1172 l 440 1172 z "},"Ê":{"ha":967,"x_min":28,"x_max":918,"o":"m 28 0 l 28 42 l 615 42 q 747 83 693 42 q 831 193 801 125 q 863 340 861 261 l 918 340 l 918 0 l 28 0 m 160 21 l 160 1047 l 379 1047 l 379 21 l 160 21 m 628 300 q 601 410 626 367 q 521 474 576 453 q 374 494 465 494 l 374 536 q 521 556 465 536 q 601 615 576 575 q 628 717 626 656 l 683 717 l 683 300 l 628 300 m 842 769 q 813 887 840 833 q 736 973 786 940 q 615 1006 686 1006 l 28 1006 l 28 1047 l 897 1047 l 897 769 l 842 769 m 203 1172 l 440 1361 l 526 1361 l 764 1172 l 690 1172 l 483 1231 l 276 1172 l 203 1172 z "},"Ế":{"ha":967,"x_min":28,"x_max":918,"o":"m 28 0 l 28 42 l 615 42 q 747 83 693 42 q 831 193 801 125 q 863 340 861 261 l 918 340 l 918 0 l 28 0 m 160 21 l 160 1047 l 379 1047 l 379 21 l 160 21 m 628 300 q 601 410 626 367 q 521 474 576 453 q 374 494 465 494 l 374 536 q 521 556 465 536 q 601 615 576 575 q 628 717 626 656 l 683 717 l 683 300 l 628 300 m 842 769 q 813 887 840 833 q 736 973 786 940 q 615 1006 686 1006 l 28 1006 l 28 1047 l 897 1047 l 897 769 l 842 769 m 244 1149 l 440 1310 l 526 1310 l 722 1149 l 649 1149 l 483 1207 l 318 1149 l 244 1149 m 279 1360 l 503 1504 q 563 1539 539 1528 q 617 1550 586 1550 q 669 1531 651 1550 q 686 1486 686 1511 q 672 1440 686 1463 q 613 1408 658 1418 l 367 1360 l 279 1360 z "},"Ệ":{"ha":967,"x_min":28,"x_max":918,"o":"m 28 0 l 28 42 l 615 42 q 747 83 693 42 q 831 193 801 125 q 863 340 861 261 l 918 340 l 918 0 l 28 0 m 160 21 l 160 1047 l 379 1047 l 379 21 l 160 21 m 628 300 q 601 410 626 367 q 521 474 576 453 q 374 494 465 494 l 374 536 q 521 556 465 536 q 601 615 576 575 q 628 717 626 656 l 683 717 l 683 300 l 628 300 m 842 769 q 813 887 840 833 q 736 973 786 940 q 615 1006 686 1006 l 28 1006 l 28 1047 l 897 1047 l 897 769 l 842 769 m 482 -361 q 404 -328 438 -361 q 371 -250 371 -294 q 404 -171 371 -204 q 482 -137 438 -137 q 561 -171 528 -137 q 594 -250 594 -204 q 561 -328 594 -294 q 482 -361 528 -361 m 203 1172 l 440 1361 l 526 1361 l 764 1172 l 690 1172 l 483 1231 l 276 1172 l 203 1172 z "},"Ề":{"ha":967,"x_min":28,"x_max":918,"o":"m 28 0 l 28 42 l 615 42 q 747 83 693 42 q 831 193 801 125 q 863 340 861 261 l 918 340 l 918 0 l 28 0 m 160 21 l 160 1047 l 379 1047 l 379 21 l 160 21 m 628 300 q 601 410 626 367 q 521 474 576 453 q 374 494 465 494 l 374 536 q 521 556 465 536 q 601 615 576 575 q 628 717 626 656 l 683 717 l 683 300 l 628 300 m 842 769 q 813 887 840 833 q 736 973 786 940 q 615 1006 686 1006 l 28 1006 l 28 1047 l 897 1047 l 897 769 l 842 769 m 244 1149 l 440 1310 l 526 1310 l 722 1149 l 649 1149 l 483 1207 l 318 1149 l 244 1149 m 599 1369 l 353 1418 q 293 1450 307 1428 q 279 1496 279 1472 q 297 1540 279 1521 q 349 1560 314 1560 q 403 1549 379 1560 q 463 1514 426 1538 l 686 1369 l 599 1369 z "},"Ể":{"ha":967,"x_min":28,"x_max":918,"o":"m 28 0 l 28 42 l 615 42 q 747 83 693 42 q 831 193 801 125 q 863 340 861 261 l 918 340 l 918 0 l 28 0 m 160 21 l 160 1047 l 379 1047 l 379 21 l 160 21 m 628 300 q 601 410 626 367 q 521 474 576 453 q 374 494 465 494 l 374 536 q 521 556 465 536 q 601 615 576 575 q 628 717 626 656 l 683 717 l 683 300 l 628 300 m 842 769 q 813 887 840 833 q 736 973 786 940 q 615 1006 686 1006 l 28 1006 l 28 1047 l 897 1047 l 897 769 l 842 769 m 244 1149 l 440 1310 l 526 1310 l 722 1149 l 649 1149 l 483 1207 l 318 1149 l 244 1149 m 665 1313 q 676 1371 665 1349 q 701 1407 686 1393 q 726 1431 715 1421 q 736 1454 736 1442 q 719 1504 736 1488 q 672 1521 703 1521 q 626 1506 643 1521 q 610 1476 610 1492 q 617 1456 610 1460 q 632 1446 625 1451 q 639 1421 639 1440 q 621 1393 639 1401 q 585 1385 603 1385 q 542 1403 560 1385 q 524 1453 524 1422 q 543 1526 524 1499 q 597 1567 563 1554 q 672 1581 631 1581 q 785 1548 749 1581 q 822 1442 822 1515 q 807 1394 822 1410 q 771 1371 792 1379 q 735 1351 750 1363 q 719 1313 719 1339 l 665 1313 z "},"Ễ":{"ha":967,"x_min":28,"x_max":918,"o":"m 28 0 l 28 42 l 615 42 q 747 83 693 42 q 831 193 801 125 q 863 340 861 261 l 918 340 l 918 0 l 28 0 m 160 21 l 160 1047 l 379 1047 l 379 21 l 160 21 m 628 300 q 601 410 626 367 q 521 474 576 453 q 374 494 465 494 l 374 536 q 521 556 465 536 q 601 615 576 575 q 628 717 626 656 l 683 717 l 683 300 l 628 300 m 842 769 q 813 887 840 833 q 736 973 786 940 q 615 1006 686 1006 l 28 1006 l 28 1047 l 897 1047 l 897 769 l 842 769 m 244 1149 l 440 1310 l 526 1310 l 722 1149 l 649 1149 l 483 1207 l 318 1149 l 244 1149 m 211 1393 q 244 1483 219 1440 q 309 1555 269 1526 q 403 1583 349 1583 q 472 1569 440 1583 q 532 1542 503 1556 q 593 1528 561 1528 q 672 1547 646 1528 q 708 1583 699 1565 l 756 1583 q 721 1493 744 1536 q 658 1422 697 1450 q 563 1394 619 1394 q 493 1408 524 1394 q 434 1436 463 1422 q 372 1450 406 1450 q 297 1434 328 1450 q 257 1393 267 1418 l 211 1393 z "},"Ȅ":{"ha":967,"x_min":28,"x_max":918,"o":"m 28 0 l 28 42 l 615 42 q 747 83 693 42 q 831 193 801 125 q 863 340 861 261 l 918 340 l 918 0 l 28 0 m 160 21 l 160 1047 l 379 1047 l 379 21 l 160 21 m 628 300 q 601 410 626 367 q 521 474 576 453 q 374 494 465 494 l 374 536 q 521 556 465 536 q 601 615 576 575 q 628 717 626 656 l 683 717 l 683 300 l 628 300 m 842 769 q 813 887 840 833 q 736 973 786 940 q 615 1006 686 1006 l 28 1006 l 28 1047 l 897 1047 l 897 769 l 842 769 m 753 1172 l 507 1221 q 447 1253 461 1231 q 433 1299 433 1275 q 451 1343 433 1324 q 503 1363 468 1363 q 557 1351 533 1363 q 617 1317 581 1340 l 840 1172 l 753 1172 m 444 1172 l 199 1221 q 139 1253 153 1231 q 125 1299 125 1275 q 142 1343 125 1324 q 194 1363 160 1363 q 249 1351 225 1363 q 308 1317 272 1340 l 532 1172 l 444 1172 z "},"Ë":{"ha":967,"x_min":28,"x_max":918,"o":"m 28 0 l 28 42 l 615 42 q 747 83 693 42 q 831 193 801 125 q 863 340 861 261 l 918 340 l 918 0 l 28 0 m 160 21 l 160 1047 l 379 1047 l 379 21 l 160 21 m 628 300 q 601 410 626 367 q 521 474 576 453 q 374 494 465 494 l 374 536 q 521 556 465 536 q 601 615 576 575 q 628 717 626 656 l 683 717 l 683 300 l 628 300 m 842 769 q 813 887 840 833 q 736 973 786 940 q 615 1006 686 1006 l 28 1006 l 28 1047 l 897 1047 l 897 769 l 842 769 m 628 1154 q 558 1184 588 1154 q 528 1254 528 1214 q 558 1324 528 1294 q 628 1354 588 1354 q 698 1324 668 1354 q 728 1254 728 1294 q 698 1184 728 1214 q 628 1154 668 1154 m 339 1154 q 269 1184 299 1154 q 239 1254 239 1214 q 269 1324 239 1294 q 339 1354 299 1354 q 409 1324 379 1354 q 439 1254 439 1294 q 409 1184 439 1214 q 339 1154 379 1154 z "},"Ė":{"ha":967,"x_min":28,"x_max":918,"o":"m 28 0 l 28 42 l 615 42 q 747 83 693 42 q 831 193 801 125 q 863 340 861 261 l 918 340 l 918 0 l 28 0 m 160 21 l 160 1047 l 379 1047 l 379 21 l 160 21 m 628 300 q 601 410 626 367 q 521 474 576 453 q 374 494 465 494 l 374 536 q 521 556 465 536 q 601 615 576 575 q 628 717 626 656 l 683 717 l 683 300 l 628 300 m 842 769 q 813 887 840 833 q 736 973 786 940 q 615 1006 686 1006 l 28 1006 l 28 1047 l 897 1047 l 897 769 l 842 769 m 482 1144 q 404 1178 438 1144 q 371 1256 371 1211 q 404 1335 371 1301 q 482 1368 438 1368 q 561 1335 528 1368 q 594 1256 594 1301 q 561 1178 594 1211 q 482 1144 528 1144 z "},"Ẹ":{"ha":967,"x_min":28,"x_max":918,"o":"m 28 0 l 28 42 l 615 42 q 747 83 693 42 q 831 193 801 125 q 863 340 861 261 l 918 340 l 918 0 l 28 0 m 160 21 l 160 1047 l 379 1047 l 379 21 l 160 21 m 628 300 q 601 410 626 367 q 521 474 576 453 q 374 494 465 494 l 374 536 q 521 556 465 536 q 601 615 576 575 q 628 717 626 656 l 683 717 l 683 300 l 628 300 m 842 769 q 813 887 840 833 q 736 973 786 940 q 615 1006 686 1006 l 28 1006 l 28 1047 l 897 1047 l 897 769 l 842 769 m 482 -361 q 404 -328 438 -361 q 371 -250 371 -294 q 404 -171 371 -204 q 482 -137 438 -137 q 561 -171 528 -137 q 594 -250 594 -204 q 561 -328 594 -294 q 482 -361 528 -361 z "},"È":{"ha":967,"x_min":28,"x_max":918,"o":"m 28 0 l 28 42 l 615 42 q 747 83 693 42 q 831 193 801 125 q 863 340 861 261 l 918 340 l 918 0 l 28 0 m 160 21 l 160 1047 l 379 1047 l 379 21 l 160 21 m 628 300 q 601 410 626 367 q 521 474 576 453 q 374 494 465 494 l 374 536 q 521 556 465 536 q 601 615 576 575 q 628 717 626 656 l 683 717 l 683 300 l 628 300 m 842 769 q 813 887 840 833 q 736 973 786 940 q 615 1006 686 1006 l 28 1006 l 28 1047 l 897 1047 l 897 769 l 842 769 m 599 1172 l 353 1221 q 293 1253 307 1231 q 279 1299 279 1275 q 297 1343 279 1324 q 349 1363 314 1363 q 403 1351 379 1363 q 463 1317 426 1340 l 686 1172 l 599 1172 z "},"Ẻ":{"ha":967,"x_min":28,"x_max":918,"o":"m 28 0 l 28 42 l 615 42 q 747 83 693 42 q 831 193 801 125 q 863 340 861 261 l 918 340 l 918 0 l 28 0 m 160 21 l 160 1047 l 379 1047 l 379 21 l 160 21 m 628 300 q 601 410 626 367 q 521 474 576 453 q 374 494 465 494 l 374 536 q 521 556 465 536 q 601 615 576 575 q 628 717 626 656 l 683 717 l 683 300 l 628 300 m 842 769 q 813 887 840 833 q 736 973 786 940 q 615 1006 686 1006 l 28 1006 l 28 1047 l 897 1047 l 897 769 l 842 769 m 475 1126 q 485 1184 475 1163 q 510 1220 496 1206 q 535 1248 525 1235 q 546 1282 546 1261 q 529 1320 546 1306 q 482 1335 513 1335 q 436 1320 453 1335 q 419 1290 419 1306 q 426 1269 419 1274 q 441 1260 433 1265 q 449 1235 449 1254 q 431 1207 449 1215 q 394 1199 413 1199 q 351 1217 369 1199 q 333 1267 333 1236 q 353 1340 333 1313 q 407 1381 374 1368 q 482 1394 440 1394 q 595 1365 558 1394 q 632 1283 632 1336 q 617 1219 632 1240 q 581 1188 601 1199 q 544 1165 560 1178 q 529 1126 529 1153 l 475 1126 z "},"Ȇ":{"ha":967,"x_min":28,"x_max":918,"o":"m 28 0 l 28 42 l 615 42 q 747 83 693 42 q 831 193 801 125 q 863 340 861 261 l 918 340 l 918 0 l 28 0 m 160 21 l 160 1047 l 379 1047 l 379 21 l 160 21 m 628 300 q 601 410 626 367 q 521 474 576 453 q 374 494 465 494 l 374 536 q 521 556 465 536 q 601 615 576 575 q 628 717 626 656 l 683 717 l 683 300 l 628 300 m 842 769 q 813 887 840 833 q 736 973 786 940 q 615 1006 686 1006 l 28 1006 l 28 1047 l 897 1047 l 897 769 l 842 769 m 251 1172 q 310 1310 251 1257 q 483 1363 369 1363 q 658 1308 601 1363 q 714 1172 714 1253 l 653 1172 q 602 1219 650 1204 q 481 1233 554 1233 q 362 1219 408 1233 q 313 1172 315 1206 l 251 1172 z "},"Ē":{"ha":967,"x_min":28,"x_max":918,"o":"m 28 0 l 28 42 l 615 42 q 747 83 693 42 q 831 193 801 125 q 863 340 861 261 l 918 340 l 918 0 l 28 0 m 160 21 l 160 1047 l 379 1047 l 379 21 l 160 21 m 628 300 q 601 410 626 367 q 521 474 576 453 q 374 494 465 494 l 374 536 q 521 556 465 536 q 601 615 576 575 q 628 717 626 656 l 683 717 l 683 300 l 628 300 m 842 769 q 813 887 840 833 q 736 973 786 940 q 615 1006 686 1006 l 28 1006 l 28 1047 l 897 1047 l 897 769 l 842 769 m 257 1181 l 257 1300 l 729 1300 l 729 1181 l 257 1181 z "},"Ę":{"ha":967,"x_min":28,"x_max":918,"o":"m 28 0 l 28 42 l 615 42 q 747 83 693 42 q 831 193 801 125 q 863 340 861 261 l 918 340 l 918 0 l 28 0 m 160 21 l 160 1047 l 379 1047 l 379 21 l 160 21 m 628 300 q 601 410 626 367 q 521 474 576 453 q 374 494 465 494 l 374 536 q 521 556 465 536 q 601 615 576 575 q 628 717 626 656 l 683 717 l 683 300 l 628 300 m 842 769 q 813 887 840 833 q 736 973 786 940 q 615 1006 686 1006 l 28 1006 l 28 1047 l 897 1047 l 897 769 l 842 769 m 733 -337 q 644 -306 678 -337 q 610 -224 610 -275 q 628 -153 610 -187 q 690 -78 647 -118 q 806 14 733 -37 l 869 14 q 771 -103 807 -43 q 735 -211 735 -162 q 785 -264 735 -264 q 823 -256 804 -264 q 864 -229 842 -247 l 869 -229 l 869 -278 q 810 -322 846 -306 q 733 -337 774 -337 z "},"Ẽ":{"ha":967,"x_min":28,"x_max":918,"o":"m 28 0 l 28 42 l 615 42 q 747 83 693 42 q 831 193 801 125 q 863 340 861 261 l 918 340 l 918 0 l 28 0 m 160 21 l 160 1047 l 379 1047 l 379 21 l 160 21 m 628 300 q 601 410 626 367 q 521 474 576 453 q 374 494 465 494 l 374 536 q 521 556 465 536 q 601 615 576 575 q 628 717 626 656 l 683 717 l 683 300 l 628 300 m 842 769 q 813 887 840 833 q 736 973 786 940 q 615 1006 686 1006 l 28 1006 l 28 1047 l 897 1047 l 897 769 l 842 769 m 211 1172 q 244 1263 219 1219 q 308 1334 268 1306 q 403 1363 349 1363 q 472 1349 440 1363 q 532 1321 503 1335 q 593 1307 561 1307 q 672 1326 646 1307 q 708 1363 699 1344 l 756 1363 q 721 1272 744 1315 q 658 1201 697 1229 q 563 1174 619 1174 q 493 1188 524 1174 q 434 1215 463 1201 q 372 1229 406 1229 q 297 1213 328 1229 q 257 1172 267 1197 l 211 1172 z "},"Ə":{"ha":1104,"x_min":56,"x_max":1049,"o":"m 535 -18 q 354 15 440 -18 q 201 111 268 49 q 94 263 133 174 q 56 463 56 351 l 56 483 l 839 483 l 839 429 l 310 429 l 310 254 q 367 85 310 140 q 539 29 424 29 q 649 51 603 29 q 726 126 696 72 q 772 275 757 179 q 786 519 786 371 q 762 810 786 703 q 683 965 738 918 q 535 1011 628 1011 q 369 974 447 1011 q 233 869 290 936 q 144 713 175 803 l 90 713 q 188 896 121 818 q 346 1017 256 974 q 535 1061 436 1061 q 737 1017 643 1061 q 901 899 831 974 q 1010 727 971 824 q 1049 525 1049 631 q 1013 328 1049 425 q 909 153 976 232 q 747 28 842 75 q 535 -18 653 -18 z "},"F":{"ha":975,"x_min":28,"x_max":897,"o":"m 842 749 q 813 876 840 818 q 736 970 786 935 q 615 1006 686 1006 l 28 1006 l 28 1047 l 897 1047 l 897 749 l 842 749 m 28 0 l 28 42 l 557 42 l 557 0 l 28 0 m 160 19 l 160 1047 l 379 1047 l 379 19 l 160 19 m 628 299 q 601 408 626 365 q 521 472 576 451 q 374 493 465 493 l 374 535 q 521 554 465 535 q 601 614 576 574 q 628 715 626 654 l 683 715 l 683 299 l 628 299 z "},"G":{"ha":1097,"x_min":69,"x_max":1081,"o":"m 551 -18 q 363 22 450 -18 q 209 135 275 63 q 106 304 143 208 q 69 510 69 400 q 110 725 69 625 q 221 900 150 825 q 388 1017 292 975 q 593 1060 483 1060 q 713 1041 661 1060 q 824 978 764 1022 l 878 1047 l 919 1047 l 919 719 l 878 719 q 833 858 867 792 q 740 968 800 925 q 583 1011 679 1011 q 484 992 529 1011 q 405 918 439 972 q 352 763 371 864 q 333 497 333 661 q 348 268 333 358 q 390 126 363 178 q 457 54 417 75 q 549 33 497 33 q 678 78 635 33 q 721 201 721 122 l 721 392 l 974 392 l 974 236 q 887 108 951 165 q 734 16 822 50 q 551 -18 646 -18 m 588 375 l 588 417 l 1081 417 l 1081 375 l 588 375 z "},"Ǵ":{"ha":1097,"x_min":69,"x_max":1081,"o":"m 551 -18 q 363 22 450 -18 q 209 135 275 63 q 106 304 143 208 q 69 510 69 400 q 110 725 69 625 q 221 900 150 825 q 388 1017 292 975 q 593 1060 483 1060 q 713 1041 661 1060 q 824 978 764 1022 l 878 1047 l 919 1047 l 919 719 l 878 719 q 833 858 867 792 q 740 968 800 925 q 583 1011 679 1011 q 484 992 529 1011 q 405 918 439 972 q 352 763 371 864 q 333 497 333 661 q 348 268 333 358 q 390 126 363 178 q 457 54 417 75 q 549 33 497 33 q 678 78 635 33 q 721 201 721 122 l 721 392 l 974 392 l 974 236 q 887 108 951 165 q 734 16 822 50 q 551 -18 646 -18 m 588 375 l 588 417 l 1081 417 l 1081 375 l 588 375 m 344 1172 l 568 1317 q 628 1351 604 1340 q 682 1363 651 1363 q 734 1343 717 1363 q 751 1299 751 1324 q 738 1253 751 1275 q 678 1221 724 1231 l 432 1172 l 344 1172 z "},"Ğ":{"ha":1097,"x_min":69,"x_max":1081,"o":"m 551 -18 q 363 22 450 -18 q 209 135 275 63 q 106 304 143 208 q 69 510 69 400 q 110 725 69 625 q 221 900 150 825 q 388 1017 292 975 q 593 1060 483 1060 q 713 1041 661 1060 q 824 978 764 1022 l 878 1047 l 919 1047 l 919 719 l 878 719 q 833 858 867 792 q 740 968 800 925 q 583 1011 679 1011 q 484 992 529 1011 q 405 918 439 972 q 352 763 371 864 q 333 497 333 661 q 348 268 333 358 q 390 126 363 178 q 457 54 417 75 q 549 33 497 33 q 678 78 635 33 q 721 201 721 122 l 721 392 l 974 392 l 974 236 q 887 108 951 165 q 734 16 822 50 q 551 -18 646 -18 m 588 375 l 588 417 l 1081 417 l 1081 375 l 588 375 m 549 1172 q 376 1225 435 1172 q 317 1363 317 1278 l 378 1363 q 427 1315 381 1329 q 546 1301 474 1301 q 667 1317 619 1301 q 718 1363 715 1332 l 779 1363 q 723 1227 779 1282 q 549 1172 667 1172 z "},"Ĝ":{"ha":1097,"x_min":69,"x_max":1081,"o":"m 551 -18 q 363 22 450 -18 q 209 135 275 63 q 106 304 143 208 q 69 510 69 400 q 110 725 69 625 q 221 900 150 825 q 388 1017 292 975 q 593 1060 483 1060 q 713 1041 661 1060 q 824 978 764 1022 l 878 1047 l 919 1047 l 919 719 l 878 719 q 833 858 867 792 q 740 968 800 925 q 583 1011 679 1011 q 484 992 529 1011 q 405 918 439 972 q 352 763 371 864 q 333 497 333 661 q 348 268 333 358 q 390 126 363 178 q 457 54 417 75 q 549 33 497 33 q 678 78 635 33 q 721 201 721 122 l 721 392 l 974 392 l 974 236 q 887 108 951 165 q 734 16 822 50 q 551 -18 646 -18 m 588 375 l 588 417 l 1081 417 l 1081 375 l 588 375 m 268 1172 l 506 1361 l 592 1361 l 829 1172 l 756 1172 l 549 1231 l 342 1172 l 268 1172 z "},"Ģ":{"ha":1097,"x_min":69,"x_max":1081,"o":"m 551 -18 q 363 22 450 -18 q 209 135 275 63 q 106 304 143 208 q 69 510 69 400 q 110 725 69 625 q 221 900 150 825 q 388 1017 292 975 q 593 1060 483 1060 q 713 1041 661 1060 q 824 978 764 1022 l 878 1047 l 919 1047 l 919 719 l 878 719 q 833 858 867 792 q 740 968 800 925 q 583 1011 679 1011 q 484 992 529 1011 q 405 918 439 972 q 352 763 371 864 q 333 497 333 661 q 348 268 333 358 q 390 126 363 178 q 457 54 417 75 q 549 33 497 33 q 678 78 635 33 q 721 201 721 122 l 721 392 l 974 392 l 974 236 q 887 108 951 165 q 734 16 822 50 q 551 -18 646 -18 m 588 375 l 588 417 l 1081 417 l 1081 375 l 588 375 m 497 -436 l 469 -406 q 579 -333 547 -365 q 611 -261 611 -300 q 604 -237 611 -243 q 590 -231 597 -231 q 574 -242 582 -231 q 553 -264 567 -253 q 514 -275 540 -275 q 454 -248 475 -275 q 433 -189 433 -221 q 462 -123 433 -150 q 539 -96 490 -96 q 633 -141 603 -96 q 664 -242 664 -186 q 622 -351 664 -306 q 497 -436 579 -396 z "},"Ġ":{"ha":1097,"x_min":69,"x_max":1081,"o":"m 551 -18 q 363 22 450 -18 q 209 135 275 63 q 106 304 143 208 q 69 510 69 400 q 110 725 69 625 q 221 900 150 825 q 388 1017 292 975 q 593 1060 483 1060 q 713 1041 661 1060 q 824 978 764 1022 l 878 1047 l 919 1047 l 919 719 l 878 719 q 833 858 867 792 q 740 968 800 925 q 583 1011 679 1011 q 484 992 529 1011 q 405 918 439 972 q 352 763 371 864 q 333 497 333 661 q 348 268 333 358 q 390 126 363 178 q 457 54 417 75 q 549 33 497 33 q 678 78 635 33 q 721 201 721 122 l 721 392 l 974 392 l 974 236 q 887 108 951 165 q 734 16 822 50 q 551 -18 646 -18 m 588 375 l 588 417 l 1081 417 l 1081 375 l 588 375 m 547 1144 q 469 1178 503 1144 q 436 1256 436 1211 q 469 1335 436 1301 q 547 1368 503 1368 q 626 1335 593 1368 q 660 1256 660 1301 q 626 1178 660 1211 q 547 1144 593 1144 z "},"H":{"ha":1147,"x_min":28,"x_max":1126,"o":"m 28 0 l 28 42 l 160 42 l 160 1006 l 28 1006 l 28 1047 l 515 1047 l 515 1006 l 379 1006 l 379 561 l 772 561 l 772 1006 l 636 1006 l 636 1047 l 1126 1047 l 1126 1006 l 992 1006 l 992 42 l 1126 42 l 1126 0 l 636 0 l 636 42 l 772 42 l 772 519 l 379 519 l 379 42 l 515 42 l 515 0 l 28 0 z "},"Ħ":{"ha":1147,"x_min":28,"x_max":1126,"o":"m 28 751 l 28 803 l 1096 803 l 1096 751 l 28 751 m 28 0 l 28 42 l 160 42 l 160 1006 l 28 1006 l 28 1047 l 515 1047 l 515 1006 l 379 1006 l 379 561 l 772 561 l 772 1006 l 636 1006 l 636 1047 l 1126 1047 l 1126 1006 l 992 1006 l 992 42 l 1126 42 l 1126 0 l 636 0 l 636 42 l 772 42 l 772 519 l 379 519 l 379 42 l 515 42 l 515 0 l 28 0 z "},"Ĥ":{"ha":1147,"x_min":28,"x_max":1126,"o":"m 28 0 l 28 42 l 160 42 l 160 1006 l 28 1006 l 28 1047 l 515 1047 l 515 1006 l 379 1006 l 379 561 l 772 561 l 772 1006 l 636 1006 l 636 1047 l 1126 1047 l 1126 1006 l 992 1006 l 992 42 l 1126 42 l 1126 0 l 636 0 l 636 42 l 772 42 l 772 519 l 379 519 l 379 42 l 515 42 l 515 0 l 28 0 m 293 1172 l 531 1361 l 617 1361 l 854 1172 l 781 1172 l 574 1231 l 367 1172 l 293 1172 z "},"Ḥ":{"ha":1147,"x_min":28,"x_max":1126,"o":"m 28 0 l 28 42 l 160 42 l 160 1006 l 28 1006 l 28 1047 l 515 1047 l 515 1006 l 379 1006 l 379 561 l 772 561 l 772 1006 l 636 1006 l 636 1047 l 1126 1047 l 1126 1006 l 992 1006 l 992 42 l 1126 42 l 1126 0 l 636 0 l 636 42 l 772 42 l 772 519 l 379 519 l 379 42 l 515 42 l 515 0 l 28 0 m 572 -361 q 494 -328 528 -361 q 461 -250 461 -294 q 494 -171 461 -204 q 572 -137 528 -137 q 651 -171 618 -137 q 685 -250 685 -204 q 651 -328 685 -294 q 572 -361 618 -361 z "},"I":{"ha":536,"x_min":28,"x_max":515,"o":"m 160 21 l 160 1047 l 379 1047 l 379 21 l 160 21 m 28 0 l 28 42 l 515 42 l 515 0 l 28 0 m 28 1006 l 28 1047 l 515 1047 l 515 1006 l 28 1006 z "},"Ĳ":{"ha":1072,"x_min":28,"x_max":1051,"o":"m 160 21 l 160 1047 l 379 1047 l 379 21 l 160 21 m 28 0 l 28 42 l 515 42 l 515 0 l 28 0 m 28 1006 l 28 1047 l 515 1047 l 515 1006 l 28 1006 m 585 -142 q 430 -102 483 -142 q 376 1 376 -62 q 408 90 376 54 q 488 126 440 126 q 560 101 526 126 q 593 28 593 75 q 581 -26 593 -4 q 568 -62 568 -47 q 581 -83 568 -76 q 607 -89 593 -89 q 644 -78 624 -89 q 681 -40 665 -67 q 696 38 696 -12 l 696 1047 l 915 1047 l 915 190 q 890 44 915 107 q 819 -60 864 -18 q 714 -122 774 -101 q 585 -142 654 -142 m 564 1006 l 564 1047 l 1051 1047 l 1051 1006 l 564 1006 z "},"Í":{"ha":536,"x_min":28,"x_max":515,"o":"m 160 21 l 160 1047 l 379 1047 l 379 21 l 160 21 m 28 0 l 28 42 l 515 42 l 515 0 l 28 0 m 28 1006 l 28 1047 l 515 1047 l 515 1006 l 28 1006 m 64 1172 l 288 1317 q 347 1351 324 1340 q 401 1363 371 1363 q 453 1343 436 1363 q 471 1299 471 1324 q 457 1253 471 1275 q 397 1221 443 1231 l 151 1172 l 64 1172 z "},"Ĭ":{"ha":536,"x_min":28,"x_max":515,"o":"m 160 21 l 160 1047 l 379 1047 l 379 21 l 160 21 m 28 0 l 28 42 l 515 42 l 515 0 l 28 0 m 28 1006 l 28 1047 l 515 1047 l 515 1006 l 28 1006 m 268 1172 q 95 1225 154 1172 q 36 1363 36 1278 l 97 1363 q 147 1315 100 1329 q 265 1301 193 1301 q 387 1317 339 1301 q 438 1363 435 1332 l 499 1363 q 442 1227 499 1282 q 268 1172 386 1172 z "},"Î":{"ha":536,"x_min":-12,"x_max":549,"o":"m 160 21 l 160 1047 l 379 1047 l 379 21 l 160 21 m 28 0 l 28 42 l 515 42 l 515 0 l 28 0 m 28 1006 l 28 1047 l 515 1047 l 515 1006 l 28 1006 m -12 1172 l 225 1361 l 311 1361 l 549 1172 l 475 1172 l 268 1231 l 61 1172 l -12 1172 z "},"Ȉ":{"ha":536,"x_min":-90,"x_max":625,"o":"m 160 21 l 160 1047 l 379 1047 l 379 21 l 160 21 m 28 0 l 28 42 l 515 42 l 515 0 l 28 0 m 28 1006 l 28 1047 l 515 1047 l 515 1006 l 28 1006 m 538 1172 l 292 1221 q 232 1253 246 1231 q 218 1299 218 1275 q 235 1343 218 1324 q 288 1363 253 1363 q 342 1351 318 1363 q 401 1317 365 1340 l 625 1172 l 538 1172 m 229 1172 l -17 1221 q -76 1253 -62 1231 q -90 1299 -90 1275 q -73 1343 -90 1324 q -21 1363 -56 1363 q 33 1351 10 1363 q 93 1317 57 1340 l 317 1172 l 229 1172 z "},"Ï":{"ha":536,"x_min":24,"x_max":515,"o":"m 160 21 l 160 1047 l 379 1047 l 379 21 l 160 21 m 28 0 l 28 42 l 515 42 l 515 0 l 28 0 m 28 1006 l 28 1047 l 515 1047 l 515 1006 l 28 1006 m 413 1154 q 342 1184 372 1154 q 313 1254 313 1214 q 342 1324 313 1294 q 413 1354 372 1354 q 483 1324 453 1354 q 513 1254 513 1294 q 483 1184 513 1214 q 413 1154 453 1154 m 124 1154 q 53 1184 83 1154 q 24 1254 24 1214 q 53 1324 24 1294 q 124 1354 83 1354 q 194 1324 164 1354 q 224 1254 224 1294 q 194 1184 224 1214 q 124 1154 164 1154 z "},"İ":{"ha":536,"x_min":28,"x_max":515,"o":"m 160 21 l 160 1047 l 379 1047 l 379 21 l 160 21 m 28 0 l 28 42 l 515 42 l 515 0 l 28 0 m 28 1006 l 28 1047 l 515 1047 l 515 1006 l 28 1006 m 267 1144 q 189 1178 222 1144 q 156 1256 156 1211 q 189 1335 156 1301 q 267 1368 222 1368 q 346 1335 313 1368 q 379 1256 379 1301 q 346 1178 379 1211 q 267 1144 313 1144 z "},"Ị":{"ha":536,"x_min":28,"x_max":515,"o":"m 160 21 l 160 1047 l 379 1047 l 379 21 l 160 21 m 28 0 l 28 42 l 515 42 l 515 0 l 28 0 m 28 1006 l 28 1047 l 515 1047 l 515 1006 l 28 1006 m 267 -361 q 189 -328 222 -361 q 156 -250 156 -294 q 189 -171 156 -204 q 267 -137 222 -137 q 346 -171 313 -137 q 379 -250 379 -204 q 346 -328 379 -294 q 267 -361 313 -361 z "},"Ì":{"ha":536,"x_min":28,"x_max":515,"o":"m 160 21 l 160 1047 l 379 1047 l 379 21 l 160 21 m 28 0 l 28 42 l 515 42 l 515 0 l 28 0 m 28 1006 l 28 1047 l 515 1047 l 515 1006 l 28 1006 m 383 1172 l 138 1221 q 78 1253 92 1231 q 64 1299 64 1275 q 81 1343 64 1324 q 133 1363 99 1363 q 188 1351 164 1363 q 247 1317 211 1340 l 471 1172 l 383 1172 z "},"Ỉ":{"ha":536,"x_min":28,"x_max":515,"o":"m 160 21 l 160 1047 l 379 1047 l 379 21 l 160 21 m 28 0 l 28 42 l 515 42 l 515 0 l 28 0 m 28 1006 l 28 1047 l 515 1047 l 515 1006 l 28 1006 m 260 1126 q 270 1184 260 1163 q 295 1220 281 1206 q 320 1248 310 1235 q 331 1282 331 1261 q 314 1320 331 1306 q 267 1335 297 1335 q 221 1320 238 1335 q 204 1290 204 1306 q 211 1269 204 1274 q 226 1260 218 1265 q 233 1235 233 1254 q 215 1207 233 1215 q 179 1199 197 1199 q 136 1217 154 1199 q 118 1267 118 1236 q 138 1340 118 1313 q 192 1381 158 1368 q 267 1394 225 1394 q 380 1365 343 1394 q 417 1283 417 1336 q 401 1219 417 1240 q 365 1188 386 1199 q 329 1165 344 1178 q 314 1126 314 1153 l 260 1126 z "},"Ȋ":{"ha":536,"x_min":28,"x_max":515,"o":"m 160 21 l 160 1047 l 379 1047 l 379 21 l 160 21 m 28 0 l 28 42 l 515 42 l 515 0 l 28 0 m 28 1006 l 28 1047 l 515 1047 l 515 1006 l 28 1006 m 36 1172 q 95 1310 36 1257 q 268 1363 154 1363 q 442 1308 386 1363 q 499 1172 499 1253 l 438 1172 q 387 1219 435 1204 q 265 1233 339 1233 q 147 1219 193 1233 q 97 1172 100 1206 l 36 1172 z "},"Ī":{"ha":536,"x_min":28,"x_max":515,"o":"m 160 21 l 160 1047 l 379 1047 l 379 21 l 160 21 m 28 0 l 28 42 l 515 42 l 515 0 l 28 0 m 28 1006 l 28 1047 l 515 1047 l 515 1006 l 28 1006 m 42 1181 l 42 1300 l 514 1300 l 514 1181 l 42 1181 z "},"Į":{"ha":536,"x_min":28,"x_max":515,"o":"m 160 21 l 160 1047 l 379 1047 l 379 21 l 160 21 m 28 0 l 28 42 l 515 42 l 515 0 l 28 0 m 28 1006 l 28 1047 l 515 1047 l 515 1006 l 28 1006 m 346 -337 q 256 -306 290 -337 q 222 -224 222 -275 q 241 -153 222 -187 q 303 -78 260 -118 q 418 14 346 -37 l 482 14 q 383 -103 419 -43 q 347 -211 347 -162 q 397 -264 347 -264 q 435 -256 417 -264 q 476 -229 454 -247 l 482 -229 l 482 -278 q 422 -322 458 -306 q 346 -337 386 -337 z "},"Ĩ":{"ha":536,"x_min":-4,"x_max":540,"o":"m 160 21 l 160 1047 l 379 1047 l 379 21 l 160 21 m 28 0 l 28 42 l 515 42 l 515 0 l 28 0 m 28 1006 l 28 1047 l 515 1047 l 515 1006 l 28 1006 m -4 1172 q 28 1263 4 1219 q 93 1334 53 1306 q 188 1363 133 1363 q 256 1349 225 1363 q 317 1321 288 1335 q 378 1307 346 1307 q 457 1326 431 1307 q 493 1363 483 1344 l 540 1363 q 506 1272 529 1315 q 443 1201 482 1229 q 347 1174 404 1174 q 278 1188 308 1174 q 219 1215 247 1201 q 157 1229 190 1229 q 82 1213 113 1229 q 42 1172 51 1197 l -4 1172 z "},"J":{"ha":536,"x_min":-160,"x_max":515,"o":"m 49 -142 q -106 -102 -53 -142 q -160 1 -160 -62 q -128 90 -160 54 q -49 126 -96 126 q 24 101 -10 126 q 57 28 57 75 q 44 -26 57 -4 q 32 -62 32 -47 q 44 -83 32 -76 q 71 -89 57 -89 q 108 -78 88 -89 q 144 -40 129 -67 q 160 38 160 -12 l 160 1047 l 379 1047 l 379 190 q 353 44 379 107 q 283 -60 328 -18 q 178 -122 238 -101 q 49 -142 118 -142 m 28 1006 l 28 1047 l 515 1047 l 515 1006 l 28 1006 z "},"Ĵ":{"ha":536,"x_min":-160,"x_max":549,"o":"m 49 -142 q -106 -102 -53 -142 q -160 1 -160 -62 q -128 90 -160 54 q -49 126 -96 126 q 24 101 -10 126 q 57 28 57 75 q 44 -26 57 -4 q 32 -62 32 -47 q 44 -83 32 -76 q 71 -89 57 -89 q 108 -78 88 -89 q 144 -40 129 -67 q 160 38 160 -12 l 160 1047 l 379 1047 l 379 190 q 353 44 379 107 q 283 -60 328 -18 q 178 -122 238 -101 q 49 -142 118 -142 m 28 1006 l 28 1047 l 515 1047 l 515 1006 l 28 1006 m -12 1172 l 225 1361 l 311 1361 l 549 1172 l 475 1172 l 268 1231 l 61 1172 l -12 1172 z "},"K":{"ha":1126,"x_min":28,"x_max":1147,"o":"m 28 0 l 28 42 l 160 42 l 160 1006 l 28 1006 l 28 1047 l 515 1047 l 515 1006 l 379 1006 l 379 42 l 515 42 l 515 0 l 28 0 m 611 0 l 611 43 l 1147 43 l 1147 0 l 611 0 m 776 21 l 414 535 l 588 694 l 1051 21 l 776 21 m 346 436 l 346 506 l 851 1022 l 915 1022 l 346 436 m 669 1006 l 669 1047 l 1063 1047 l 1063 1006 l 669 1006 z "},"Ķ":{"ha":1126,"x_min":28,"x_max":1147,"o":"m 28 0 l 28 42 l 160 42 l 160 1006 l 28 1006 l 28 1047 l 515 1047 l 515 1006 l 379 1006 l 379 42 l 515 42 l 515 0 l 28 0 m 611 0 l 611 43 l 1147 43 l 1147 0 l 611 0 m 776 21 l 414 535 l 588 694 l 1051 21 l 776 21 m 346 436 l 346 506 l 851 1022 l 915 1022 l 346 436 m 669 1006 l 669 1047 l 1063 1047 l 1063 1006 l 669 1006 m 513 -436 l 485 -406 q 594 -333 563 -365 q 626 -261 626 -300 q 619 -237 626 -243 q 606 -231 613 -231 q 590 -242 597 -231 q 569 -264 582 -253 q 529 -275 556 -275 q 469 -248 490 -275 q 449 -189 449 -221 q 477 -123 449 -150 q 554 -96 506 -96 q 649 -141 618 -96 q 679 -242 679 -186 q 637 -351 679 -306 q 513 -436 594 -396 z "},"L":{"ha":946,"x_min":28,"x_max":918,"o":"m 28 0 l 28 42 l 615 42 q 747 83 693 42 q 831 193 801 125 q 863 340 861 261 l 918 340 l 918 0 l 28 0 m 160 21 l 160 1047 l 379 1047 l 379 21 l 160 21 m 28 1006 l 28 1047 l 543 1047 l 543 1006 l 28 1006 z "},"Ǉ":{"ha":1668,"x_min":28,"x_max":1647,"o":"m 28 0 l 28 42 l 615 42 q 747 83 693 42 q 831 193 801 125 q 863 340 861 261 l 918 340 l 918 0 l 28 0 m 160 21 l 160 1047 l 379 1047 l 379 21 l 160 21 m 28 1006 l 28 1047 l 543 1047 l 543 1006 l 28 1006 m 1181 -142 q 1026 -102 1079 -142 q 972 1 972 -62 q 1004 90 972 54 q 1083 126 1036 126 q 1156 101 1122 126 q 1189 28 1189 75 q 1176 -26 1189 -4 q 1164 -62 1164 -47 q 1176 -83 1164 -76 q 1203 -89 1189 -89 q 1240 -78 1219 -89 q 1276 -40 1261 -67 q 1292 38 1292 -12 l 1292 1047 l 1511 1047 l 1511 190 q 1485 44 1511 107 q 1415 -60 1460 -18 q 1310 -122 1369 -101 q 1181 -142 1250 -142 m 1160 1006 l 1160 1047 l 1647 1047 l 1647 1006 l 1160 1006 z "},"Ĺ":{"ha":946,"x_min":28,"x_max":918,"o":"m 28 0 l 28 42 l 615 42 q 747 83 693 42 q 831 193 801 125 q 863 340 861 261 l 918 340 l 918 0 l 28 0 m 160 21 l 160 1047 l 379 1047 l 379 21 l 160 21 m 28 1006 l 28 1047 l 543 1047 l 543 1006 l 28 1006 m 54 1172 l 278 1317 q 338 1351 314 1340 q 392 1363 361 1363 q 444 1343 426 1363 q 461 1299 461 1324 q 447 1253 461 1275 q 388 1221 433 1231 l 142 1172 l 54 1172 z "},"Ľ":{"ha":946,"x_min":28,"x_max":918,"o":"m 28 0 l 28 42 l 615 42 q 747 83 693 42 q 831 193 801 125 q 863 340 861 261 l 918 340 l 918 0 l 28 0 m 160 21 l 160 1047 l 379 1047 l 379 21 l 160 21 m 28 1006 l 28 1047 l 543 1047 l 543 1006 l 28 1006 m 746 653 l 718 683 q 808 769 779 728 q 838 860 838 811 q 833 887 838 881 q 825 893 829 893 q 809 882 817 893 q 788 860 801 871 q 749 849 775 849 q 689 878 710 849 q 668 942 668 907 q 699 1017 668 986 q 778 1049 731 1049 q 868 1000 838 1049 q 899 886 899 951 q 857 755 899 810 q 746 653 815 700 z "},"Ļ":{"ha":946,"x_min":28,"x_max":918,"o":"m 28 0 l 28 42 l 615 42 q 747 83 693 42 q 831 193 801 125 q 863 340 861 261 l 918 340 l 918 0 l 28 0 m 160 21 l 160 1047 l 379 1047 l 379 21 l 160 21 m 28 1006 l 28 1047 l 543 1047 l 543 1006 l 28 1006 m 422 -436 l 394 -406 q 504 -333 472 -365 q 536 -261 536 -300 q 529 -237 536 -243 q 515 -231 522 -231 q 499 -242 507 -231 q 478 -264 492 -253 q 439 -275 465 -275 q 379 -248 400 -275 q 358 -189 358 -221 q 387 -123 358 -150 q 464 -96 415 -96 q 558 -141 528 -96 q 589 -242 589 -186 q 547 -351 589 -306 q 422 -436 504 -396 z "},"Ŀ":{"ha":946,"x_min":28,"x_max":918,"o":"m 28 0 l 28 42 l 615 42 q 747 83 693 42 q 831 193 801 125 q 863 340 861 261 l 918 340 l 918 0 l 28 0 m 160 21 l 160 1047 l 379 1047 l 379 21 l 160 21 m 28 1006 l 28 1047 l 543 1047 l 543 1006 l 28 1006 m 621 393 q 535 428 571 393 q 500 514 500 464 q 535 599 500 564 q 621 635 571 635 q 706 599 671 635 q 742 514 742 564 q 706 428 742 464 q 621 393 671 393 z "},"ǈ":{"ha":1388,"x_min":28,"x_max":1282,"o":"m 28 0 l 28 42 l 615 42 q 747 83 693 42 q 831 193 801 125 q 863 340 861 261 l 918 340 l 918 0 l 28 0 m 160 21 l 160 1047 l 379 1047 l 379 21 l 160 21 m 28 1006 l 28 1047 l 543 1047 l 543 1006 l 28 1006 m 1006 -447 l 1006 -447 q 884 -408 933 -447 q 835 -312 835 -368 q 862 -247 835 -272 q 931 -221 889 -221 q 990 -240 964 -221 q 1015 -301 1015 -258 q 1006 -342 1015 -331 q 996 -369 996 -353 q 1003 -389 996 -382 q 1025 -396 1011 -396 q 1068 -367 1050 -396 q 1086 -257 1086 -339 l 1086 583 l 967 583 l 967 625 l 1278 625 l 1278 -49 q 1242 -256 1278 -167 q 1146 -397 1207 -346 q 1006 -447 1085 -447 m 1169 786 q 1092 819 1125 786 q 1058 897 1058 853 q 1092 976 1058 943 q 1169 1010 1125 1010 q 1249 976 1215 1010 q 1282 897 1282 943 q 1249 819 1282 853 q 1169 786 1215 786 z "},"Ł":{"ha":946,"x_min":28,"x_max":918,"o":"m 39 329 l 39 385 l 576 699 l 576 643 l 39 329 m 28 0 l 28 42 l 615 42 q 747 83 693 42 q 831 193 801 125 q 863 340 861 261 l 918 340 l 918 0 l 28 0 m 160 21 l 160 1047 l 379 1047 l 379 21 l 160 21 m 28 1006 l 28 1047 l 543 1047 l 543 1006 l 28 1006 z "},"M":{"ha":1288,"x_min":28,"x_max":1267,"o":"m 544 -12 l 247 950 l 242 950 l 242 42 l 394 42 l 394 0 l 28 0 l 28 42 l 181 42 l 181 1006 l 28 1006 l 28 1047 l 467 1047 l 663 415 l 668 415 l 864 1047 l 1267 1047 l 1267 1006 l 1122 1006 l 1122 42 l 1267 42 l 1267 0 l 754 0 l 754 42 l 903 42 l 903 950 l 897 950 l 601 -12 l 544 -12 z "},"N":{"ha":1099,"x_min":28,"x_max":1078,"o":"m 878 -18 l 247 890 l 242 890 l 242 42 l 394 42 l 394 0 l 28 0 l 28 42 l 181 42 l 181 1006 l 28 1006 l 28 1047 l 433 1047 l 872 429 l 878 429 l 878 1006 l 739 1006 l 739 1047 l 1078 1047 l 1078 1006 l 939 1006 l 939 -18 l 878 -18 z "},"Ǌ":{"ha":1635,"x_min":28,"x_max":1614,"o":"m 878 -18 l 247 890 l 242 890 l 242 42 l 394 42 l 394 0 l 28 0 l 28 42 l 181 42 l 181 1006 l 28 1006 l 28 1047 l 433 1047 l 872 429 l 878 429 l 878 1006 l 739 1006 l 739 1047 l 1078 1047 l 1078 1006 l 939 1006 l 939 -18 l 878 -18 m 1147 -142 q 992 -102 1046 -142 q 939 1 939 -62 q 971 90 939 54 q 1050 126 1003 126 q 1122 101 1089 126 q 1156 28 1156 75 q 1143 -26 1156 -4 q 1131 -62 1131 -47 q 1143 -83 1131 -76 q 1169 -89 1156 -89 q 1207 -78 1186 -89 q 1243 -40 1228 -67 q 1258 38 1258 -12 l 1258 1047 l 1478 1047 l 1478 190 q 1452 44 1478 107 q 1381 -60 1426 -18 q 1276 -122 1336 -101 q 1147 -142 1217 -142 m 1126 1006 l 1126 1047 l 1614 1047 l 1614 1006 l 1126 1006 z "},"Ń":{"ha":1099,"x_min":28,"x_max":1078,"o":"m 878 -18 l 247 890 l 242 890 l 242 42 l 394 42 l 394 0 l 28 0 l 28 42 l 181 42 l 181 1006 l 28 1006 l 28 1047 l 433 1047 l 872 429 l 878 429 l 878 1006 l 739 1006 l 739 1047 l 1078 1047 l 1078 1006 l 939 1006 l 939 -18 l 878 -18 m 346 1172 l 569 1317 q 629 1351 606 1340 q 683 1363 653 1363 q 735 1343 718 1363 q 753 1299 753 1324 q 739 1253 753 1275 q 679 1221 725 1231 l 433 1172 l 346 1172 z "},"Ň":{"ha":1099,"x_min":28,"x_max":1078,"o":"m 878 -18 l 247 890 l 242 890 l 242 42 l 394 42 l 394 0 l 28 0 l 28 42 l 181 42 l 181 1006 l 28 1006 l 28 1047 l 433 1047 l 872 429 l 878 429 l 878 1006 l 739 1006 l 739 1047 l 1078 1047 l 1078 1006 l 939 1006 l 939 -18 l 878 -18 m 507 1172 l 269 1361 l 343 1361 l 550 1303 l 757 1361 l 831 1361 l 593 1172 l 507 1172 z "},"Ņ":{"ha":1099,"x_min":28,"x_max":1078,"o":"m 878 -18 l 247 890 l 242 890 l 242 42 l 394 42 l 394 0 l 28 0 l 28 42 l 181 42 l 181 1006 l 28 1006 l 28 1047 l 433 1047 l 872 429 l 878 429 l 878 1006 l 739 1006 l 739 1047 l 1078 1047 l 1078 1006 l 939 1006 l 939 -18 l 878 -18 m 499 -436 l 471 -406 q 581 -333 549 -365 q 613 -261 613 -300 q 606 -237 613 -243 q 592 -231 599 -231 q 576 -242 583 -231 q 555 -264 568 -253 q 515 -275 542 -275 q 456 -248 476 -275 q 435 -189 435 -221 q 463 -123 435 -150 q 540 -96 492 -96 q 635 -141 604 -96 q 665 -242 665 -186 q 623 -351 665 -306 q 499 -436 581 -396 z "},"Ṅ":{"ha":1099,"x_min":28,"x_max":1078,"o":"m 878 -18 l 247 890 l 242 890 l 242 42 l 394 42 l 394 0 l 28 0 l 28 42 l 181 42 l 181 1006 l 28 1006 l 28 1047 l 433 1047 l 872 429 l 878 429 l 878 1006 l 739 1006 l 739 1047 l 1078 1047 l 1078 1006 l 939 1006 l 939 -18 l 878 -18 m 549 1144 q 471 1178 504 1144 q 438 1256 438 1211 q 471 1335 438 1301 q 549 1368 504 1368 q 628 1335 594 1368 q 661 1256 661 1301 q 628 1178 661 1211 q 549 1144 594 1144 z "},"ǋ":{"ha":1540,"x_min":28,"x_max":1435,"o":"m 878 -18 l 247 890 l 242 890 l 242 42 l 394 42 l 394 0 l 28 0 l 28 42 l 181 42 l 181 1006 l 28 1006 l 28 1047 l 433 1047 l 872 429 l 878 429 l 878 1006 l 739 1006 l 739 1047 l 1078 1047 l 1078 1006 l 939 1006 l 939 -18 l 878 -18 m 1158 -447 l 1158 -447 q 1037 -408 1086 -447 q 988 -312 988 -368 q 1015 -247 988 -272 q 1083 -221 1042 -221 q 1142 -240 1117 -221 q 1168 -301 1168 -258 q 1158 -342 1168 -331 q 1149 -369 1149 -353 q 1156 -389 1149 -382 q 1178 -396 1164 -396 q 1221 -367 1203 -396 q 1239 -257 1239 -339 l 1239 583 l 1119 583 l 1119 625 l 1431 625 l 1431 -49 q 1395 -256 1431 -167 q 1299 -397 1360 -346 q 1158 -447 1238 -447 m 1322 786 q 1244 819 1278 786 q 1211 897 1211 853 q 1244 976 1211 943 q 1322 1010 1278 1010 q 1401 976 1368 1010 q 1435 897 1435 943 q 1401 819 1435 853 q 1322 786 1368 786 z "},"Ñ":{"ha":1099,"x_min":28,"x_max":1078,"o":"m 878 -18 l 247 890 l 242 890 l 242 42 l 394 42 l 394 0 l 28 0 l 28 42 l 181 42 l 181 1006 l 28 1006 l 28 1047 l 433 1047 l 872 429 l 878 429 l 878 1006 l 739 1006 l 739 1047 l 1078 1047 l 1078 1006 l 939 1006 l 939 -18 l 878 -18 m 278 1172 q 310 1263 286 1219 q 375 1334 335 1306 q 469 1363 415 1363 q 538 1349 507 1363 q 599 1321 569 1335 q 660 1307 628 1307 q 739 1326 713 1307 q 775 1363 765 1344 l 822 1363 q 788 1272 811 1315 q 725 1201 764 1229 q 629 1174 686 1174 q 560 1188 590 1174 q 501 1215 529 1201 q 439 1229 472 1229 q 364 1213 394 1229 q 324 1172 333 1197 l 278 1172 z "},"Ŋ":{"ha":1099,"x_min":28,"x_max":1078,"o":"m 744 -236 l 744 -236 q 608 -197 657 -236 q 558 -93 558 -157 q 590 -4 558 -40 q 669 32 622 32 q 742 6 708 32 q 775 -65 775 -21 q 763 -112 775 -96 q 750 -144 750 -129 q 762 -164 750 -158 q 788 -169 774 -169 q 826 -156 806 -169 q 863 -101 847 -143 q 878 29 878 -58 l 878 79 l 247 890 l 242 890 l 242 42 l 394 42 l 394 0 l 28 0 l 28 42 l 181 42 l 181 1006 l 28 1006 l 28 1047 l 433 1047 l 872 526 l 878 526 l 878 1006 l 739 1006 l 739 1047 l 1078 1047 l 1078 1006 l 939 1006 l 939 28 q 929 -85 939 -36 q 897 -167 919 -133 q 838 -219 875 -201 q 744 -236 800 -236 z "},"O":{"ha":1143,"x_min":56,"x_max":1088,"o":"m 571 -18 q 369 26 463 -18 q 205 147 275 71 q 95 321 135 224 q 56 525 56 418 q 95 728 56 632 q 205 899 135 825 q 369 1017 275 974 q 571 1060 463 1060 q 774 1017 679 1060 q 938 899 868 974 q 1048 728 1008 825 q 1088 525 1088 632 q 1048 321 1088 418 q 938 147 1008 224 q 774 26 868 71 q 571 -18 679 -18 m 569 31 q 689 52 640 31 q 767 128 738 74 q 810 278 797 182 q 824 522 824 374 q 810 766 824 671 q 767 915 797 861 q 689 990 738 968 q 569 1011 640 1011 q 452 990 500 1011 q 375 915 404 968 q 333 767 346 863 q 319 525 319 672 q 333 277 319 374 q 376 127 346 181 q 453 52 406 74 q 569 31 501 31 z "},"Ó":{"ha":1143,"x_min":56,"x_max":1088,"o":"m 571 -18 q 369 26 463 -18 q 205 147 275 71 q 95 321 135 224 q 56 525 56 418 q 95 728 56 632 q 205 899 135 825 q 369 1017 275 974 q 571 1060 463 1060 q 774 1017 679 1060 q 938 899 868 974 q 1048 728 1008 825 q 1088 525 1088 632 q 1048 321 1088 418 q 938 147 1008 224 q 774 26 868 71 q 571 -18 679 -18 m 569 31 q 689 52 640 31 q 767 128 738 74 q 810 278 797 182 q 824 522 824 374 q 810 766 824 671 q 767 915 797 861 q 689 990 738 968 q 569 1011 640 1011 q 452 990 500 1011 q 375 915 404 968 q 333 767 346 863 q 319 525 319 672 q 333 277 319 374 q 376 127 346 181 q 453 52 406 74 q 569 31 501 31 m 368 1172 l 592 1317 q 651 1351 628 1340 q 706 1363 675 1363 q 758 1343 740 1363 q 775 1299 775 1324 q 761 1253 775 1275 q 701 1221 747 1231 l 456 1172 l 368 1172 z "},"Ŏ":{"ha":1143,"x_min":56,"x_max":1088,"o":"m 571 -18 q 369 26 463 -18 q 205 147 275 71 q 95 321 135 224 q 56 525 56 418 q 95 728 56 632 q 205 899 135 825 q 369 1017 275 974 q 571 1060 463 1060 q 774 1017 679 1060 q 938 899 868 974 q 1048 728 1008 825 q 1088 525 1088 632 q 1048 321 1088 418 q 938 147 1008 224 q 774 26 868 71 q 571 -18 679 -18 m 569 31 q 689 52 640 31 q 767 128 738 74 q 810 278 797 182 q 824 522 824 374 q 810 766 824 671 q 767 915 797 861 q 689 990 738 968 q 569 1011 640 1011 q 452 990 500 1011 q 375 915 404 968 q 333 767 346 863 q 319 525 319 672 q 333 277 319 374 q 376 127 346 181 q 453 52 406 74 q 569 31 501 31 m 572 1172 q 399 1225 458 1172 q 340 1363 340 1278 l 401 1363 q 451 1315 404 1329 q 569 1301 497 1301 q 691 1317 643 1301 q 742 1363 739 1332 l 803 1363 q 747 1227 803 1282 q 572 1172 690 1172 z "},"Ô":{"ha":1143,"x_min":56,"x_max":1088,"o":"m 571 -18 q 369 26 463 -18 q 205 147 275 71 q 95 321 135 224 q 56 525 56 418 q 95 728 56 632 q 205 899 135 825 q 369 1017 275 974 q 571 1060 463 1060 q 774 1017 679 1060 q 938 899 868 974 q 1048 728 1008 825 q 1088 525 1088 632 q 1048 321 1088 418 q 938 147 1008 224 q 774 26 868 71 q 571 -18 679 -18 m 569 31 q 689 52 640 31 q 767 128 738 74 q 810 278 797 182 q 824 522 824 374 q 810 766 824 671 q 767 915 797 861 q 689 990 738 968 q 569 1011 640 1011 q 452 990 500 1011 q 375 915 404 968 q 333 767 346 863 q 319 525 319 672 q 333 277 319 374 q 376 127 346 181 q 453 52 406 74 q 569 31 501 31 m 292 1172 l 529 1361 l 615 1361 l 853 1172 l 779 1172 l 572 1231 l 365 1172 l 292 1172 z "},"Ố":{"ha":1143,"x_min":56,"x_max":1088,"o":"m 571 -18 q 369 26 463 -18 q 205 147 275 71 q 95 321 135 224 q 56 525 56 418 q 95 728 56 632 q 205 899 135 825 q 369 1017 275 974 q 571 1060 463 1060 q 774 1017 679 1060 q 938 899 868 974 q 1048 728 1008 825 q 1088 525 1088 632 q 1048 321 1088 418 q 938 147 1008 224 q 774 26 868 71 q 571 -18 679 -18 m 569 31 q 689 52 640 31 q 767 128 738 74 q 810 278 797 182 q 824 522 824 374 q 810 766 824 671 q 767 915 797 861 q 689 990 738 968 q 569 1011 640 1011 q 452 990 500 1011 q 375 915 404 968 q 333 767 346 863 q 319 525 319 672 q 333 277 319 374 q 376 127 346 181 q 453 52 406 74 q 569 31 501 31 m 333 1149 l 529 1310 l 615 1310 l 811 1149 l 738 1149 l 572 1207 l 407 1149 l 333 1149 m 368 1360 l 592 1504 q 651 1539 628 1528 q 706 1550 675 1550 q 758 1531 740 1550 q 775 1486 775 1511 q 761 1440 775 1463 q 701 1408 747 1418 l 456 1360 l 368 1360 z "},"Ộ":{"ha":1143,"x_min":56,"x_max":1088,"o":"m 571 -18 q 369 26 463 -18 q 205 147 275 71 q 95 321 135 224 q 56 525 56 418 q 95 728 56 632 q 205 899 135 825 q 369 1017 275 974 q 571 1060 463 1060 q 774 1017 679 1060 q 938 899 868 974 q 1048 728 1008 825 q 1088 525 1088 632 q 1048 321 1088 418 q 938 147 1008 224 q 774 26 868 71 q 571 -18 679 -18 m 569 31 q 689 52 640 31 q 767 128 738 74 q 810 278 797 182 q 824 522 824 374 q 810 766 824 671 q 767 915 797 861 q 689 990 738 968 q 569 1011 640 1011 q 452 990 500 1011 q 375 915 404 968 q 333 767 346 863 q 319 525 319 672 q 333 277 319 374 q 376 127 346 181 q 453 52 406 74 q 569 31 501 31 m 571 -361 q 493 -328 526 -361 q 460 -250 460 -294 q 493 -171 460 -204 q 571 -137 526 -137 q 650 -171 617 -137 q 683 -250 683 -204 q 650 -328 683 -294 q 571 -361 617 -361 m 292 1172 l 529 1361 l 615 1361 l 853 1172 l 779 1172 l 572 1231 l 365 1172 l 292 1172 z "},"Ồ":{"ha":1143,"x_min":56,"x_max":1088,"o":"m 571 -18 q 369 26 463 -18 q 205 147 275 71 q 95 321 135 224 q 56 525 56 418 q 95 728 56 632 q 205 899 135 825 q 369 1017 275 974 q 571 1060 463 1060 q 774 1017 679 1060 q 938 899 868 974 q 1048 728 1008 825 q 1088 525 1088 632 q 1048 321 1088 418 q 938 147 1008 224 q 774 26 868 71 q 571 -18 679 -18 m 569 31 q 689 52 640 31 q 767 128 738 74 q 810 278 797 182 q 824 522 824 374 q 810 766 824 671 q 767 915 797 861 q 689 990 738 968 q 569 1011 640 1011 q 452 990 500 1011 q 375 915 404 968 q 333 767 346 863 q 319 525 319 672 q 333 277 319 374 q 376 127 346 181 q 453 52 406 74 q 569 31 501 31 m 333 1149 l 529 1310 l 615 1310 l 811 1149 l 738 1149 l 572 1207 l 407 1149 l 333 1149 m 688 1369 l 442 1418 q 382 1450 396 1428 q 368 1496 368 1472 q 385 1540 368 1521 q 438 1560 403 1560 q 492 1549 468 1560 q 551 1514 515 1538 l 775 1369 l 688 1369 z "},"Ổ":{"ha":1143,"x_min":56,"x_max":1088,"o":"m 571 -18 q 369 26 463 -18 q 205 147 275 71 q 95 321 135 224 q 56 525 56 418 q 95 728 56 632 q 205 899 135 825 q 369 1017 275 974 q 571 1060 463 1060 q 774 1017 679 1060 q 938 899 868 974 q 1048 728 1008 825 q 1088 525 1088 632 q 1048 321 1088 418 q 938 147 1008 224 q 774 26 868 71 q 571 -18 679 -18 m 569 31 q 689 52 640 31 q 767 128 738 74 q 810 278 797 182 q 824 522 824 374 q 810 766 824 671 q 767 915 797 861 q 689 990 738 968 q 569 1011 640 1011 q 452 990 500 1011 q 375 915 404 968 q 333 767 346 863 q 319 525 319 672 q 333 277 319 374 q 376 127 346 181 q 453 52 406 74 q 569 31 501 31 m 333 1149 l 529 1310 l 615 1310 l 811 1149 l 738 1149 l 572 1207 l 407 1149 l 333 1149 m 754 1313 q 765 1371 754 1349 q 790 1407 775 1393 q 815 1431 804 1421 q 825 1454 825 1442 q 808 1504 825 1488 q 761 1521 792 1521 q 715 1506 732 1521 q 699 1476 699 1492 q 706 1456 699 1460 q 721 1446 714 1451 q 728 1421 728 1440 q 710 1393 728 1401 q 674 1385 692 1385 q 631 1403 649 1385 q 613 1453 613 1422 q 632 1526 613 1499 q 685 1567 651 1554 q 761 1581 719 1581 q 874 1548 838 1581 q 911 1442 911 1515 q 896 1394 911 1410 q 860 1371 881 1379 q 824 1351 839 1363 q 808 1313 808 1339 l 754 1313 z "},"Ỗ":{"ha":1143,"x_min":56,"x_max":1088,"o":"m 571 -18 q 369 26 463 -18 q 205 147 275 71 q 95 321 135 224 q 56 525 56 418 q 95 728 56 632 q 205 899 135 825 q 369 1017 275 974 q 571 1060 463 1060 q 774 1017 679 1060 q 938 899 868 974 q 1048 728 1008 825 q 1088 525 1088 632 q 1048 321 1088 418 q 938 147 1008 224 q 774 26 868 71 q 571 -18 679 -18 m 569 31 q 689 52 640 31 q 767 128 738 74 q 810 278 797 182 q 824 522 824 374 q 810 766 824 671 q 767 915 797 861 q 689 990 738 968 q 569 1011 640 1011 q 452 990 500 1011 q 375 915 404 968 q 333 767 346 863 q 319 525 319 672 q 333 277 319 374 q 376 127 346 181 q 453 52 406 74 q 569 31 501 31 m 333 1149 l 529 1310 l 615 1310 l 811 1149 l 738 1149 l 572 1207 l 407 1149 l 333 1149 m 300 1393 q 333 1483 308 1440 q 398 1555 358 1526 q 492 1583 438 1583 q 560 1569 529 1583 q 621 1542 592 1556 q 682 1528 650 1528 q 761 1547 735 1528 q 797 1583 788 1565 l 844 1583 q 810 1493 833 1536 q 747 1422 786 1450 q 651 1394 708 1394 q 582 1408 613 1394 q 523 1436 551 1422 q 461 1450 494 1450 q 386 1434 417 1450 q 346 1393 356 1418 l 300 1393 z "},"Ȍ":{"ha":1143,"x_min":56,"x_max":1088,"o":"m 571 -18 q 369 26 463 -18 q 205 147 275 71 q 95 321 135 224 q 56 525 56 418 q 95 728 56 632 q 205 899 135 825 q 369 1017 275 974 q 571 1060 463 1060 q 774 1017 679 1060 q 938 899 868 974 q 1048 728 1008 825 q 1088 525 1088 632 q 1048 321 1088 418 q 938 147 1008 224 q 774 26 868 71 q 571 -18 679 -18 m 569 31 q 689 52 640 31 q 767 128 738 74 q 810 278 797 182 q 824 522 824 374 q 810 766 824 671 q 767 915 797 861 q 689 990 738 968 q 569 1011 640 1011 q 452 990 500 1011 q 375 915 404 968 q 333 767 346 863 q 319 525 319 672 q 333 277 319 374 q 376 127 346 181 q 453 52 406 74 q 569 31 501 31 m 842 1172 l 596 1221 q 536 1253 550 1231 q 522 1299 522 1275 q 540 1343 522 1324 q 592 1363 557 1363 q 646 1351 622 1363 q 706 1317 669 1340 l 929 1172 l 842 1172 m 533 1172 l 288 1221 q 228 1253 242 1231 q 214 1299 214 1275 q 231 1343 214 1324 q 283 1363 249 1363 q 338 1351 314 1363 q 397 1317 361 1340 l 621 1172 l 533 1172 z "},"Ö":{"ha":1143,"x_min":56,"x_max":1088,"o":"m 571 -18 q 369 26 463 -18 q 205 147 275 71 q 95 321 135 224 q 56 525 56 418 q 95 728 56 632 q 205 899 135 825 q 369 1017 275 974 q 571 1060 463 1060 q 774 1017 679 1060 q 938 899 868 974 q 1048 728 1008 825 q 1088 525 1088 632 q 1048 321 1088 418 q 938 147 1008 224 q 774 26 868 71 q 571 -18 679 -18 m 569 31 q 689 52 640 31 q 767 128 738 74 q 810 278 797 182 q 824 522 824 374 q 810 766 824 671 q 767 915 797 861 q 689 990 738 968 q 569 1011 640 1011 q 452 990 500 1011 q 375 915 404 968 q 333 767 346 863 q 319 525 319 672 q 333 277 319 374 q 376 127 346 181 q 453 52 406 74 q 569 31 501 31 m 717 1154 q 647 1184 676 1154 q 617 1254 617 1214 q 647 1324 617 1294 q 717 1354 676 1354 q 787 1324 757 1354 q 817 1254 817 1294 q 787 1184 817 1214 q 717 1154 757 1154 m 428 1154 q 358 1184 388 1154 q 328 1254 328 1214 q 358 1324 328 1294 q 428 1354 388 1354 q 498 1324 468 1354 q 528 1254 528 1294 q 498 1184 528 1214 q 428 1154 468 1154 z "},"Ọ":{"ha":1143,"x_min":56,"x_max":1088,"o":"m 571 -18 q 369 26 463 -18 q 205 147 275 71 q 95 321 135 224 q 56 525 56 418 q 95 728 56 632 q 205 899 135 825 q 369 1017 275 974 q 571 1060 463 1060 q 774 1017 679 1060 q 938 899 868 974 q 1048 728 1008 825 q 1088 525 1088 632 q 1048 321 1088 418 q 938 147 1008 224 q 774 26 868 71 q 571 -18 679 -18 m 569 31 q 689 52 640 31 q 767 128 738 74 q 810 278 797 182 q 824 522 824 374 q 810 766 824 671 q 767 915 797 861 q 689 990 738 968 q 569 1011 640 1011 q 452 990 500 1011 q 375 915 404 968 q 333 767 346 863 q 319 525 319 672 q 333 277 319 374 q 376 127 346 181 q 453 52 406 74 q 569 31 501 31 m 571 -361 q 493 -328 526 -361 q 460 -250 460 -294 q 493 -171 460 -204 q 571 -137 526 -137 q 650 -171 617 -137 q 683 -250 683 -204 q 650 -328 683 -294 q 571 -361 617 -361 z "},"Ò":{"ha":1143,"x_min":56,"x_max":1088,"o":"m 571 -18 q 369 26 463 -18 q 205 147 275 71 q 95 321 135 224 q 56 525 56 418 q 95 728 56 632 q 205 899 135 825 q 369 1017 275 974 q 571 1060 463 1060 q 774 1017 679 1060 q 938 899 868 974 q 1048 728 1008 825 q 1088 525 1088 632 q 1048 321 1088 418 q 938 147 1008 224 q 774 26 868 71 q 571 -18 679 -18 m 569 31 q 689 52 640 31 q 767 128 738 74 q 810 278 797 182 q 824 522 824 374 q 810 766 824 671 q 767 915 797 861 q 689 990 738 968 q 569 1011 640 1011 q 452 990 500 1011 q 375 915 404 968 q 333 767 346 863 q 319 525 319 672 q 333 277 319 374 q 376 127 346 181 q 453 52 406 74 q 569 31 501 31 m 688 1172 l 442 1221 q 382 1253 396 1231 q 368 1299 368 1275 q 385 1343 368 1324 q 438 1363 403 1363 q 492 1351 468 1363 q 551 1317 515 1340 l 775 1172 l 688 1172 z "},"Ỏ":{"ha":1143,"x_min":56,"x_max":1088,"o":"m 571 -18 q 369 26 463 -18 q 205 147 275 71 q 95 321 135 224 q 56 525 56 418 q 95 728 56 632 q 205 899 135 825 q 369 1017 275 974 q 571 1060 463 1060 q 774 1017 679 1060 q 938 899 868 974 q 1048 728 1008 825 q 1088 525 1088 632 q 1048 321 1088 418 q 938 147 1008 224 q 774 26 868 71 q 571 -18 679 -18 m 569 31 q 689 52 640 31 q 767 128 738 74 q 810 278 797 182 q 824 522 824 374 q 810 766 824 671 q 767 915 797 861 q 689 990 738 968 q 569 1011 640 1011 q 452 990 500 1011 q 375 915 404 968 q 333 767 346 863 q 319 525 319 672 q 333 277 319 374 q 376 127 346 181 q 453 52 406 74 q 569 31 501 31 m 564 1126 q 574 1184 564 1163 q 599 1220 585 1206 q 624 1248 614 1235 q 635 1282 635 1261 q 618 1320 635 1306 q 571 1335 601 1335 q 525 1320 542 1335 q 508 1290 508 1306 q 515 1269 508 1274 q 530 1260 522 1265 q 538 1235 538 1254 q 519 1207 538 1215 q 483 1199 501 1199 q 440 1217 458 1199 q 422 1267 422 1236 q 442 1340 422 1313 q 496 1381 463 1368 q 571 1394 529 1394 q 684 1365 647 1394 q 721 1283 721 1336 q 706 1219 721 1240 q 669 1188 690 1199 q 633 1165 649 1178 q 618 1126 618 1153 l 564 1126 z "},"Ơ":{"ha":1143,"x_min":56,"x_max":1088,"o":"m 571 -18 q 369 26 463 -18 q 205 147 275 71 q 95 321 135 224 q 56 525 56 418 q 95 728 56 632 q 205 899 135 825 q 369 1017 275 974 q 571 1060 463 1060 q 774 1017 679 1060 q 938 899 868 974 q 1048 728 1008 825 q 1088 525 1088 632 q 1048 321 1088 418 q 938 147 1008 224 q 774 26 868 71 q 571 -18 679 -18 m 569 31 q 689 52 640 31 q 767 128 738 74 q 810 278 797 182 q 824 522 824 374 q 810 766 824 671 q 767 915 797 861 q 689 990 738 968 q 569 1011 640 1011 q 452 990 500 1011 q 375 915 404 968 q 333 767 346 863 q 319 525 319 672 q 333 277 319 374 q 376 127 346 181 q 453 52 406 74 q 569 31 501 31 m 671 997 l 668 1050 q 765 1076 742 1050 q 792 1160 789 1103 l 897 1160 q 874 1055 897 1090 q 800 1008 850 1019 q 671 997 750 997 z "},"Ớ":{"ha":1143,"x_min":56,"x_max":1088,"o":"m 571 -18 q 369 26 463 -18 q 205 147 275 71 q 95 321 135 224 q 56 525 56 418 q 95 728 56 632 q 205 899 135 825 q 369 1017 275 974 q 571 1060 463 1060 q 774 1017 679 1060 q 938 899 868 974 q 1048 728 1008 825 q 1088 525 1088 632 q 1048 321 1088 418 q 938 147 1008 224 q 774 26 868 71 q 571 -18 679 -18 m 569 31 q 689 52 640 31 q 767 128 738 74 q 810 278 797 182 q 824 522 824 374 q 810 766 824 671 q 767 915 797 861 q 689 990 738 968 q 569 1011 640 1011 q 452 990 500 1011 q 375 915 404 968 q 333 767 346 863 q 319 525 319 672 q 333 277 319 374 q 376 127 346 181 q 453 52 406 74 q 569 31 501 31 m 671 997 l 668 1050 q 765 1076 742 1050 q 792 1160 789 1103 l 897 1160 q 874 1055 897 1090 q 800 1008 850 1019 q 671 997 750 997 m 368 1172 l 592 1317 q 651 1351 628 1340 q 706 1363 675 1363 q 758 1343 740 1363 q 775 1299 775 1324 q 761 1253 775 1275 q 701 1221 747 1231 l 456 1172 l 368 1172 z "},"Ợ":{"ha":1143,"x_min":56,"x_max":1088,"o":"m 571 -18 q 369 26 463 -18 q 205 147 275 71 q 95 321 135 224 q 56 525 56 418 q 95 728 56 632 q 205 899 135 825 q 369 1017 275 974 q 571 1060 463 1060 q 774 1017 679 1060 q 938 899 868 974 q 1048 728 1008 825 q 1088 525 1088 632 q 1048 321 1088 418 q 938 147 1008 224 q 774 26 868 71 q 571 -18 679 -18 m 569 31 q 689 52 640 31 q 767 128 738 74 q 810 278 797 182 q 824 522 824 374 q 810 766 824 671 q 767 915 797 861 q 689 990 738 968 q 569 1011 640 1011 q 452 990 500 1011 q 375 915 404 968 q 333 767 346 863 q 319 525 319 672 q 333 277 319 374 q 376 127 346 181 q 453 52 406 74 q 569 31 501 31 m 671 997 l 668 1050 q 765 1076 742 1050 q 792 1160 789 1103 l 897 1160 q 874 1055 897 1090 q 800 1008 850 1019 q 671 997 750 997 m 571 -361 q 493 -328 526 -361 q 460 -250 460 -294 q 493 -171 460 -204 q 571 -137 526 -137 q 650 -171 617 -137 q 683 -250 683 -204 q 650 -328 683 -294 q 571 -361 617 -361 z "},"Ờ":{"ha":1143,"x_min":56,"x_max":1088,"o":"m 571 -18 q 369 26 463 -18 q 205 147 275 71 q 95 321 135 224 q 56 525 56 418 q 95 728 56 632 q 205 899 135 825 q 369 1017 275 974 q 571 1060 463 1060 q 774 1017 679 1060 q 938 899 868 974 q 1048 728 1008 825 q 1088 525 1088 632 q 1048 321 1088 418 q 938 147 1008 224 q 774 26 868 71 q 571 -18 679 -18 m 569 31 q 689 52 640 31 q 767 128 738 74 q 810 278 797 182 q 824 522 824 374 q 810 766 824 671 q 767 915 797 861 q 689 990 738 968 q 569 1011 640 1011 q 452 990 500 1011 q 375 915 404 968 q 333 767 346 863 q 319 525 319 672 q 333 277 319 374 q 376 127 346 181 q 453 52 406 74 q 569 31 501 31 m 671 997 l 668 1050 q 765 1076 742 1050 q 792 1160 789 1103 l 897 1160 q 874 1055 897 1090 q 800 1008 850 1019 q 671 997 750 997 m 688 1172 l 442 1221 q 382 1253 396 1231 q 368 1299 368 1275 q 385 1343 368 1324 q 438 1363 403 1363 q 492 1351 468 1363 q 551 1317 515 1340 l 775 1172 l 688 1172 z "},"Ở":{"ha":1143,"x_min":56,"x_max":1088,"o":"m 571 -18 q 369 26 463 -18 q 205 147 275 71 q 95 321 135 224 q 56 525 56 418 q 95 728 56 632 q 205 899 135 825 q 369 1017 275 974 q 571 1060 463 1060 q 774 1017 679 1060 q 938 899 868 974 q 1048 728 1008 825 q 1088 525 1088 632 q 1048 321 1088 418 q 938 147 1008 224 q 774 26 868 71 q 571 -18 679 -18 m 569 31 q 689 52 640 31 q 767 128 738 74 q 810 278 797 182 q 824 522 824 374 q 810 766 824 671 q 767 915 797 861 q 689 990 738 968 q 569 1011 640 1011 q 452 990 500 1011 q 375 915 404 968 q 333 767 346 863 q 319 525 319 672 q 333 277 319 374 q 376 127 346 181 q 453 52 406 74 q 569 31 501 31 m 671 997 l 668 1050 q 765 1076 742 1050 q 792 1160 789 1103 l 897 1160 q 874 1055 897 1090 q 800 1008 850 1019 q 671 997 750 997 m 564 1126 q 574 1184 564 1163 q 599 1220 585 1206 q 624 1248 614 1235 q 635 1282 635 1261 q 618 1320 635 1306 q 571 1335 601 1335 q 525 1320 542 1335 q 508 1290 508 1306 q 515 1269 508 1274 q 530 1260 522 1265 q 538 1235 538 1254 q 519 1207 538 1215 q 483 1199 501 1199 q 440 1217 458 1199 q 422 1267 422 1236 q 442 1340 422 1313 q 496 1381 463 1368 q 571 1394 529 1394 q 684 1365 647 1394 q 721 1283 721 1336 q 706 1219 721 1240 q 669 1188 690 1199 q 633 1165 649 1178 q 618 1126 618 1153 l 564 1126 z "},"Ỡ":{"ha":1143,"x_min":56,"x_max":1088,"o":"m 571 -18 q 369 26 463 -18 q 205 147 275 71 q 95 321 135 224 q 56 525 56 418 q 95 728 56 632 q 205 899 135 825 q 369 1017 275 974 q 571 1060 463 1060 q 774 1017 679 1060 q 938 899 868 974 q 1048 728 1008 825 q 1088 525 1088 632 q 1048 321 1088 418 q 938 147 1008 224 q 774 26 868 71 q 571 -18 679 -18 m 569 31 q 689 52 640 31 q 767 128 738 74 q 810 278 797 182 q 824 522 824 374 q 810 766 824 671 q 767 915 797 861 q 689 990 738 968 q 569 1011 640 1011 q 452 990 500 1011 q 375 915 404 968 q 333 767 346 863 q 319 525 319 672 q 333 277 319 374 q 376 127 346 181 q 453 52 406 74 q 569 31 501 31 m 671 997 l 668 1050 q 765 1076 742 1050 q 792 1160 789 1103 l 897 1160 q 874 1055 897 1090 q 800 1008 850 1019 q 671 997 750 997 m 300 1172 q 333 1263 308 1219 q 397 1334 357 1306 q 492 1363 438 1363 q 560 1349 529 1363 q 621 1321 592 1335 q 682 1307 650 1307 q 761 1326 735 1307 q 797 1363 788 1344 l 844 1363 q 810 1272 833 1315 q 747 1201 786 1229 q 651 1174 708 1174 q 582 1188 613 1174 q 523 1215 551 1201 q 461 1229 494 1229 q 386 1213 417 1229 q 346 1172 356 1197 l 300 1172 z "},"Ő":{"ha":1143,"x_min":56,"x_max":1088,"o":"m 571 -18 q 369 26 463 -18 q 205 147 275 71 q 95 321 135 224 q 56 525 56 418 q 95 728 56 632 q 205 899 135 825 q 369 1017 275 974 q 571 1060 463 1060 q 774 1017 679 1060 q 938 899 868 974 q 1048 728 1008 825 q 1088 525 1088 632 q 1048 321 1088 418 q 938 147 1008 224 q 774 26 868 71 q 571 -18 679 -18 m 569 31 q 689 52 640 31 q 767 128 738 74 q 810 278 797 182 q 824 522 824 374 q 810 766 824 671 q 767 915 797 861 q 689 990 738 968 q 569 1011 640 1011 q 452 990 500 1011 q 375 915 404 968 q 333 767 346 863 q 319 525 319 672 q 333 277 319 374 q 376 127 346 181 q 453 52 406 74 q 569 31 501 31 m 522 1172 l 746 1317 q 806 1351 782 1340 q 860 1363 829 1363 q 912 1343 894 1363 q 929 1299 929 1324 q 915 1253 929 1275 q 856 1221 901 1231 l 610 1172 l 522 1172 m 214 1172 l 438 1317 q 497 1351 474 1340 q 551 1363 521 1363 q 603 1343 586 1363 q 621 1299 621 1324 q 607 1253 621 1275 q 547 1221 593 1231 l 301 1172 l 214 1172 z "},"Ȏ":{"ha":1143,"x_min":56,"x_max":1088,"o":"m 571 -18 q 369 26 463 -18 q 205 147 275 71 q 95 321 135 224 q 56 525 56 418 q 95 728 56 632 q 205 899 135 825 q 369 1017 275 974 q 571 1060 463 1060 q 774 1017 679 1060 q 938 899 868 974 q 1048 728 1008 825 q 1088 525 1088 632 q 1048 321 1088 418 q 938 147 1008 224 q 774 26 868 71 q 571 -18 679 -18 m 569 31 q 689 52 640 31 q 767 128 738 74 q 810 278 797 182 q 824 522 824 374 q 810 766 824 671 q 767 915 797 861 q 689 990 738 968 q 569 1011 640 1011 q 452 990 500 1011 q 375 915 404 968 q 333 767 346 863 q 319 525 319 672 q 333 277 319 374 q 376 127 346 181 q 453 52 406 74 q 569 31 501 31 m 340 1172 q 399 1310 340 1257 q 572 1363 458 1363 q 747 1308 690 1363 q 803 1172 803 1253 l 742 1172 q 691 1219 739 1204 q 569 1233 643 1233 q 451 1219 497 1233 q 401 1172 404 1206 l 340 1172 z "},"Ō":{"ha":1143,"x_min":56,"x_max":1088,"o":"m 571 -18 q 369 26 463 -18 q 205 147 275 71 q 95 321 135 224 q 56 525 56 418 q 95 728 56 632 q 205 899 135 825 q 369 1017 275 974 q 571 1060 463 1060 q 774 1017 679 1060 q 938 899 868 974 q 1048 728 1008 825 q 1088 525 1088 632 q 1048 321 1088 418 q 938 147 1008 224 q 774 26 868 71 q 571 -18 679 -18 m 569 31 q 689 52 640 31 q 767 128 738 74 q 810 278 797 182 q 824 522 824 374 q 810 766 824 671 q 767 915 797 861 q 689 990 738 968 q 569 1011 640 1011 q 452 990 500 1011 q 375 915 404 968 q 333 767 346 863 q 319 525 319 672 q 333 277 319 374 q 376 127 346 181 q 453 52 406 74 q 569 31 501 31 m 346 1181 l 346 1300 l 818 1300 l 818 1181 l 346 1181 z "},"Ǫ":{"ha":1143,"x_min":56,"x_max":1088,"o":"m 571 -18 q 369 26 463 -18 q 205 147 275 71 q 95 321 135 224 q 56 525 56 418 q 95 728 56 632 q 205 899 135 825 q 369 1017 275 974 q 571 1060 463 1060 q 774 1017 679 1060 q 938 899 868 974 q 1048 728 1008 825 q 1088 525 1088 632 q 1048 321 1088 418 q 938 147 1008 224 q 774 26 868 71 q 571 -18 679 -18 m 569 31 q 689 52 640 31 q 767 128 738 74 q 810 278 797 182 q 824 522 824 374 q 810 766 824 671 q 767 915 797 861 q 689 990 738 968 q 569 1011 640 1011 q 452 990 500 1011 q 375 915 404 968 q 333 767 346 863 q 319 525 319 672 q 333 277 319 374 q 376 127 346 181 q 453 52 406 74 q 569 31 501 31 m 601 -337 q 512 -306 546 -337 q 478 -224 478 -275 q 497 -153 478 -187 q 558 -78 515 -118 q 674 14 601 -37 l 738 14 q 639 -103 675 -43 q 603 -211 603 -162 q 653 -264 603 -264 q 691 -256 672 -264 q 732 -229 710 -247 l 738 -229 l 738 -278 q 678 -322 714 -306 q 601 -337 642 -337 z "},"Ø":{"ha":1143,"x_min":56,"x_max":1088,"o":"m 571 -18 q 369 26 463 -18 q 205 147 275 71 q 95 321 135 224 q 56 525 56 418 q 95 728 56 632 q 205 899 135 825 q 369 1017 275 974 q 571 1060 463 1060 q 774 1017 679 1060 q 938 899 868 974 q 1048 728 1008 825 q 1088 525 1088 632 q 1048 321 1088 418 q 938 147 1008 224 q 774 26 868 71 q 571 -18 679 -18 m 149 -74 l 919 1117 l 1000 1117 l 229 -74 l 149 -74 m 569 31 q 689 52 640 31 q 767 128 738 74 q 810 278 797 182 q 824 522 824 374 q 810 766 824 671 q 767 915 797 861 q 689 990 738 968 q 571 1011 640 1011 q 452 990 500 1011 q 375 915 404 968 q 333 767 346 863 q 319 525 319 672 q 333 277 319 374 q 376 127 346 181 q 453 52 406 74 q 569 31 501 31 z "},"Ǿ":{"ha":1143,"x_min":56,"x_max":1088,"o":"m 571 -18 q 369 26 463 -18 q 205 147 275 71 q 95 321 135 224 q 56 525 56 418 q 95 728 56 632 q 205 899 135 825 q 369 1017 275 974 q 571 1060 463 1060 q 774 1017 679 1060 q 938 899 868 974 q 1048 728 1008 825 q 1088 525 1088 632 q 1048 321 1088 418 q 938 147 1008 224 q 774 26 868 71 q 571 -18 679 -18 m 149 -74 l 919 1117 l 1000 1117 l 229 -74 l 149 -74 m 569 31 q 689 52 640 31 q 767 128 738 74 q 810 278 797 182 q 824 522 824 374 q 810 766 824 671 q 767 915 797 861 q 689 990 738 968 q 571 1011 640 1011 q 452 990 500 1011 q 375 915 404 968 q 333 767 346 863 q 319 525 319 672 q 333 277 319 374 q 376 127 346 181 q 453 52 406 74 q 569 31 501 31 m 368 1172 l 592 1317 q 651 1351 628 1340 q 706 1363 675 1363 q 758 1343 740 1363 q 775 1299 775 1324 q 761 1253 775 1275 q 701 1221 747 1231 l 456 1172 l 368 1172 z "},"Õ":{"ha":1143,"x_min":56,"x_max":1088,"o":"m 571 -18 q 369 26 463 -18 q 205 147 275 71 q 95 321 135 224 q 56 525 56 418 q 95 728 56 632 q 205 899 135 825 q 369 1017 275 974 q 571 1060 463 1060 q 774 1017 679 1060 q 938 899 868 974 q 1048 728 1008 825 q 1088 525 1088 632 q 1048 321 1088 418 q 938 147 1008 224 q 774 26 868 71 q 571 -18 679 -18 m 569 31 q 689 52 640 31 q 767 128 738 74 q 810 278 797 182 q 824 522 824 374 q 810 766 824 671 q 767 915 797 861 q 689 990 738 968 q 569 1011 640 1011 q 452 990 500 1011 q 375 915 404 968 q 333 767 346 863 q 319 525 319 672 q 333 277 319 374 q 376 127 346 181 q 453 52 406 74 q 569 31 501 31 m 300 1172 q 333 1263 308 1219 q 397 1334 357 1306 q 492 1363 438 1363 q 560 1349 529 1363 q 621 1321 592 1335 q 682 1307 650 1307 q 761 1326 735 1307 q 797 1363 788 1344 l 844 1363 q 810 1272 833 1315 q 747 1201 786 1229 q 651 1174 708 1174 q 582 1188 613 1174 q 523 1215 551 1201 q 461 1229 494 1229 q 386 1213 417 1229 q 346 1172 356 1197 l 300 1172 z "},"Œ":{"ha":1638,"x_min":56,"x_max":1589,"o":"m 574 0 q 369 43 464 0 q 205 160 275 86 q 95 328 135 233 q 56 525 56 422 q 95 724 56 629 q 205 891 135 818 q 369 1006 275 964 q 571 1047 463 1047 l 1568 1047 l 1568 769 l 1513 769 q 1484 887 1511 833 q 1407 973 1457 940 q 1286 1006 1357 1006 l 1050 1006 l 1050 536 q 1194 557 1140 538 q 1272 616 1247 576 q 1299 717 1297 656 l 1354 717 l 1354 300 l 1299 300 q 1272 409 1297 367 q 1194 473 1247 451 q 1050 494 1140 494 l 1050 42 l 1286 42 q 1418 83 1364 42 q 1502 193 1472 125 q 1533 340 1532 261 l 1589 340 l 1589 0 l 574 0 m 569 49 q 689 69 640 49 q 767 142 738 90 q 810 287 797 194 q 824 522 824 379 q 810 760 824 667 q 767 905 797 853 q 689 978 738 957 q 569 999 640 999 q 452 978 500 999 q 375 906 404 957 q 333 762 346 854 q 319 525 319 669 q 333 286 319 379 q 376 142 346 193 q 453 69 406 90 q 569 49 501 49 z "},"P":{"ha":972,"x_min":28,"x_max":965,"o":"m 371 475 l 371 517 l 486 517 q 610 537 563 517 q 679 612 657 557 q 701 771 701 667 q 683 919 701 869 q 630 988 665 969 q 542 1006 594 1006 l 28 1006 l 28 1047 l 611 1047 q 791 1011 711 1047 q 918 912 871 975 q 965 767 965 849 q 908 615 965 681 q 743 512 850 549 q 486 475 636 475 l 371 475 m 28 0 l 28 42 l 543 42 l 543 0 l 28 0 m 160 21 l 160 1047 l 379 1047 l 379 21 l 160 21 z "},"Þ":{"ha":972,"x_min":28,"x_max":965,"o":"m 28 0 l 28 42 l 160 42 l 160 1006 l 28 1006 l 28 1047 l 543 1047 l 543 1006 l 379 1006 l 379 824 l 611 824 q 791 788 711 824 q 918 688 871 751 q 965 543 965 625 q 908 391 965 457 q 743 288 850 325 q 486 251 636 251 l 379 251 l 379 42 l 543 42 l 543 0 l 28 0 m 379 293 l 486 293 q 610 313 563 293 q 679 388 657 333 q 701 547 701 443 q 683 696 701 646 q 630 764 665 746 q 542 782 594 782 l 379 782 l 379 293 z "},"Q":{"ha":1143,"x_min":56,"x_max":1088,"o":"m 571 -18 q 369 26 463 -18 q 205 147 275 71 q 95 321 135 224 q 56 525 56 418 q 95 728 56 632 q 205 899 135 825 q 369 1017 275 974 q 571 1060 463 1060 q 774 1017 679 1060 q 938 899 868 974 q 1048 728 1008 825 q 1088 525 1088 632 q 1048 321 1088 418 q 938 147 1008 224 q 774 26 868 71 q 571 -18 679 -18 m 993 -328 q 665 -297 788 -328 q 488 -191 542 -265 q 433 10 433 -117 l 713 10 q 710 -31 711 -10 q 708 -67 708 -51 q 742 -200 708 -154 q 838 -262 775 -246 q 993 -279 901 -279 l 993 -328 m 569 31 q 689 52 640 31 q 767 128 738 74 q 810 278 797 182 q 824 522 824 374 q 810 766 824 671 q 767 915 797 861 q 689 990 738 968 q 569 1011 640 1011 q 452 990 500 1011 q 375 915 404 968 q 333 767 346 863 q 319 525 319 672 q 333 277 319 374 q 376 127 346 181 q 453 52 406 74 q 569 31 501 31 z "},"R":{"ha":1028,"x_min":28,"x_max":1049,"o":"m 371 544 l 371 586 l 486 586 q 594 603 553 586 q 655 665 636 619 q 674 799 674 711 q 656 931 674 888 q 602 990 638 975 q 514 1006 567 1006 l 28 1006 l 28 1047 l 583 1047 q 763 1019 683 1047 q 890 938 843 990 q 938 808 938 885 q 883 665 938 724 q 728 575 829 606 q 486 544 628 544 l 371 544 m 28 0 l 28 42 l 543 42 l 543 0 l 28 0 m 160 21 l 160 1047 l 379 1047 l 379 21 l 160 21 m 886 0 q 761 26 817 0 q 672 101 706 53 q 635 213 638 149 l 628 364 q 574 501 624 457 q 446 544 524 544 l 551 553 l 644 553 l 644 547 q 766 493 707 533 q 863 396 825 453 q 900 272 900 339 l 900 210 q 921 79 900 114 q 996 44 942 44 l 1049 44 l 1049 0 l 886 0 z "},"Ŕ":{"ha":1028,"x_min":28,"x_max":1049,"o":"m 371 544 l 371 586 l 486 586 q 594 603 553 586 q 655 665 636 619 q 674 799 674 711 q 656 931 674 888 q 602 990 638 975 q 514 1006 567 1006 l 28 1006 l 28 1047 l 583 1047 q 763 1019 683 1047 q 890 938 843 990 q 938 808 938 885 q 883 665 938 724 q 728 575 829 606 q 486 544 628 544 l 371 544 m 28 0 l 28 42 l 543 42 l 543 0 l 28 0 m 160 21 l 160 1047 l 379 1047 l 379 21 l 160 21 m 886 0 q 761 26 817 0 q 672 101 706 53 q 635 213 638 149 l 628 364 q 574 501 624 457 q 446 544 524 544 l 551 553 l 644 553 l 644 547 q 766 493 707 533 q 863 396 825 453 q 900 272 900 339 l 900 210 q 921 79 900 114 q 996 44 942 44 l 1049 44 l 1049 0 l 886 0 m 310 1172 l 533 1317 q 593 1351 569 1340 q 647 1363 617 1363 q 699 1343 682 1363 q 717 1299 717 1324 q 703 1253 717 1275 q 643 1221 689 1231 l 397 1172 l 310 1172 z "},"Ř":{"ha":1028,"x_min":28,"x_max":1049,"o":"m 371 544 l 371 586 l 486 586 q 594 603 553 586 q 655 665 636 619 q 674 799 674 711 q 656 931 674 888 q 602 990 638 975 q 514 1006 567 1006 l 28 1006 l 28 1047 l 583 1047 q 763 1019 683 1047 q 890 938 843 990 q 938 808 938 885 q 883 665 938 724 q 728 575 829 606 q 486 544 628 544 l 371 544 m 28 0 l 28 42 l 543 42 l 543 0 l 28 0 m 160 21 l 160 1047 l 379 1047 l 379 21 l 160 21 m 886 0 q 761 26 817 0 q 672 101 706 53 q 635 213 638 149 l 628 364 q 574 501 624 457 q 446 544 524 544 l 551 553 l 644 553 l 644 547 q 766 493 707 533 q 863 396 825 453 q 900 272 900 339 l 900 210 q 921 79 900 114 q 996 44 942 44 l 1049 44 l 1049 0 l 886 0 m 471 1172 l 233 1361 l 307 1361 l 514 1303 l 721 1361 l 794 1361 l 557 1172 l 471 1172 z "},"Ŗ":{"ha":1028,"x_min":28,"x_max":1049,"o":"m 371 544 l 371 586 l 486 586 q 594 603 553 586 q 655 665 636 619 q 674 799 674 711 q 656 931 674 888 q 602 990 638 975 q 514 1006 567 1006 l 28 1006 l 28 1047 l 583 1047 q 763 1019 683 1047 q 890 938 843 990 q 938 808 938 885 q 883 665 938 724 q 728 575 829 606 q 486 544 628 544 l 371 544 m 28 0 l 28 42 l 543 42 l 543 0 l 28 0 m 160 21 l 160 1047 l 379 1047 l 379 21 l 160 21 m 886 0 q 761 26 817 0 q 672 101 706 53 q 635 213 638 149 l 628 364 q 574 501 624 457 q 446 544 524 544 l 551 553 l 644 553 l 644 547 q 766 493 707 533 q 863 396 825 453 q 900 272 900 339 l 900 210 q 921 79 900 114 q 996 44 942 44 l 1049 44 l 1049 0 l 886 0 m 463 -436 l 435 -406 q 544 -333 513 -365 q 576 -261 576 -300 q 569 -237 576 -243 q 556 -231 563 -231 q 540 -242 547 -231 q 519 -264 532 -253 q 479 -275 506 -275 q 419 -248 440 -275 q 399 -189 399 -221 q 427 -123 399 -150 q 504 -96 456 -96 q 599 -141 568 -96 q 629 -242 629 -186 q 587 -351 629 -306 q 463 -436 544 -396 z "},"Ȑ":{"ha":1028,"x_min":28,"x_max":1049,"o":"m 371 544 l 371 586 l 486 586 q 594 603 553 586 q 655 665 636 619 q 674 799 674 711 q 656 931 674 888 q 602 990 638 975 q 514 1006 567 1006 l 28 1006 l 28 1047 l 583 1047 q 763 1019 683 1047 q 890 938 843 990 q 938 808 938 885 q 883 665 938 724 q 728 575 829 606 q 486 544 628 544 l 371 544 m 28 0 l 28 42 l 543 42 l 543 0 l 28 0 m 160 21 l 160 1047 l 379 1047 l 379 21 l 160 21 m 886 0 q 761 26 817 0 q 672 101 706 53 q 635 213 638 149 l 628 364 q 574 501 624 457 q 446 544 524 544 l 551 553 l 644 553 l 644 547 q 766 493 707 533 q 863 396 825 453 q 900 272 900 339 l 900 210 q 921 79 900 114 q 996 44 942 44 l 1049 44 l 1049 0 l 886 0 m 783 1172 l 538 1221 q 478 1253 492 1231 q 464 1299 464 1275 q 481 1343 464 1324 q 533 1363 499 1363 q 588 1351 564 1363 q 647 1317 611 1340 l 871 1172 l 783 1172 m 475 1172 l 229 1221 q 169 1253 183 1231 q 156 1299 156 1275 q 173 1343 156 1324 q 225 1363 190 1363 q 279 1351 256 1363 q 339 1317 303 1340 l 563 1172 l 475 1172 z "},"Ṛ":{"ha":1028,"x_min":28,"x_max":1049,"o":"m 371 544 l 371 586 l 486 586 q 594 603 553 586 q 655 665 636 619 q 674 799 674 711 q 656 931 674 888 q 602 990 638 975 q 514 1006 567 1006 l 28 1006 l 28 1047 l 583 1047 q 763 1019 683 1047 q 890 938 843 990 q 938 808 938 885 q 883 665 938 724 q 728 575 829 606 q 486 544 628 544 l 371 544 m 28 0 l 28 42 l 543 42 l 543 0 l 28 0 m 160 21 l 160 1047 l 379 1047 l 379 21 l 160 21 m 886 0 q 761 26 817 0 q 672 101 706 53 q 635 213 638 149 l 628 364 q 574 501 624 457 q 446 544 524 544 l 551 553 l 644 553 l 644 547 q 766 493 707 533 q 863 396 825 453 q 900 272 900 339 l 900 210 q 921 79 900 114 q 996 44 942 44 l 1049 44 l 1049 0 l 886 0 m 513 -361 q 435 -328 468 -361 q 401 -250 401 -294 q 435 -171 401 -204 q 513 -137 468 -137 q 592 -171 558 -137 q 625 -250 625 -204 q 592 -328 625 -294 q 513 -361 558 -361 z "},"Ȓ":{"ha":1028,"x_min":28,"x_max":1049,"o":"m 371 544 l 371 586 l 486 586 q 594 603 553 586 q 655 665 636 619 q 674 799 674 711 q 656 931 674 888 q 602 990 638 975 q 514 1006 567 1006 l 28 1006 l 28 1047 l 583 1047 q 763 1019 683 1047 q 890 938 843 990 q 938 808 938 885 q 883 665 938 724 q 728 575 829 606 q 486 544 628 544 l 371 544 m 28 0 l 28 42 l 543 42 l 543 0 l 28 0 m 160 21 l 160 1047 l 379 1047 l 379 21 l 160 21 m 886 0 q 761 26 817 0 q 672 101 706 53 q 635 213 638 149 l 628 364 q 574 501 624 457 q 446 544 524 544 l 551 553 l 644 553 l 644 547 q 766 493 707 533 q 863 396 825 453 q 900 272 900 339 l 900 210 q 921 79 900 114 q 996 44 942 44 l 1049 44 l 1049 0 l 886 0 m 282 1172 q 341 1310 282 1257 q 514 1363 400 1363 q 688 1308 632 1363 q 744 1172 744 1253 l 683 1172 q 633 1219 681 1204 q 511 1233 585 1233 q 392 1219 439 1233 q 343 1172 346 1206 l 282 1172 z "},"S":{"ha":790,"x_min":49,"x_max":756,"o":"m 414 -18 q 268 6 329 -18 q 156 67 207 29 l 90 0 l 49 0 l 49 292 l 92 292 q 147 164 108 224 q 250 67 185 104 q 410 31 315 31 q 540 56 488 31 q 619 124 592 81 q 646 221 646 168 q 621 308 646 275 q 556 360 596 342 q 472 390 517 379 q 386 411 426 401 q 215 477 289 436 q 101 583 142 518 q 60 746 60 649 q 106 922 60 853 q 226 1026 151 992 q 386 1060 301 1060 q 498 1042 449 1060 q 603 989 547 1024 l 657 1047 l 700 1047 l 700 764 l 658 764 q 550 953 618 896 q 383 1011 482 1011 q 274 992 324 1011 q 196 939 225 974 q 167 857 167 904 q 192 784 167 813 q 257 739 217 756 q 343 711 297 722 q 431 690 389 700 q 608 622 536 665 q 718 507 681 578 q 756 329 756 436 q 667 74 756 165 q 414 -18 579 -18 z "},"Ś":{"ha":790,"x_min":49,"x_max":756,"o":"m 414 -18 q 268 6 329 -18 q 156 67 207 29 l 90 0 l 49 0 l 49 292 l 92 292 q 147 164 108 224 q 250 67 185 104 q 410 31 315 31 q 540 56 488 31 q 619 124 592 81 q 646 221 646 168 q 621 308 646 275 q 556 360 596 342 q 472 390 517 379 q 386 411 426 401 q 215 477 289 436 q 101 583 142 518 q 60 746 60 649 q 106 922 60 853 q 226 1026 151 992 q 386 1060 301 1060 q 498 1042 449 1060 q 603 989 547 1024 l 657 1047 l 700 1047 l 700 764 l 658 764 q 550 953 618 896 q 383 1011 482 1011 q 274 992 324 1011 q 196 939 225 974 q 167 857 167 904 q 192 784 167 813 q 257 739 217 756 q 343 711 297 722 q 431 690 389 700 q 608 622 536 665 q 718 507 681 578 q 756 329 756 436 q 667 74 756 165 q 414 -18 579 -18 m 192 1172 l 415 1317 q 475 1351 451 1340 q 529 1363 499 1363 q 581 1343 564 1363 q 599 1299 599 1324 q 585 1253 599 1275 q 525 1221 571 1231 l 279 1172 l 192 1172 z "},"Š":{"ha":790,"x_min":49,"x_max":756,"o":"m 414 -18 q 268 6 329 -18 q 156 67 207 29 l 90 0 l 49 0 l 49 292 l 92 292 q 147 164 108 224 q 250 67 185 104 q 410 31 315 31 q 540 56 488 31 q 619 124 592 81 q 646 221 646 168 q 621 308 646 275 q 556 360 596 342 q 472 390 517 379 q 386 411 426 401 q 215 477 289 436 q 101 583 142 518 q 60 746 60 649 q 106 922 60 853 q 226 1026 151 992 q 386 1060 301 1060 q 498 1042 449 1060 q 603 989 547 1024 l 657 1047 l 700 1047 l 700 764 l 658 764 q 550 953 618 896 q 383 1011 482 1011 q 274 992 324 1011 q 196 939 225 974 q 167 857 167 904 q 192 784 167 813 q 257 739 217 756 q 343 711 297 722 q 431 690 389 700 q 608 622 536 665 q 718 507 681 578 q 756 329 756 436 q 667 74 756 165 q 414 -18 579 -18 m 353 1172 l 115 1361 l 189 1361 l 396 1303 l 603 1361 l 676 1361 l 439 1172 l 353 1172 z "},"Ş":{"ha":790,"x_min":49,"x_max":756,"o":"m 414 -18 q 268 6 329 -18 q 156 67 207 29 l 90 0 l 49 0 l 49 292 l 92 292 q 147 164 108 224 q 250 67 185 104 q 410 31 315 31 q 540 56 488 31 q 619 124 592 81 q 646 221 646 168 q 621 308 646 275 q 556 360 596 342 q 472 390 517 379 q 386 411 426 401 q 215 477 289 436 q 101 583 142 518 q 60 746 60 649 q 106 922 60 853 q 226 1026 151 992 q 386 1060 301 1060 q 498 1042 449 1060 q 603 989 547 1024 l 657 1047 l 700 1047 l 700 764 l 658 764 q 550 953 618 896 q 383 1011 482 1011 q 274 992 324 1011 q 196 939 225 974 q 167 857 167 904 q 192 784 167 813 q 257 739 217 756 q 343 711 297 722 q 431 690 389 700 q 608 622 536 665 q 718 507 681 578 q 756 329 756 436 q 667 74 756 165 q 414 -18 579 -18 m 347 -326 q 276 -318 306 -326 q 236 -303 247 -310 l 251 -256 q 285 -266 263 -261 q 329 -271 308 -271 q 390 -256 368 -271 q 413 -208 413 -240 q 301 -139 413 -140 l 356 14 l 418 14 l 385 -92 l 411 -92 q 516 -117 476 -92 q 556 -192 556 -143 q 499 -291 556 -256 q 347 -326 442 -326 z "},"Ŝ":{"ha":790,"x_min":49,"x_max":756,"o":"m 414 -18 q 268 6 329 -18 q 156 67 207 29 l 90 0 l 49 0 l 49 292 l 92 292 q 147 164 108 224 q 250 67 185 104 q 410 31 315 31 q 540 56 488 31 q 619 124 592 81 q 646 221 646 168 q 621 308 646 275 q 556 360 596 342 q 472 390 517 379 q 386 411 426 401 q 215 477 289 436 q 101 583 142 518 q 60 746 60 649 q 106 922 60 853 q 226 1026 151 992 q 386 1060 301 1060 q 498 1042 449 1060 q 603 989 547 1024 l 657 1047 l 700 1047 l 700 764 l 658 764 q 550 953 618 896 q 383 1011 482 1011 q 274 992 324 1011 q 196 939 225 974 q 167 857 167 904 q 192 784 167 813 q 257 739 217 756 q 343 711 297 722 q 431 690 389 700 q 608 622 536 665 q 718 507 681 578 q 756 329 756 436 q 667 74 756 165 q 414 -18 579 -18 m 115 1172 l 353 1361 l 439 1361 l 676 1172 l 603 1172 l 396 1231 l 189 1172 l 115 1172 z "},"Ș":{"ha":790,"x_min":49,"x_max":756,"o":"m 414 -18 q 268 6 329 -18 q 156 67 207 29 l 90 0 l 49 0 l 49 292 l 92 292 q 147 164 108 224 q 250 67 185 104 q 410 31 315 31 q 540 56 488 31 q 619 124 592 81 q 646 221 646 168 q 621 308 646 275 q 556 360 596 342 q 472 390 517 379 q 386 411 426 401 q 215 477 289 436 q 101 583 142 518 q 60 746 60 649 q 106 922 60 853 q 226 1026 151 992 q 386 1060 301 1060 q 498 1042 449 1060 q 603 989 547 1024 l 657 1047 l 700 1047 l 700 764 l 658 764 q 550 953 618 896 q 383 1011 482 1011 q 274 992 324 1011 q 196 939 225 974 q 167 857 167 904 q 192 784 167 813 q 257 739 217 756 q 343 711 297 722 q 431 690 389 700 q 608 622 536 665 q 718 507 681 578 q 756 329 756 436 q 667 74 756 165 q 414 -18 579 -18 m 344 -436 l 317 -406 q 426 -333 394 -365 q 458 -261 458 -300 q 451 -237 458 -243 q 438 -231 444 -231 q 422 -242 429 -231 q 401 -264 414 -253 q 361 -275 388 -275 q 301 -248 322 -275 q 281 -189 281 -221 q 309 -123 281 -150 q 386 -96 338 -96 q 481 -141 450 -96 q 511 -242 511 -186 q 469 -351 511 -306 q 344 -436 426 -396 z "},"Ṣ":{"ha":790,"x_min":49,"x_max":756,"o":"m 414 -18 q 268 6 329 -18 q 156 67 207 29 l 90 0 l 49 0 l 49 292 l 92 292 q 147 164 108 224 q 250 67 185 104 q 410 31 315 31 q 540 56 488 31 q 619 124 592 81 q 646 221 646 168 q 621 308 646 275 q 556 360 596 342 q 472 390 517 379 q 386 411 426 401 q 215 477 289 436 q 101 583 142 518 q 60 746 60 649 q 106 922 60 853 q 226 1026 151 992 q 386 1060 301 1060 q 498 1042 449 1060 q 603 989 547 1024 l 657 1047 l 700 1047 l 700 764 l 658 764 q 550 953 618 896 q 383 1011 482 1011 q 274 992 324 1011 q 196 939 225 974 q 167 857 167 904 q 192 784 167 813 q 257 739 217 756 q 343 711 297 722 q 431 690 389 700 q 608 622 536 665 q 718 507 681 578 q 756 329 756 436 q 667 74 756 165 q 414 -18 579 -18 m 394 -361 q 317 -328 350 -361 q 283 -250 283 -294 q 317 -171 283 -204 q 394 -137 350 -137 q 474 -171 440 -137 q 507 -250 507 -204 q 474 -328 507 -294 q 394 -361 440 -361 z "},"T":{"ha":1006,"x_min":21,"x_max":985,"o":"m 219 0 l 219 42 l 393 42 l 393 1006 l 324 1006 q 192 964 247 1006 q 108 854 138 922 q 76 707 78 786 l 21 707 l 21 1047 l 985 1047 l 985 707 l 929 707 q 898 854 928 786 q 814 964 868 922 q 682 1006 760 1006 l 613 1006 l 613 42 l 776 42 l 776 0 l 219 0 z "},"Ŧ":{"ha":1006,"x_min":21,"x_max":985,"o":"m 228 490 l 228 556 l 776 556 l 776 490 l 228 490 m 219 0 l 219 42 l 393 42 l 393 1006 l 324 1006 q 192 964 247 1006 q 108 854 138 922 q 76 707 78 786 l 21 707 l 21 1047 l 985 1047 l 985 707 l 929 707 q 898 854 928 786 q 814 964 868 922 q 682 1006 760 1006 l 613 1006 l 613 42 l 776 42 l 776 0 l 219 0 z "},"Ť":{"ha":1006,"x_min":21,"x_max":985,"o":"m 219 0 l 219 42 l 393 42 l 393 1006 l 324 1006 q 192 964 247 1006 q 108 854 138 922 q 76 707 78 786 l 21 707 l 21 1047 l 985 1047 l 985 707 l 929 707 q 898 854 928 786 q 814 964 868 922 q 682 1006 760 1006 l 613 1006 l 613 42 l 776 42 l 776 0 l 219 0 m 460 1172 l 222 1361 l 296 1361 l 503 1303 l 710 1361 l 783 1361 l 546 1172 l 460 1172 z "},"Ţ":{"ha":1006,"x_min":21,"x_max":985,"o":"m 219 0 l 219 42 l 393 42 l 393 1006 l 324 1006 q 192 964 247 1006 q 108 854 138 922 q 76 707 78 786 l 21 707 l 21 1047 l 985 1047 l 985 707 l 929 707 q 898 854 928 786 q 814 964 868 922 q 682 1006 760 1006 l 613 1006 l 613 42 l 776 42 l 776 0 l 219 0 m 454 -326 q 383 -318 413 -326 q 343 -303 354 -310 l 358 -256 q 392 -266 369 -261 q 436 -271 415 -271 q 497 -256 475 -271 q 519 -208 519 -240 q 408 -139 519 -140 l 463 14 l 525 14 l 492 -92 l 518 -92 q 623 -117 583 -92 q 663 -192 663 -143 q 606 -291 663 -256 q 454 -326 549 -326 z "},"Ț":{"ha":1006,"x_min":21,"x_max":985,"o":"m 219 0 l 219 42 l 393 42 l 393 1006 l 324 1006 q 192 964 247 1006 q 108 854 138 922 q 76 707 78 786 l 21 707 l 21 1047 l 985 1047 l 985 707 l 929 707 q 898 854 928 786 q 814 964 868 922 q 682 1006 760 1006 l 613 1006 l 613 42 l 776 42 l 776 0 l 219 0 m 451 -436 l 424 -406 q 533 -333 501 -365 q 565 -261 565 -300 q 558 -237 565 -243 q 544 -231 551 -231 q 528 -242 536 -231 q 508 -264 521 -253 q 468 -275 494 -275 q 408 -248 429 -275 q 388 -189 388 -221 q 416 -123 388 -150 q 493 -96 444 -96 q 588 -141 557 -96 q 618 -242 618 -186 q 576 -351 618 -306 q 451 -436 533 -396 z "},"Ṭ":{"ha":1006,"x_min":21,"x_max":985,"o":"m 219 0 l 219 42 l 393 42 l 393 1006 l 324 1006 q 192 964 247 1006 q 108 854 138 922 q 76 707 78 786 l 21 707 l 21 1047 l 985 1047 l 985 707 l 929 707 q 898 854 928 786 q 814 964 868 922 q 682 1006 760 1006 l 613 1006 l 613 42 l 776 42 l 776 0 l 219 0 m 501 -361 q 424 -328 457 -361 q 390 -250 390 -294 q 424 -171 390 -204 q 501 -137 457 -137 q 581 -171 547 -137 q 614 -250 614 -204 q 581 -328 614 -294 q 501 -361 547 -361 z "},"U":{"ha":1075,"x_min":21,"x_max":1061,"o":"m 560 -18 q 348 13 439 -18 q 206 108 257 44 q 156 269 156 172 l 156 1006 l 21 1006 l 21 1047 l 522 1047 l 522 1006 l 375 1006 l 375 278 q 440 93 375 149 q 613 38 504 38 q 796 97 729 38 q 863 278 863 157 l 863 1006 l 731 1006 l 731 1047 l 1061 1047 l 1061 1006 l 915 1006 l 915 271 q 826 51 915 121 q 560 -18 738 -18 z "},"Ú":{"ha":1075,"x_min":21,"x_max":1061,"o":"m 560 -18 q 348 13 439 -18 q 206 108 257 44 q 156 269 156 172 l 156 1006 l 21 1006 l 21 1047 l 522 1047 l 522 1006 l 375 1006 l 375 278 q 440 93 375 149 q 613 38 504 38 q 796 97 729 38 q 863 278 863 157 l 863 1006 l 731 1006 l 731 1047 l 1061 1047 l 1061 1006 l 915 1006 l 915 271 q 826 51 915 121 q 560 -18 738 -18 m 333 1172 l 557 1317 q 617 1351 593 1340 q 671 1363 640 1363 q 723 1343 706 1363 q 740 1299 740 1324 q 726 1253 740 1275 q 667 1221 713 1231 l 421 1172 l 333 1172 z "},"Ŭ":{"ha":1075,"x_min":21,"x_max":1061,"o":"m 560 -18 q 348 13 439 -18 q 206 108 257 44 q 156 269 156 172 l 156 1006 l 21 1006 l 21 1047 l 522 1047 l 522 1006 l 375 1006 l 375 278 q 440 93 375 149 q 613 38 504 38 q 796 97 729 38 q 863 278 863 157 l 863 1006 l 731 1006 l 731 1047 l 1061 1047 l 1061 1006 l 915 1006 l 915 271 q 826 51 915 121 q 560 -18 738 -18 m 538 1172 q 365 1225 424 1172 q 306 1363 306 1278 l 367 1363 q 416 1315 369 1329 q 535 1301 463 1301 q 656 1317 608 1301 q 707 1363 704 1332 l 768 1363 q 712 1227 768 1282 q 538 1172 656 1172 z "},"Û":{"ha":1075,"x_min":21,"x_max":1061,"o":"m 560 -18 q 348 13 439 -18 q 206 108 257 44 q 156 269 156 172 l 156 1006 l 21 1006 l 21 1047 l 522 1047 l 522 1006 l 375 1006 l 375 278 q 440 93 375 149 q 613 38 504 38 q 796 97 729 38 q 863 278 863 157 l 863 1006 l 731 1006 l 731 1047 l 1061 1047 l 1061 1006 l 915 1006 l 915 271 q 826 51 915 121 q 560 -18 738 -18 m 257 1172 l 494 1361 l 581 1361 l 818 1172 l 744 1172 l 538 1231 l 331 1172 l 257 1172 z "},"Ȕ":{"ha":1075,"x_min":21,"x_max":1061,"o":"m 560 -18 q 348 13 439 -18 q 206 108 257 44 q 156 269 156 172 l 156 1006 l 21 1006 l 21 1047 l 522 1047 l 522 1006 l 375 1006 l 375 278 q 440 93 375 149 q 613 38 504 38 q 796 97 729 38 q 863 278 863 157 l 863 1006 l 731 1006 l 731 1047 l 1061 1047 l 1061 1006 l 915 1006 l 915 271 q 826 51 915 121 q 560 -18 738 -18 m 807 1172 l 561 1221 q 501 1253 515 1231 q 488 1299 488 1275 q 505 1343 488 1324 q 557 1363 522 1363 q 611 1351 588 1363 q 671 1317 635 1340 l 894 1172 l 807 1172 m 499 1172 l 253 1221 q 193 1253 207 1231 q 179 1299 179 1275 q 197 1343 179 1324 q 249 1363 214 1363 q 303 1351 279 1363 q 363 1317 326 1340 l 586 1172 l 499 1172 z "},"Ü":{"ha":1075,"x_min":21,"x_max":1061,"o":"m 560 -18 q 348 13 439 -18 q 206 108 257 44 q 156 269 156 172 l 156 1006 l 21 1006 l 21 1047 l 522 1047 l 522 1006 l 375 1006 l 375 278 q 440 93 375 149 q 613 38 504 38 q 796 97 729 38 q 863 278 863 157 l 863 1006 l 731 1006 l 731 1047 l 1061 1047 l 1061 1006 l 915 1006 l 915 271 q 826 51 915 121 q 560 -18 738 -18 m 682 1154 q 612 1184 642 1154 q 582 1254 582 1214 q 612 1324 582 1294 q 682 1354 642 1354 q 752 1324 722 1354 q 782 1254 782 1294 q 752 1184 782 1214 q 682 1154 722 1154 m 393 1154 q 323 1184 353 1154 q 293 1254 293 1214 q 323 1324 293 1294 q 393 1354 353 1354 q 463 1324 433 1354 q 493 1254 493 1294 q 463 1184 493 1214 q 393 1154 433 1154 z "},"Ụ":{"ha":1075,"x_min":21,"x_max":1061,"o":"m 560 -18 q 348 13 439 -18 q 206 108 257 44 q 156 269 156 172 l 156 1006 l 21 1006 l 21 1047 l 522 1047 l 522 1006 l 375 1006 l 375 278 q 440 93 375 149 q 613 38 504 38 q 796 97 729 38 q 863 278 863 157 l 863 1006 l 731 1006 l 731 1047 l 1061 1047 l 1061 1006 l 915 1006 l 915 271 q 826 51 915 121 q 560 -18 738 -18 m 536 -361 q 458 -328 492 -361 q 425 -250 425 -294 q 458 -171 425 -204 q 536 -137 492 -137 q 615 -171 582 -137 q 649 -250 649 -204 q 615 -328 649 -294 q 536 -361 582 -361 z "},"Ù":{"ha":1075,"x_min":21,"x_max":1061,"o":"m 560 -18 q 348 13 439 -18 q 206 108 257 44 q 156 269 156 172 l 156 1006 l 21 1006 l 21 1047 l 522 1047 l 522 1006 l 375 1006 l 375 278 q 440 93 375 149 q 613 38 504 38 q 796 97 729 38 q 863 278 863 157 l 863 1006 l 731 1006 l 731 1047 l 1061 1047 l 1061 1006 l 915 1006 l 915 271 q 826 51 915 121 q 560 -18 738 -18 m 653 1172 l 407 1221 q 347 1253 361 1231 q 333 1299 333 1275 q 351 1343 333 1324 q 403 1363 368 1363 q 457 1351 433 1363 q 517 1317 481 1340 l 740 1172 l 653 1172 z "},"Ủ":{"ha":1075,"x_min":21,"x_max":1061,"o":"m 560 -18 q 348 13 439 -18 q 206 108 257 44 q 156 269 156 172 l 156 1006 l 21 1006 l 21 1047 l 522 1047 l 522 1006 l 375 1006 l 375 278 q 440 93 375 149 q 613 38 504 38 q 796 97 729 38 q 863 278 863 157 l 863 1006 l 731 1006 l 731 1047 l 1061 1047 l 1061 1006 l 915 1006 l 915 271 q 826 51 915 121 q 560 -18 738 -18 m 529 1126 q 540 1184 529 1163 q 565 1220 550 1206 q 590 1248 579 1235 q 600 1282 600 1261 q 583 1320 600 1306 q 536 1335 567 1335 q 490 1320 507 1335 q 474 1290 474 1306 q 481 1269 474 1274 q 495 1260 488 1265 q 503 1235 503 1254 q 485 1207 503 1215 q 449 1199 467 1199 q 406 1217 424 1199 q 388 1267 388 1236 q 408 1340 388 1313 q 461 1381 428 1368 q 536 1394 494 1394 q 649 1365 613 1394 q 686 1283 686 1336 q 671 1219 686 1240 q 635 1188 656 1199 q 599 1165 614 1178 q 583 1126 583 1153 l 529 1126 z "},"Ư":{"ha":1075,"x_min":21,"x_max":1111,"o":"m 560 -18 q 348 13 439 -18 q 206 108 257 44 q 156 269 156 172 l 156 1006 l 21 1006 l 21 1047 l 522 1047 l 522 1006 l 375 1006 l 375 278 q 440 93 375 149 q 613 38 504 38 q 796 97 729 38 q 863 278 863 157 l 863 1006 l 731 1006 l 731 1047 l 1061 1047 l 1061 1006 l 915 1006 l 915 271 q 826 51 915 121 q 560 -18 738 -18 m 885 993 l 882 1046 q 979 1072 956 1046 q 1006 1156 1003 1099 l 1111 1156 q 1088 1051 1111 1086 q 1014 1004 1064 1015 q 885 993 964 993 z "},"Ứ":{"ha":1075,"x_min":21,"x_max":1111,"o":"m 560 -18 q 348 13 439 -18 q 206 108 257 44 q 156 269 156 172 l 156 1006 l 21 1006 l 21 1047 l 522 1047 l 522 1006 l 375 1006 l 375 278 q 440 93 375 149 q 613 38 504 38 q 796 97 729 38 q 863 278 863 157 l 863 1006 l 731 1006 l 731 1047 l 1061 1047 l 1061 1006 l 915 1006 l 915 271 q 826 51 915 121 q 560 -18 738 -18 m 885 993 l 882 1046 q 979 1072 956 1046 q 1006 1156 1003 1099 l 1111 1156 q 1088 1051 1111 1086 q 1014 1004 1064 1015 q 885 993 964 993 m 333 1172 l 557 1317 q 617 1351 593 1340 q 671 1363 640 1363 q 723 1343 706 1363 q 740 1299 740 1324 q 726 1253 740 1275 q 667 1221 713 1231 l 421 1172 l 333 1172 z "},"Ự":{"ha":1075,"x_min":21,"x_max":1111,"o":"m 560 -18 q 348 13 439 -18 q 206 108 257 44 q 156 269 156 172 l 156 1006 l 21 1006 l 21 1047 l 522 1047 l 522 1006 l 375 1006 l 375 278 q 440 93 375 149 q 613 38 504 38 q 796 97 729 38 q 863 278 863 157 l 863 1006 l 731 1006 l 731 1047 l 1061 1047 l 1061 1006 l 915 1006 l 915 271 q 826 51 915 121 q 560 -18 738 -18 m 885 993 l 882 1046 q 979 1072 956 1046 q 1006 1156 1003 1099 l 1111 1156 q 1088 1051 1111 1086 q 1014 1004 1064 1015 q 885 993 964 993 m 536 -361 q 458 -328 492 -361 q 425 -250 425 -294 q 458 -171 425 -204 q 536 -137 492 -137 q 615 -171 582 -137 q 649 -250 649 -204 q 615 -328 649 -294 q 536 -361 582 -361 z "},"Ừ":{"ha":1075,"x_min":21,"x_max":1111,"o":"m 560 -18 q 348 13 439 -18 q 206 108 257 44 q 156 269 156 172 l 156 1006 l 21 1006 l 21 1047 l 522 1047 l 522 1006 l 375 1006 l 375 278 q 440 93 375 149 q 613 38 504 38 q 796 97 729 38 q 863 278 863 157 l 863 1006 l 731 1006 l 731 1047 l 1061 1047 l 1061 1006 l 915 1006 l 915 271 q 826 51 915 121 q 560 -18 738 -18 m 885 993 l 882 1046 q 979 1072 956 1046 q 1006 1156 1003 1099 l 1111 1156 q 1088 1051 1111 1086 q 1014 1004 1064 1015 q 885 993 964 993 m 653 1172 l 407 1221 q 347 1253 361 1231 q 333 1299 333 1275 q 351 1343 333 1324 q 403 1363 368 1363 q 457 1351 433 1363 q 517 1317 481 1340 l 740 1172 l 653 1172 z "},"Ử":{"ha":1075,"x_min":21,"x_max":1111,"o":"m 560 -18 q 348 13 439 -18 q 206 108 257 44 q 156 269 156 172 l 156 1006 l 21 1006 l 21 1047 l 522 1047 l 522 1006 l 375 1006 l 375 278 q 440 93 375 149 q 613 38 504 38 q 796 97 729 38 q 863 278 863 157 l 863 1006 l 731 1006 l 731 1047 l 1061 1047 l 1061 1006 l 915 1006 l 915 271 q 826 51 915 121 q 560 -18 738 -18 m 885 993 l 882 1046 q 979 1072 956 1046 q 1006 1156 1003 1099 l 1111 1156 q 1088 1051 1111 1086 q 1014 1004 1064 1015 q 885 993 964 993 m 529 1126 q 540 1184 529 1163 q 565 1220 550 1206 q 590 1248 579 1235 q 600 1282 600 1261 q 583 1320 600 1306 q 536 1335 567 1335 q 490 1320 507 1335 q 474 1290 474 1306 q 481 1269 474 1274 q 495 1260 488 1265 q 503 1235 503 1254 q 485 1207 503 1215 q 449 1199 467 1199 q 406 1217 424 1199 q 388 1267 388 1236 q 408 1340 388 1313 q 461 1381 428 1368 q 536 1394 494 1394 q 649 1365 613 1394 q 686 1283 686 1336 q 671 1219 686 1240 q 635 1188 656 1199 q 599 1165 614 1178 q 583 1126 583 1153 l 529 1126 z "},"Ữ":{"ha":1075,"x_min":21,"x_max":1111,"o":"m 560 -18 q 348 13 439 -18 q 206 108 257 44 q 156 269 156 172 l 156 1006 l 21 1006 l 21 1047 l 522 1047 l 522 1006 l 375 1006 l 375 278 q 440 93 375 149 q 613 38 504 38 q 796 97 729 38 q 863 278 863 157 l 863 1006 l 731 1006 l 731 1047 l 1061 1047 l 1061 1006 l 915 1006 l 915 271 q 826 51 915 121 q 560 -18 738 -18 m 885 993 l 882 1046 q 979 1072 956 1046 q 1006 1156 1003 1099 l 1111 1156 q 1088 1051 1111 1086 q 1014 1004 1064 1015 q 885 993 964 993 m 265 1172 q 298 1263 274 1219 q 363 1334 322 1306 q 457 1363 403 1363 q 526 1349 494 1363 q 586 1321 557 1335 q 647 1307 615 1307 q 726 1326 700 1307 q 763 1363 753 1344 l 810 1363 q 775 1272 799 1315 q 713 1201 751 1229 q 617 1174 674 1174 q 547 1188 578 1174 q 488 1215 517 1201 q 426 1229 460 1229 q 351 1213 382 1229 q 311 1172 321 1197 l 265 1172 z "},"Ű":{"ha":1075,"x_min":21,"x_max":1061,"o":"m 560 -18 q 348 13 439 -18 q 206 108 257 44 q 156 269 156 172 l 156 1006 l 21 1006 l 21 1047 l 522 1047 l 522 1006 l 375 1006 l 375 278 q 440 93 375 149 q 613 38 504 38 q 796 97 729 38 q 863 278 863 157 l 863 1006 l 731 1006 l 731 1047 l 1061 1047 l 1061 1006 l 915 1006 l 915 271 q 826 51 915 121 q 560 -18 738 -18 m 488 1172 l 711 1317 q 771 1351 747 1340 q 825 1363 794 1363 q 877 1343 860 1363 q 894 1299 894 1324 q 881 1253 894 1275 q 821 1221 867 1231 l 575 1172 l 488 1172 m 179 1172 l 403 1317 q 463 1351 439 1340 q 517 1363 486 1363 q 569 1343 551 1363 q 586 1299 586 1324 q 572 1253 586 1275 q 513 1221 558 1231 l 267 1172 l 179 1172 z "},"Ȗ":{"ha":1075,"x_min":21,"x_max":1061,"o":"m 560 -18 q 348 13 439 -18 q 206 108 257 44 q 156 269 156 172 l 156 1006 l 21 1006 l 21 1047 l 522 1047 l 522 1006 l 375 1006 l 375 278 q 440 93 375 149 q 613 38 504 38 q 796 97 729 38 q 863 278 863 157 l 863 1006 l 731 1006 l 731 1047 l 1061 1047 l 1061 1006 l 915 1006 l 915 271 q 826 51 915 121 q 560 -18 738 -18 m 306 1172 q 365 1310 306 1257 q 538 1363 424 1363 q 712 1308 656 1363 q 768 1172 768 1253 l 707 1172 q 656 1219 704 1204 q 535 1233 608 1233 q 416 1219 463 1233 q 367 1172 369 1206 l 306 1172 z "},"Ū":{"ha":1075,"x_min":21,"x_max":1061,"o":"m 560 -18 q 348 13 439 -18 q 206 108 257 44 q 156 269 156 172 l 156 1006 l 21 1006 l 21 1047 l 522 1047 l 522 1006 l 375 1006 l 375 278 q 440 93 375 149 q 613 38 504 38 q 796 97 729 38 q 863 278 863 157 l 863 1006 l 731 1006 l 731 1047 l 1061 1047 l 1061 1006 l 915 1006 l 915 271 q 826 51 915 121 q 560 -18 738 -18 m 311 1181 l 311 1300 l 783 1300 l 783 1181 l 311 1181 z "},"Ų":{"ha":1075,"x_min":21,"x_max":1061,"o":"m 560 -18 q 348 13 439 -18 q 206 108 257 44 q 156 269 156 172 l 156 1006 l 21 1006 l 21 1047 l 522 1047 l 522 1006 l 375 1006 l 375 278 q 440 93 375 149 q 613 38 504 38 q 796 97 729 38 q 863 278 863 157 l 863 1006 l 731 1006 l 731 1047 l 1061 1047 l 1061 1006 l 915 1006 l 915 271 q 826 51 915 121 q 560 -18 738 -18 m 610 -337 q 520 -306 554 -337 q 486 -224 486 -275 q 505 -153 486 -187 q 567 -78 524 -118 q 682 14 610 -37 l 746 14 q 647 -103 683 -43 q 611 -211 611 -162 q 661 -264 611 -264 q 699 -256 681 -264 q 740 -229 718 -247 l 746 -229 l 746 -278 q 686 -322 722 -306 q 610 -337 650 -337 z "},"Ů":{"ha":1075,"x_min":21,"x_max":1061,"o":"m 560 -18 q 348 13 439 -18 q 206 108 257 44 q 156 269 156 172 l 156 1006 l 21 1006 l 21 1047 l 522 1047 l 522 1006 l 375 1006 l 375 278 q 440 93 375 149 q 613 38 504 38 q 796 97 729 38 q 863 278 863 157 l 863 1006 l 731 1006 l 731 1047 l 1061 1047 l 1061 1006 l 915 1006 l 915 271 q 826 51 915 121 q 560 -18 738 -18 m 536 1142 q 442 1181 482 1142 q 403 1275 403 1221 q 442 1369 403 1331 q 536 1408 482 1408 q 631 1369 592 1408 q 671 1276 671 1331 q 631 1181 671 1221 q 536 1142 592 1142 m 536 1215 q 578 1233 561 1215 q 596 1275 596 1251 q 578 1316 596 1299 q 536 1333 560 1333 q 496 1316 514 1333 q 478 1275 478 1299 q 495 1234 478 1253 q 536 1215 513 1215 z "},"Ũ":{"ha":1075,"x_min":21,"x_max":1061,"o":"m 560 -18 q 348 13 439 -18 q 206 108 257 44 q 156 269 156 172 l 156 1006 l 21 1006 l 21 1047 l 522 1047 l 522 1006 l 375 1006 l 375 278 q 440 93 375 149 q 613 38 504 38 q 796 97 729 38 q 863 278 863 157 l 863 1006 l 731 1006 l 731 1047 l 1061 1047 l 1061 1006 l 915 1006 l 915 271 q 826 51 915 121 q 560 -18 738 -18 m 265 1172 q 298 1263 274 1219 q 363 1334 322 1306 q 457 1363 403 1363 q 526 1349 494 1363 q 586 1321 557 1335 q 647 1307 615 1307 q 726 1326 700 1307 q 763 1363 753 1344 l 810 1363 q 775 1272 799 1315 q 713 1201 751 1229 q 617 1174 674 1174 q 547 1188 578 1174 q 488 1215 517 1201 q 426 1229 460 1229 q 351 1213 382 1229 q 311 1172 321 1197 l 265 1172 z "},"V":{"ha":926,"x_min":-35,"x_max":954,"o":"m 446 -12 l 68 1026 l 308 1026 l 560 336 l 565 336 l 574 285 l 482 -12 l 446 -12 m 446 -12 l 518 208 l 818 1026 l 864 1026 l 482 -12 l 446 -12 m -35 1006 l -35 1047 l 426 1047 l 426 1006 l -35 1006 m 647 1006 l 647 1047 l 954 1047 l 954 1006 l 647 1006 z "},"W":{"ha":1415,"x_min":-28,"x_max":1443,"o":"m 469 -12 l 82 1006 l -28 1006 l -28 1047 l 1069 1047 l 1069 1006 l 981 1006 l 874 714 l 1019 322 l 1025 322 l 1275 1006 l 1136 1006 l 1136 1047 l 1443 1047 l 1443 1006 l 1321 1006 l 947 -12 l 911 -12 l 728 468 l 533 -12 l 469 -12 m 599 289 l 604 289 l 706 526 l 524 1006 l 324 1006 l 599 289 m 850 775 l 935 1006 l 764 1006 l 850 775 z "},"Ẃ":{"ha":1415,"x_min":-28,"x_max":1443,"o":"m 469 -12 l 82 1006 l -28 1006 l -28 1047 l 1069 1047 l 1069 1006 l 981 1006 l 874 714 l 1019 322 l 1025 322 l 1275 1006 l 1136 1006 l 1136 1047 l 1443 1047 l 1443 1006 l 1321 1006 l 947 -12 l 911 -12 l 728 468 l 533 -12 l 469 -12 m 599 289 l 604 289 l 706 526 l 524 1006 l 324 1006 l 599 289 m 850 775 l 935 1006 l 764 1006 l 850 775 m 504 1172 l 728 1317 q 788 1351 764 1340 q 842 1363 811 1363 q 894 1343 876 1363 q 911 1299 911 1324 q 897 1253 911 1275 q 838 1221 883 1231 l 592 1172 l 504 1172 z "},"Ŵ":{"ha":1415,"x_min":-28,"x_max":1443,"o":"m 469 -12 l 82 1006 l -28 1006 l -28 1047 l 1069 1047 l 1069 1006 l 981 1006 l 874 714 l 1019 322 l 1025 322 l 1275 1006 l 1136 1006 l 1136 1047 l 1443 1047 l 1443 1006 l 1321 1006 l 947 -12 l 911 -12 l 728 468 l 533 -12 l 469 -12 m 599 289 l 604 289 l 706 526 l 524 1006 l 324 1006 l 599 289 m 850 775 l 935 1006 l 764 1006 l 850 775 m 428 1172 l 665 1361 l 751 1361 l 989 1172 l 915 1172 l 708 1231 l 501 1172 l 428 1172 z "},"Ẅ":{"ha":1415,"x_min":-28,"x_max":1443,"o":"m 469 -12 l 82 1006 l -28 1006 l -28 1047 l 1069 1047 l 1069 1006 l 981 1006 l 874 714 l 1019 322 l 1025 322 l 1275 1006 l 1136 1006 l 1136 1047 l 1443 1047 l 1443 1006 l 1321 1006 l 947 -12 l 911 -12 l 728 468 l 533 -12 l 469 -12 m 599 289 l 604 289 l 706 526 l 524 1006 l 324 1006 l 599 289 m 850 775 l 935 1006 l 764 1006 l 850 775 m 853 1154 q 783 1184 813 1154 q 753 1254 753 1214 q 783 1324 753 1294 q 853 1354 813 1354 q 923 1324 893 1354 q 953 1254 953 1294 q 923 1184 953 1214 q 853 1154 893 1154 m 564 1154 q 494 1184 524 1154 q 464 1254 464 1214 q 494 1324 464 1294 q 564 1354 524 1354 q 634 1324 604 1354 q 664 1254 664 1294 q 634 1184 664 1214 q 564 1154 604 1154 z "},"Ẁ":{"ha":1415,"x_min":-28,"x_max":1443,"o":"m 469 -12 l 82 1006 l -28 1006 l -28 1047 l 1069 1047 l 1069 1006 l 981 1006 l 874 714 l 1019 322 l 1025 322 l 1275 1006 l 1136 1006 l 1136 1047 l 1443 1047 l 1443 1006 l 1321 1006 l 947 -12 l 911 -12 l 728 468 l 533 -12 l 469 -12 m 599 289 l 604 289 l 706 526 l 524 1006 l 324 1006 l 599 289 m 850 775 l 935 1006 l 764 1006 l 850 775 m 824 1172 l 578 1221 q 518 1253 532 1231 q 504 1299 504 1275 q 522 1343 504 1324 q 574 1363 539 1363 q 628 1351 604 1363 q 688 1317 651 1340 l 911 1172 l 824 1172 z "},"X":{"ha":999,"x_min":-21,"x_max":1019,"o":"m -15 0 l -15 42 l 121 42 l 399 469 l 81 1006 l -21 1006 l -21 1047 l 482 1047 l 482 1006 l 342 1006 l 544 665 l 765 1006 l 618 1006 l 618 1047 l 939 1047 l 939 1006 l 815 1006 l 568 624 l 915 42 l 1019 42 l 1019 0 l 526 0 l 526 42 l 653 42 l 422 428 l 172 42 l 333 42 l 333 0 l -15 0 z "},"Y":{"ha":1064,"x_min":14,"x_max":1050,"o":"m 281 0 l 281 42 l 440 42 l 440 457 l 108 1006 l 14 1006 l 14 1047 l 503 1047 l 503 1006 l 383 1006 l 644 560 l 650 560 l 874 1006 l 724 1006 l 724 1047 l 1050 1047 l 1050 1006 l 926 1006 l 660 475 l 660 42 l 824 42 l 824 0 l 281 0 z "},"Ý":{"ha":1064,"x_min":14,"x_max":1050,"o":"m 281 0 l 281 42 l 440 42 l 440 457 l 108 1006 l 14 1006 l 14 1047 l 503 1047 l 503 1006 l 383 1006 l 644 560 l 650 560 l 874 1006 l 724 1006 l 724 1047 l 1050 1047 l 1050 1006 l 926 1006 l 660 475 l 660 42 l 824 42 l 824 0 l 281 0 m 328 1172 l 551 1317 q 611 1351 588 1340 q 665 1363 635 1363 q 717 1343 700 1363 q 735 1299 735 1324 q 721 1253 735 1275 q 661 1221 707 1231 l 415 1172 l 328 1172 z "},"Ŷ":{"ha":1064,"x_min":14,"x_max":1050,"o":"m 281 0 l 281 42 l 440 42 l 440 457 l 108 1006 l 14 1006 l 14 1047 l 503 1047 l 503 1006 l 383 1006 l 644 560 l 650 560 l 874 1006 l 724 1006 l 724 1047 l 1050 1047 l 1050 1006 l 926 1006 l 660 475 l 660 42 l 824 42 l 824 0 l 281 0 m 251 1172 l 489 1361 l 575 1361 l 813 1172 l 739 1172 l 532 1231 l 325 1172 l 251 1172 z "},"Ÿ":{"ha":1064,"x_min":14,"x_max":1050,"o":"m 281 0 l 281 42 l 440 42 l 440 457 l 108 1006 l 14 1006 l 14 1047 l 503 1047 l 503 1006 l 383 1006 l 644 560 l 650 560 l 874 1006 l 724 1006 l 724 1047 l 1050 1047 l 1050 1006 l 926 1006 l 660 475 l 660 42 l 824 42 l 824 0 l 281 0 m 676 1154 q 606 1184 636 1154 q 576 1254 576 1214 q 606 1324 576 1294 q 676 1354 636 1354 q 747 1324 717 1354 q 776 1254 776 1294 q 747 1184 776 1214 q 676 1154 717 1154 m 388 1154 q 317 1184 347 1154 q 288 1254 288 1214 q 317 1324 288 1294 q 388 1354 347 1354 q 458 1324 428 1354 q 488 1254 488 1294 q 458 1184 488 1214 q 388 1154 428 1154 z "},"Ỵ":{"ha":1064,"x_min":14,"x_max":1050,"o":"m 281 0 l 281 42 l 440 42 l 440 457 l 108 1006 l 14 1006 l 14 1047 l 503 1047 l 503 1006 l 383 1006 l 644 560 l 650 560 l 874 1006 l 724 1006 l 724 1047 l 1050 1047 l 1050 1006 l 926 1006 l 660 475 l 660 42 l 824 42 l 824 0 l 281 0 m 531 -361 q 453 -328 486 -361 q 419 -250 419 -294 q 453 -171 419 -204 q 531 -137 486 -137 q 610 -171 576 -137 q 643 -250 643 -204 q 610 -328 643 -294 q 531 -361 576 -361 z "},"Ỳ":{"ha":1064,"x_min":14,"x_max":1050,"o":"m 281 0 l 281 42 l 440 42 l 440 457 l 108 1006 l 14 1006 l 14 1047 l 503 1047 l 503 1006 l 383 1006 l 644 560 l 650 560 l 874 1006 l 724 1006 l 724 1047 l 1050 1047 l 1050 1006 l 926 1006 l 660 475 l 660 42 l 824 42 l 824 0 l 281 0 m 647 1172 l 401 1221 q 342 1253 356 1231 q 328 1299 328 1275 q 345 1343 328 1324 q 397 1363 363 1363 q 451 1351 428 1363 q 511 1317 475 1340 l 735 1172 l 647 1172 z "},"Ỷ":{"ha":1064,"x_min":14,"x_max":1050,"o":"m 281 0 l 281 42 l 440 42 l 440 457 l 108 1006 l 14 1006 l 14 1047 l 503 1047 l 503 1006 l 383 1006 l 644 560 l 650 560 l 874 1006 l 724 1006 l 724 1047 l 1050 1047 l 1050 1006 l 926 1006 l 660 475 l 660 42 l 824 42 l 824 0 l 281 0 m 524 1126 q 534 1184 524 1163 q 559 1220 544 1206 q 584 1248 574 1235 q 594 1282 594 1261 q 578 1320 594 1306 q 531 1335 561 1335 q 485 1320 501 1335 q 468 1290 468 1306 q 475 1269 468 1274 q 490 1260 482 1265 q 497 1235 497 1254 q 479 1207 497 1215 q 443 1199 461 1199 q 400 1217 418 1199 q 382 1267 382 1236 q 402 1340 382 1313 q 456 1381 422 1368 q 531 1394 489 1394 q 644 1365 607 1394 q 681 1283 681 1336 q 665 1219 681 1240 q 629 1188 650 1199 q 593 1165 608 1178 q 578 1126 578 1153 l 524 1126 z "},"Ỹ":{"ha":1064,"x_min":14,"x_max":1050,"o":"m 281 0 l 281 42 l 440 42 l 440 457 l 108 1006 l 14 1006 l 14 1047 l 503 1047 l 503 1006 l 383 1006 l 644 560 l 650 560 l 874 1006 l 724 1006 l 724 1047 l 1050 1047 l 1050 1006 l 926 1006 l 660 475 l 660 42 l 824 42 l 824 0 l 281 0 m 260 1172 q 292 1263 268 1219 q 357 1334 317 1306 q 451 1363 397 1363 q 520 1349 489 1363 q 581 1321 551 1335 q 642 1307 610 1307 q 721 1326 694 1307 q 757 1363 747 1344 l 804 1363 q 769 1272 793 1315 q 707 1201 746 1229 q 611 1174 668 1174 q 542 1188 572 1174 q 483 1215 511 1201 q 421 1229 454 1229 q 346 1213 376 1229 q 306 1172 315 1197 l 260 1172 z "},"Z":{"ha":863,"x_min":14,"x_max":856,"o":"m 14 10 l 14 54 l 589 1000 l 589 1008 l 856 1017 l 856 992 l 271 50 l 271 32 l 14 10 m 14 0 l 14 44 l 511 44 q 658 86 597 44 q 751 195 718 128 q 786 340 785 263 l 842 340 l 842 0 l 14 0 m 83 763 l 83 1047 l 856 1047 l 856 1006 l 400 1006 q 261 972 319 1006 q 172 883 203 939 q 139 763 140 828 l 83 763 z "},"Ź":{"ha":863,"x_min":14,"x_max":856,"o":"m 14 10 l 14 54 l 589 1000 l 589 1008 l 856 1017 l 856 992 l 271 50 l 271 32 l 14 10 m 14 0 l 14 44 l 511 44 q 658 86 597 44 q 751 195 718 128 q 786 340 785 263 l 842 340 l 842 0 l 14 0 m 83 763 l 83 1047 l 856 1047 l 856 1006 l 400 1006 q 261 972 319 1006 q 172 883 203 939 q 139 763 140 828 l 83 763 m 228 1172 l 451 1317 q 511 1351 488 1340 q 565 1363 535 1363 q 617 1343 600 1363 q 635 1299 635 1324 q 621 1253 635 1275 q 561 1221 607 1231 l 315 1172 l 228 1172 z "},"Ž":{"ha":863,"x_min":14,"x_max":856,"o":"m 14 10 l 14 54 l 589 1000 l 589 1008 l 856 1017 l 856 992 l 271 50 l 271 32 l 14 10 m 14 0 l 14 44 l 511 44 q 658 86 597 44 q 751 195 718 128 q 786 340 785 263 l 842 340 l 842 0 l 14 0 m 83 763 l 83 1047 l 856 1047 l 856 1006 l 400 1006 q 261 972 319 1006 q 172 883 203 939 q 139 763 140 828 l 83 763 m 389 1172 l 151 1361 l 225 1361 l 432 1303 l 639 1361 l 713 1361 l 475 1172 l 389 1172 z "},"Ż":{"ha":863,"x_min":14,"x_max":856,"o":"m 14 10 l 14 54 l 589 1000 l 589 1008 l 856 1017 l 856 992 l 271 50 l 271 32 l 14 10 m 14 0 l 14 44 l 511 44 q 658 86 597 44 q 751 195 718 128 q 786 340 785 263 l 842 340 l 842 0 l 14 0 m 83 763 l 83 1047 l 856 1047 l 856 1006 l 400 1006 q 261 972 319 1006 q 172 883 203 939 q 139 763 140 828 l 83 763 m 431 1144 q 353 1178 386 1144 q 319 1256 319 1211 q 353 1335 319 1301 q 431 1368 386 1368 q 510 1335 476 1368 q 543 1256 543 1301 q 510 1178 543 1211 q 431 1144 476 1144 z "},"Ẓ":{"ha":863,"x_min":14,"x_max":856,"o":"m 14 10 l 14 54 l 589 1000 l 589 1008 l 856 1017 l 856 992 l 271 50 l 271 32 l 14 10 m 14 0 l 14 44 l 511 44 q 658 86 597 44 q 751 195 718 128 q 786 340 785 263 l 842 340 l 842 0 l 14 0 m 83 763 l 83 1047 l 856 1047 l 856 1006 l 400 1006 q 261 972 319 1006 q 172 883 203 939 q 139 763 140 828 l 83 763 m 431 -361 q 353 -328 386 -361 q 319 -250 319 -294 q 353 -171 319 -204 q 431 -137 386 -137 q 510 -171 476 -137 q 543 -250 543 -204 q 510 -328 543 -294 q 431 -361 476 -361 z "},"a":{"ha":751,"x_min":58,"x_max":758,"o":"m 246 -17 q 111 26 164 -17 q 58 140 58 69 q 106 256 58 207 q 242 330 154 304 q 446 356 329 356 l 446 518 q 419 575 446 554 q 350 596 393 596 q 288 582 314 596 q 263 546 263 568 q 277 515 263 528 q 292 472 292 501 q 263 408 292 436 q 194 381 235 381 q 128 408 154 381 q 101 476 101 436 q 138 561 101 524 q 238 620 174 599 q 382 642 301 642 q 565 602 493 642 q 638 499 638 563 l 638 94 q 647 72 638 82 q 669 63 656 63 q 694 72 681 63 q 731 108 707 82 l 758 76 q 585 -17 682 -17 q 495 10 528 -17 q 451 79 463 36 l 446 79 q 369 13 421 43 q 246 -17 317 -17 m 339 60 q 415 99 383 60 q 446 203 446 139 l 446 313 q 308 275 357 313 q 260 164 260 238 q 280 88 260 117 q 339 60 300 60 z "},"á":{"ha":751,"x_min":58,"x_max":758,"o":"m 246 -17 q 111 26 164 -17 q 58 140 58 69 q 106 256 58 207 q 242 330 154 304 q 446 356 329 356 l 446 518 q 419 575 446 554 q 350 596 393 596 q 288 582 314 596 q 263 546 263 568 q 277 515 263 528 q 292 472 292 501 q 263 408 292 436 q 194 381 235 381 q 128 408 154 381 q 101 476 101 436 q 138 561 101 524 q 238 620 174 599 q 382 642 301 642 q 565 602 493 642 q 638 499 638 563 l 638 94 q 647 72 638 82 q 669 63 656 63 q 694 72 681 63 q 731 108 707 82 l 758 76 q 585 -17 682 -17 q 495 10 528 -17 q 451 79 463 36 l 446 79 q 369 13 421 43 q 246 -17 317 -17 m 339 60 q 415 99 383 60 q 446 203 446 139 l 446 313 q 308 275 357 313 q 260 164 260 238 q 280 88 260 117 q 339 60 300 60 m 321 728 l 489 956 q 540 1003 515 992 q 588 1014 564 1014 q 647 994 628 1014 q 665 950 665 975 q 652 910 665 932 q 599 860 639 888 l 408 728 l 321 728 z "},"ă":{"ha":751,"x_min":58,"x_max":758,"o":"m 246 -17 q 111 26 164 -17 q 58 140 58 69 q 106 256 58 207 q 242 330 154 304 q 446 356 329 356 l 446 518 q 419 575 446 554 q 350 596 393 596 q 288 582 314 596 q 263 546 263 568 q 277 515 263 528 q 292 472 292 501 q 263 408 292 436 q 194 381 235 381 q 128 408 154 381 q 101 476 101 436 q 138 561 101 524 q 238 620 174 599 q 382 642 301 642 q 565 602 493 642 q 638 499 638 563 l 638 94 q 647 72 638 82 q 669 63 656 63 q 694 72 681 63 q 731 108 707 82 l 758 76 q 585 -17 682 -17 q 495 10 528 -17 q 451 79 463 36 l 446 79 q 369 13 421 43 q 246 -17 317 -17 m 339 60 q 415 99 383 60 q 446 203 446 139 l 446 313 q 308 275 357 313 q 260 164 260 238 q 280 88 260 117 q 339 60 300 60 m 376 728 q 228 781 283 728 q 172 918 172 833 l 233 918 q 279 871 236 885 q 374 857 322 857 q 471 872 426 857 q 518 918 515 888 l 579 918 q 556 822 579 865 q 487 753 532 778 q 376 728 442 728 z "},"ắ":{"ha":751,"x_min":58,"x_max":758,"o":"m 246 -17 q 111 26 164 -17 q 58 140 58 69 q 106 256 58 207 q 242 330 154 304 q 446 356 329 356 l 446 518 q 419 575 446 554 q 350 596 393 596 q 288 582 314 596 q 263 546 263 568 q 277 515 263 528 q 292 472 292 501 q 263 408 292 436 q 194 381 235 381 q 128 408 154 381 q 101 476 101 436 q 138 561 101 524 q 238 620 174 599 q 382 642 301 642 q 565 602 493 642 q 638 499 638 563 l 638 94 q 647 72 638 82 q 669 63 656 63 q 694 72 681 63 q 731 108 707 82 l 758 76 q 585 -17 682 -17 q 495 10 528 -17 q 451 79 463 36 l 446 79 q 369 13 421 43 q 246 -17 317 -17 m 339 60 q 415 99 383 60 q 446 203 446 139 l 446 313 q 308 275 357 313 q 260 164 260 238 q 280 88 260 117 q 339 60 300 60 m 376 724 q 228 776 283 724 q 172 914 172 829 l 233 914 q 279 867 236 881 q 374 853 322 853 q 471 868 426 853 q 518 914 515 883 l 579 914 q 556 817 579 861 q 487 749 532 774 q 376 724 442 724 m 172 1010 l 396 1154 q 456 1189 432 1178 q 510 1200 479 1200 q 562 1181 544 1200 q 579 1136 579 1161 q 565 1090 579 1113 q 506 1058 551 1068 l 260 1010 l 172 1010 z "},"ặ":{"ha":751,"x_min":58,"x_max":758,"o":"m 246 -17 q 111 26 164 -17 q 58 140 58 69 q 106 256 58 207 q 242 330 154 304 q 446 356 329 356 l 446 518 q 419 575 446 554 q 350 596 393 596 q 288 582 314 596 q 263 546 263 568 q 277 515 263 528 q 292 472 292 501 q 263 408 292 436 q 194 381 235 381 q 128 408 154 381 q 101 476 101 436 q 138 561 101 524 q 238 620 174 599 q 382 642 301 642 q 565 602 493 642 q 638 499 638 563 l 638 94 q 647 72 638 82 q 669 63 656 63 q 694 72 681 63 q 731 108 707 82 l 758 76 q 585 -17 682 -17 q 495 10 528 -17 q 451 79 463 36 l 446 79 q 369 13 421 43 q 246 -17 317 -17 m 339 60 q 415 99 383 60 q 446 203 446 139 l 446 313 q 308 275 357 313 q 260 164 260 238 q 280 88 260 117 q 339 60 300 60 m 375 -361 q 297 -328 331 -361 q 264 -250 264 -294 q 297 -171 264 -204 q 375 -137 331 -137 q 454 -171 421 -137 q 488 -250 488 -204 q 454 -328 488 -294 q 375 -361 421 -361 m 376 728 q 228 781 283 728 q 172 918 172 833 l 233 918 q 279 871 236 885 q 374 857 322 857 q 471 872 426 857 q 518 918 515 888 l 579 918 q 556 822 579 865 q 487 753 532 778 q 376 728 442 728 z "},"ằ":{"ha":751,"x_min":58,"x_max":758,"o":"m 246 -17 q 111 26 164 -17 q 58 140 58 69 q 106 256 58 207 q 242 330 154 304 q 446 356 329 356 l 446 518 q 419 575 446 554 q 350 596 393 596 q 288 582 314 596 q 263 546 263 568 q 277 515 263 528 q 292 472 292 501 q 263 408 292 436 q 194 381 235 381 q 128 408 154 381 q 101 476 101 436 q 138 561 101 524 q 238 620 174 599 q 382 642 301 642 q 565 602 493 642 q 638 499 638 563 l 638 94 q 647 72 638 82 q 669 63 656 63 q 694 72 681 63 q 731 108 707 82 l 758 76 q 585 -17 682 -17 q 495 10 528 -17 q 451 79 463 36 l 446 79 q 369 13 421 43 q 246 -17 317 -17 m 339 60 q 415 99 383 60 q 446 203 446 139 l 446 313 q 308 275 357 313 q 260 164 260 238 q 280 88 260 117 q 339 60 300 60 m 376 724 q 228 776 283 724 q 172 914 172 829 l 233 914 q 279 867 236 881 q 374 853 322 853 q 471 868 426 853 q 518 914 515 883 l 579 914 q 556 817 579 861 q 487 749 532 774 q 376 724 442 724 m 492 1019 l 246 1068 q 186 1100 200 1078 q 172 1146 172 1122 q 190 1190 172 1171 q 242 1210 207 1210 q 296 1199 272 1210 q 356 1164 319 1188 l 579 1019 l 492 1019 z "},"ẳ":{"ha":751,"x_min":58,"x_max":758,"o":"m 246 -17 q 111 26 164 -17 q 58 140 58 69 q 106 256 58 207 q 242 330 154 304 q 446 356 329 356 l 446 518 q 419 575 446 554 q 350 596 393 596 q 288 582 314 596 q 263 546 263 568 q 277 515 263 528 q 292 472 292 501 q 263 408 292 436 q 194 381 235 381 q 128 408 154 381 q 101 476 101 436 q 138 561 101 524 q 238 620 174 599 q 382 642 301 642 q 565 602 493 642 q 638 499 638 563 l 638 94 q 647 72 638 82 q 669 63 656 63 q 694 72 681 63 q 731 108 707 82 l 758 76 q 585 -17 682 -17 q 495 10 528 -17 q 451 79 463 36 l 446 79 q 369 13 421 43 q 246 -17 317 -17 m 339 60 q 415 99 383 60 q 446 203 446 139 l 446 313 q 308 275 357 313 q 260 164 260 238 q 280 88 260 117 q 339 60 300 60 m 376 724 q 228 776 283 724 q 172 914 172 829 l 233 914 q 279 867 236 881 q 374 853 322 853 q 471 868 426 853 q 518 914 515 883 l 579 914 q 556 817 579 861 q 487 749 532 774 q 376 724 442 724 m 340 917 q 351 976 340 953 q 376 1013 361 999 q 401 1041 390 1028 q 411 1072 411 1054 q 394 1110 411 1096 q 347 1125 378 1125 q 301 1110 318 1125 q 285 1081 285 1096 q 292 1060 285 1064 q 306 1050 299 1056 q 314 1025 314 1044 q 296 997 314 1006 q 260 989 278 989 q 217 1008 235 989 q 199 1057 199 1026 q 219 1131 199 1103 q 272 1172 239 1158 q 347 1185 306 1185 q 460 1156 424 1185 q 497 1074 497 1126 q 482 1010 497 1031 q 446 978 467 989 q 410 956 425 968 q 394 917 394 943 l 340 917 z "},"ẵ":{"ha":751,"x_min":58,"x_max":758,"o":"m 246 -17 q 111 26 164 -17 q 58 140 58 69 q 106 256 58 207 q 242 330 154 304 q 446 356 329 356 l 446 518 q 419 575 446 554 q 350 596 393 596 q 288 582 314 596 q 263 546 263 568 q 277 515 263 528 q 292 472 292 501 q 263 408 292 436 q 194 381 235 381 q 128 408 154 381 q 101 476 101 436 q 138 561 101 524 q 238 620 174 599 q 382 642 301 642 q 565 602 493 642 q 638 499 638 563 l 638 94 q 647 72 638 82 q 669 63 656 63 q 694 72 681 63 q 731 108 707 82 l 758 76 q 585 -17 682 -17 q 495 10 528 -17 q 451 79 463 36 l 446 79 q 369 13 421 43 q 246 -17 317 -17 m 339 60 q 415 99 383 60 q 446 203 446 139 l 446 313 q 308 275 357 313 q 260 164 260 238 q 280 88 260 117 q 339 60 300 60 m 376 724 q 228 776 283 724 q 172 914 172 829 l 233 914 q 279 867 236 881 q 374 853 322 853 q 471 868 426 853 q 518 914 515 883 l 579 914 q 556 817 579 861 q 487 749 532 774 q 376 724 442 724 m 104 978 q 138 1068 113 1025 q 202 1140 163 1111 q 296 1168 242 1168 q 365 1154 333 1168 q 425 1126 396 1140 q 486 1113 454 1113 q 565 1131 539 1113 q 601 1168 592 1150 l 649 1168 q 614 1078 638 1121 q 551 1007 590 1035 q 456 979 513 979 q 386 993 417 979 q 327 1021 356 1007 q 265 1035 299 1035 q 190 1019 221 1035 q 150 978 160 1003 l 104 978 z "},"â":{"ha":751,"x_min":58,"x_max":758,"o":"m 246 -17 q 111 26 164 -17 q 58 140 58 69 q 106 256 58 207 q 242 330 154 304 q 446 356 329 356 l 446 518 q 419 575 446 554 q 350 596 393 596 q 288 582 314 596 q 263 546 263 568 q 277 515 263 528 q 292 472 292 501 q 263 408 292 436 q 194 381 235 381 q 128 408 154 381 q 101 476 101 436 q 138 561 101 524 q 238 620 174 599 q 382 642 301 642 q 565 602 493 642 q 638 499 638 563 l 638 94 q 647 72 638 82 q 669 63 656 63 q 694 72 681 63 q 731 108 707 82 l 758 76 q 585 -17 682 -17 q 495 10 528 -17 q 451 79 463 36 l 446 79 q 369 13 421 43 q 246 -17 317 -17 m 339 60 q 415 99 383 60 q 446 203 446 139 l 446 313 q 308 275 357 313 q 260 164 260 238 q 280 88 260 117 q 339 60 300 60 m 124 728 l 333 1006 l 419 1006 l 629 728 l 569 728 l 376 847 l 183 728 l 124 728 z "},"ấ":{"ha":751,"x_min":58,"x_max":758,"o":"m 246 -17 q 111 26 164 -17 q 58 140 58 69 q 106 256 58 207 q 242 330 154 304 q 446 356 329 356 l 446 518 q 419 575 446 554 q 350 596 393 596 q 288 582 314 596 q 263 546 263 568 q 277 515 263 528 q 292 472 292 501 q 263 408 292 436 q 194 381 235 381 q 128 408 154 381 q 101 476 101 436 q 138 561 101 524 q 238 620 174 599 q 382 642 301 642 q 565 602 493 642 q 638 499 638 563 l 638 94 q 647 72 638 82 q 669 63 656 63 q 694 72 681 63 q 731 108 707 82 l 758 76 q 585 -17 682 -17 q 495 10 528 -17 q 451 79 463 36 l 446 79 q 369 13 421 43 q 246 -17 317 -17 m 339 60 q 415 99 383 60 q 446 203 446 139 l 446 313 q 308 275 357 313 q 260 164 260 238 q 280 88 260 117 q 339 60 300 60 m 138 726 l 333 888 l 419 888 l 615 726 l 542 726 l 376 785 l 211 726 l 138 726 m 172 938 l 396 1082 q 456 1117 432 1106 q 510 1128 479 1128 q 562 1108 544 1128 q 579 1064 579 1089 q 565 1018 579 1040 q 506 986 551 996 l 260 938 l 172 938 z "},"ậ":{"ha":751,"x_min":58,"x_max":758,"o":"m 246 -17 q 111 26 164 -17 q 58 140 58 69 q 106 256 58 207 q 242 330 154 304 q 446 356 329 356 l 446 518 q 419 575 446 554 q 350 596 393 596 q 288 582 314 596 q 263 546 263 568 q 277 515 263 528 q 292 472 292 501 q 263 408 292 436 q 194 381 235 381 q 128 408 154 381 q 101 476 101 436 q 138 561 101 524 q 238 620 174 599 q 382 642 301 642 q 565 602 493 642 q 638 499 638 563 l 638 94 q 647 72 638 82 q 669 63 656 63 q 694 72 681 63 q 731 108 707 82 l 758 76 q 585 -17 682 -17 q 495 10 528 -17 q 451 79 463 36 l 446 79 q 369 13 421 43 q 246 -17 317 -17 m 339 60 q 415 99 383 60 q 446 203 446 139 l 446 313 q 308 275 357 313 q 260 164 260 238 q 280 88 260 117 q 339 60 300 60 m 375 -361 q 297 -328 331 -361 q 264 -250 264 -294 q 297 -171 264 -204 q 375 -137 331 -137 q 454 -171 421 -137 q 488 -250 488 -204 q 454 -328 488 -294 q 375 -361 421 -361 m 124 728 l 333 1006 l 419 1006 l 629 728 l 569 728 l 376 847 l 183 728 l 124 728 z "},"ầ":{"ha":751,"x_min":58,"x_max":758,"o":"m 246 -17 q 111 26 164 -17 q 58 140 58 69 q 106 256 58 207 q 242 330 154 304 q 446 356 329 356 l 446 518 q 419 575 446 554 q 350 596 393 596 q 288 582 314 596 q 263 546 263 568 q 277 515 263 528 q 292 472 292 501 q 263 408 292 436 q 194 381 235 381 q 128 408 154 381 q 101 476 101 436 q 138 561 101 524 q 238 620 174 599 q 382 642 301 642 q 565 602 493 642 q 638 499 638 563 l 638 94 q 647 72 638 82 q 669 63 656 63 q 694 72 681 63 q 731 108 707 82 l 758 76 q 585 -17 682 -17 q 495 10 528 -17 q 451 79 463 36 l 446 79 q 369 13 421 43 q 246 -17 317 -17 m 339 60 q 415 99 383 60 q 446 203 446 139 l 446 313 q 308 275 357 313 q 260 164 260 238 q 280 88 260 117 q 339 60 300 60 m 138 726 l 333 888 l 419 888 l 615 726 l 542 726 l 376 785 l 211 726 l 138 726 m 492 947 l 246 996 q 186 1028 200 1006 q 172 1074 172 1050 q 190 1118 172 1099 q 242 1138 207 1138 q 296 1126 272 1138 q 356 1092 319 1115 l 579 947 l 492 947 z "},"ẩ":{"ha":751,"x_min":58,"x_max":758,"o":"m 246 -17 q 111 26 164 -17 q 58 140 58 69 q 106 256 58 207 q 242 330 154 304 q 446 356 329 356 l 446 518 q 419 575 446 554 q 350 596 393 596 q 288 582 314 596 q 263 546 263 568 q 277 515 263 528 q 292 472 292 501 q 263 408 292 436 q 194 381 235 381 q 128 408 154 381 q 101 476 101 436 q 138 561 101 524 q 238 620 174 599 q 382 642 301 642 q 565 602 493 642 q 638 499 638 563 l 638 94 q 647 72 638 82 q 669 63 656 63 q 694 72 681 63 q 731 108 707 82 l 758 76 q 585 -17 682 -17 q 495 10 528 -17 q 451 79 463 36 l 446 79 q 369 13 421 43 q 246 -17 317 -17 m 339 60 q 415 99 383 60 q 446 203 446 139 l 446 313 q 308 275 357 313 q 260 164 260 238 q 280 88 260 117 q 339 60 300 60 m 138 726 l 333 888 l 419 888 l 615 726 l 542 726 l 376 785 l 211 726 l 138 726 m 558 890 q 569 949 558 926 q 594 985 579 971 q 619 1009 608 999 q 629 1032 629 1019 q 613 1082 629 1065 q 565 1099 596 1099 q 519 1084 536 1099 q 503 1054 503 1069 q 510 1033 503 1038 q 525 1024 518 1029 q 532 999 532 1018 q 514 971 532 979 q 478 963 496 963 q 435 981 453 963 q 417 1031 417 1000 q 436 1104 417 1076 q 490 1145 456 1132 q 565 1158 524 1158 q 678 1126 642 1158 q 715 1019 715 1093 q 700 972 715 988 q 664 949 685 957 q 628 928 643 940 q 613 890 613 917 l 558 890 z "},"ẫ":{"ha":751,"x_min":58,"x_max":758,"o":"m 246 -17 q 111 26 164 -17 q 58 140 58 69 q 106 256 58 207 q 242 330 154 304 q 446 356 329 356 l 446 518 q 419 575 446 554 q 350 596 393 596 q 288 582 314 596 q 263 546 263 568 q 277 515 263 528 q 292 472 292 501 q 263 408 292 436 q 194 381 235 381 q 128 408 154 381 q 101 476 101 436 q 138 561 101 524 q 238 620 174 599 q 382 642 301 642 q 565 602 493 642 q 638 499 638 563 l 638 94 q 647 72 638 82 q 669 63 656 63 q 694 72 681 63 q 731 108 707 82 l 758 76 q 585 -17 682 -17 q 495 10 528 -17 q 451 79 463 36 l 446 79 q 369 13 421 43 q 246 -17 317 -17 m 339 60 q 415 99 383 60 q 446 203 446 139 l 446 313 q 308 275 357 313 q 260 164 260 238 q 280 88 260 117 q 339 60 300 60 m 138 726 l 333 888 l 419 888 l 615 726 l 542 726 l 376 785 l 211 726 l 138 726 m 104 971 q 138 1061 113 1018 q 202 1133 163 1104 q 296 1161 242 1161 q 365 1147 333 1161 q 425 1119 396 1133 q 486 1106 454 1106 q 565 1124 539 1106 q 601 1161 592 1143 l 649 1161 q 614 1071 638 1114 q 551 1000 590 1028 q 456 972 513 972 q 386 986 417 972 q 327 1014 356 1000 q 265 1028 299 1028 q 190 1012 221 1028 q 150 971 160 996 l 104 971 z "},"ȁ":{"ha":751,"x_min":-32,"x_max":758,"o":"m 246 -17 q 111 26 164 -17 q 58 140 58 69 q 106 256 58 207 q 242 330 154 304 q 446 356 329 356 l 446 518 q 419 575 446 554 q 350 596 393 596 q 288 582 314 596 q 263 546 263 568 q 277 515 263 528 q 292 472 292 501 q 263 408 292 436 q 194 381 235 381 q 128 408 154 381 q 101 476 101 436 q 138 561 101 524 q 238 620 174 599 q 382 642 301 642 q 565 602 493 642 q 638 499 638 563 l 638 94 q 647 72 638 82 q 669 63 656 63 q 694 72 681 63 q 731 108 707 82 l 758 76 q 585 -17 682 -17 q 495 10 528 -17 q 451 79 463 36 l 446 79 q 369 13 421 43 q 246 -17 317 -17 m 339 60 q 415 99 383 60 q 446 203 446 139 l 446 313 q 308 275 357 313 q 260 164 260 238 q 280 88 260 117 q 339 60 300 60 m 503 728 l 313 860 q 260 910 274 888 q 246 950 246 932 q 265 994 246 975 q 324 1014 285 1014 q 372 1003 347 1014 q 422 956 396 992 l 590 728 l 503 728 m 225 728 l 35 860 q -18 910 -4 888 q -32 950 -32 932 q -12 994 -32 975 q 46 1014 7 1014 q 94 1003 69 1014 q 144 956 118 992 l 313 728 l 225 728 z "},"ä":{"ha":751,"x_min":58,"x_max":758,"o":"m 246 -17 q 111 26 164 -17 q 58 140 58 69 q 106 256 58 207 q 242 330 154 304 q 446 356 329 356 l 446 518 q 419 575 446 554 q 350 596 393 596 q 288 582 314 596 q 263 546 263 568 q 277 515 263 528 q 292 472 292 501 q 263 408 292 436 q 194 381 235 381 q 128 408 154 381 q 101 476 101 436 q 138 561 101 524 q 238 620 174 599 q 382 642 301 642 q 565 602 493 642 q 638 499 638 563 l 638 94 q 647 72 638 82 q 669 63 656 63 q 694 72 681 63 q 731 108 707 82 l 758 76 q 585 -17 682 -17 q 495 10 528 -17 q 451 79 463 36 l 446 79 q 369 13 421 43 q 246 -17 317 -17 m 339 60 q 415 99 383 60 q 446 203 446 139 l 446 313 q 308 275 357 313 q 260 164 260 238 q 280 88 260 117 q 339 60 300 60 m 508 779 q 444 806 471 779 q 417 871 417 833 q 444 935 417 908 q 508 963 471 963 q 573 935 546 963 q 600 871 600 908 q 573 806 600 833 q 508 779 546 779 m 244 779 q 180 806 207 779 q 153 871 153 833 q 180 935 153 908 q 244 963 207 963 q 309 935 282 963 q 336 871 336 908 q 309 806 336 833 q 244 779 282 779 z "},"ạ":{"ha":751,"x_min":58,"x_max":758,"o":"m 246 -17 q 111 26 164 -17 q 58 140 58 69 q 106 256 58 207 q 242 330 154 304 q 446 356 329 356 l 446 518 q 419 575 446 554 q 350 596 393 596 q 288 582 314 596 q 263 546 263 568 q 277 515 263 528 q 292 472 292 501 q 263 408 292 436 q 194 381 235 381 q 128 408 154 381 q 101 476 101 436 q 138 561 101 524 q 238 620 174 599 q 382 642 301 642 q 565 602 493 642 q 638 499 638 563 l 638 94 q 647 72 638 82 q 669 63 656 63 q 694 72 681 63 q 731 108 707 82 l 758 76 q 585 -17 682 -17 q 495 10 528 -17 q 451 79 463 36 l 446 79 q 369 13 421 43 q 246 -17 317 -17 m 339 60 q 415 99 383 60 q 446 203 446 139 l 446 313 q 308 275 357 313 q 260 164 260 238 q 280 88 260 117 q 339 60 300 60 m 375 -361 q 297 -328 331 -361 q 264 -250 264 -294 q 297 -171 264 -204 q 375 -137 331 -137 q 454 -171 421 -137 q 488 -250 488 -204 q 454 -328 488 -294 q 375 -361 421 -361 z "},"à":{"ha":751,"x_min":58,"x_max":758,"o":"m 246 -17 q 111 26 164 -17 q 58 140 58 69 q 106 256 58 207 q 242 330 154 304 q 446 356 329 356 l 446 518 q 419 575 446 554 q 350 596 393 596 q 288 582 314 596 q 263 546 263 568 q 277 515 263 528 q 292 472 292 501 q 263 408 292 436 q 194 381 235 381 q 128 408 154 381 q 101 476 101 436 q 138 561 101 524 q 238 620 174 599 q 382 642 301 642 q 565 602 493 642 q 638 499 638 563 l 638 94 q 647 72 638 82 q 669 63 656 63 q 694 72 681 63 q 731 108 707 82 l 758 76 q 585 -17 682 -17 q 495 10 528 -17 q 451 79 463 36 l 446 79 q 369 13 421 43 q 246 -17 317 -17 m 339 60 q 415 99 383 60 q 446 203 446 139 l 446 313 q 308 275 357 313 q 260 164 260 238 q 280 88 260 117 q 339 60 300 60 m 343 728 l 153 860 q 100 910 114 888 q 86 950 86 932 q 106 994 86 975 q 164 1014 125 1014 q 212 1003 188 1014 q 263 956 236 992 l 431 728 l 343 728 z "},"ả":{"ha":751,"x_min":58,"x_max":758,"o":"m 246 -17 q 111 26 164 -17 q 58 140 58 69 q 106 256 58 207 q 242 330 154 304 q 446 356 329 356 l 446 518 q 419 575 446 554 q 350 596 393 596 q 288 582 314 596 q 263 546 263 568 q 277 515 263 528 q 292 472 292 501 q 263 408 292 436 q 194 381 235 381 q 128 408 154 381 q 101 476 101 436 q 138 561 101 524 q 238 620 174 599 q 382 642 301 642 q 565 602 493 642 q 638 499 638 563 l 638 94 q 647 72 638 82 q 669 63 656 63 q 694 72 681 63 q 731 108 707 82 l 758 76 q 585 -17 682 -17 q 495 10 528 -17 q 451 79 463 36 l 446 79 q 369 13 421 43 q 246 -17 317 -17 m 339 60 q 415 99 383 60 q 446 203 446 139 l 446 313 q 308 275 357 313 q 260 164 260 238 q 280 88 260 117 q 339 60 300 60 m 368 704 q 378 762 368 740 q 403 798 389 783 q 428 826 418 813 q 439 860 439 839 q 422 898 439 883 q 375 913 406 913 q 329 898 346 913 q 313 868 313 883 q 319 847 313 851 q 334 838 326 843 q 342 813 342 832 q 324 785 342 793 q 288 776 306 776 q 244 795 263 776 q 226 844 226 814 q 247 918 226 890 q 300 959 267 946 q 375 972 333 972 q 488 943 451 972 q 525 861 525 914 q 510 797 525 818 q 474 766 494 776 q 438 743 453 756 q 422 704 422 731 l 368 704 z "},"ȃ":{"ha":751,"x_min":58,"x_max":758,"o":"m 246 -17 q 111 26 164 -17 q 58 140 58 69 q 106 256 58 207 q 242 330 154 304 q 446 356 329 356 l 446 518 q 419 575 446 554 q 350 596 393 596 q 288 582 314 596 q 263 546 263 568 q 277 515 263 528 q 292 472 292 501 q 263 408 292 436 q 194 381 235 381 q 128 408 154 381 q 101 476 101 436 q 138 561 101 524 q 238 620 174 599 q 382 642 301 642 q 565 602 493 642 q 638 499 638 563 l 638 94 q 647 72 638 82 q 669 63 656 63 q 694 72 681 63 q 731 108 707 82 l 758 76 q 585 -17 682 -17 q 495 10 528 -17 q 451 79 463 36 l 446 79 q 369 13 421 43 q 246 -17 317 -17 m 339 60 q 415 99 383 60 q 446 203 446 139 l 446 313 q 308 275 357 313 q 260 164 260 238 q 280 88 260 117 q 339 60 300 60 m 144 728 q 203 906 144 838 q 376 974 263 974 q 551 903 494 974 q 607 728 607 833 l 546 728 q 495 811 543 785 q 374 838 447 838 q 255 812 301 838 q 206 728 208 786 l 144 728 z "},"ā":{"ha":751,"x_min":58,"x_max":758,"o":"m 246 -17 q 111 26 164 -17 q 58 140 58 69 q 106 256 58 207 q 242 330 154 304 q 446 356 329 356 l 446 518 q 419 575 446 554 q 350 596 393 596 q 288 582 314 596 q 263 546 263 568 q 277 515 263 528 q 292 472 292 501 q 263 408 292 436 q 194 381 235 381 q 128 408 154 381 q 101 476 101 436 q 138 561 101 524 q 238 620 174 599 q 382 642 301 642 q 565 602 493 642 q 638 499 638 563 l 638 94 q 647 72 638 82 q 669 63 656 63 q 694 72 681 63 q 731 108 707 82 l 758 76 q 585 -17 682 -17 q 495 10 528 -17 q 451 79 463 36 l 446 79 q 369 13 421 43 q 246 -17 317 -17 m 339 60 q 415 99 383 60 q 446 203 446 139 l 446 313 q 308 275 357 313 q 260 164 260 238 q 280 88 260 117 q 339 60 300 60 m 140 771 l 140 890 l 613 890 l 613 771 l 140 771 z "},"ą":{"ha":751,"x_min":58,"x_max":758,"o":"m 246 -17 q 111 26 164 -17 q 58 140 58 69 q 106 256 58 207 q 242 330 154 304 q 446 356 329 356 l 446 518 q 419 575 446 554 q 350 596 393 596 q 288 582 314 596 q 263 546 263 568 q 277 515 263 528 q 292 472 292 501 q 263 408 292 436 q 194 381 235 381 q 128 408 154 381 q 101 476 101 436 q 138 561 101 524 q 238 620 174 599 q 382 642 301 642 q 565 602 493 642 q 638 499 638 563 l 638 94 q 647 72 638 82 q 669 63 656 63 q 694 72 681 63 q 731 108 707 82 l 758 76 q 585 -17 682 -17 q 495 10 528 -17 q 451 79 463 36 l 446 79 q 369 13 421 43 q 246 -17 317 -17 m 339 60 q 415 99 383 60 q 446 203 446 139 l 446 313 q 308 275 357 313 q 260 164 260 238 q 280 88 260 117 q 339 60 300 60 m 540 -337 q 451 -306 485 -337 q 417 -224 417 -275 q 435 -153 417 -187 q 497 -78 454 -118 q 613 14 540 -37 l 676 14 q 578 -103 614 -43 q 542 -211 542 -162 q 592 -264 542 -264 q 630 -256 611 -264 q 671 -229 649 -247 l 676 -229 l 676 -278 q 617 -322 653 -306 q 540 -337 581 -337 z "},"å":{"ha":751,"x_min":58,"x_max":758,"o":"m 246 -17 q 111 26 164 -17 q 58 140 58 69 q 106 256 58 207 q 242 330 154 304 q 446 356 329 356 l 446 518 q 419 575 446 554 q 350 596 393 596 q 288 582 314 596 q 263 546 263 568 q 277 515 263 528 q 292 472 292 501 q 263 408 292 436 q 194 381 235 381 q 128 408 154 381 q 101 476 101 436 q 138 561 101 524 q 238 620 174 599 q 382 642 301 642 q 565 602 493 642 q 638 499 638 563 l 638 94 q 647 72 638 82 q 669 63 656 63 q 694 72 681 63 q 731 108 707 82 l 758 76 q 585 -17 682 -17 q 495 10 528 -17 q 451 79 463 36 l 446 79 q 369 13 421 43 q 246 -17 317 -17 m 339 60 q 415 99 383 60 q 446 203 446 139 l 446 313 q 308 275 357 313 q 260 164 260 238 q 280 88 260 117 q 339 60 300 60 m 376 738 q 277 779 319 738 q 235 879 235 821 q 277 978 235 936 q 376 1019 319 1019 q 476 978 433 1019 q 518 879 518 938 q 476 779 518 821 q 376 738 435 738 m 376 815 q 421 834 403 815 q 439 879 439 853 q 420 922 439 904 q 376 940 401 940 q 333 922 351 940 q 314 879 314 904 q 332 835 314 854 q 376 815 350 815 z "},"ǻ":{"ha":751,"x_min":58,"x_max":758,"o":"m 246 -17 q 111 26 164 -17 q 58 140 58 69 q 106 256 58 207 q 242 330 154 304 q 446 356 329 356 l 446 518 q 419 575 446 554 q 350 596 393 596 q 288 582 314 596 q 263 546 263 568 q 277 515 263 528 q 292 472 292 501 q 263 408 292 436 q 194 381 235 381 q 128 408 154 381 q 101 476 101 436 q 138 561 101 524 q 238 620 174 599 q 382 642 301 642 q 565 602 493 642 q 638 499 638 563 l 638 94 q 647 72 638 82 q 669 63 656 63 q 694 72 681 63 q 731 108 707 82 l 758 76 q 585 -17 682 -17 q 495 10 528 -17 q 451 79 463 36 l 446 79 q 369 13 421 43 q 246 -17 317 -17 m 339 60 q 415 99 383 60 q 446 203 446 139 l 446 313 q 308 275 357 313 q 260 164 260 238 q 280 88 260 117 q 339 60 300 60 m 376 738 q 277 779 319 738 q 235 879 235 821 q 277 978 235 936 q 376 1019 319 1019 q 476 978 433 1019 q 518 879 518 938 q 476 779 518 821 q 376 738 435 738 m 376 815 q 421 834 403 815 q 439 879 439 853 q 420 922 439 904 q 376 940 401 940 q 333 922 351 940 q 314 879 314 904 q 332 835 314 854 q 376 815 350 815 m 172 1128 l 396 1272 q 456 1307 432 1296 q 510 1318 479 1318 q 562 1299 544 1318 q 579 1254 579 1279 q 565 1208 579 1231 q 506 1176 551 1186 l 260 1128 l 172 1128 z "},"ã":{"ha":751,"x_min":58,"x_max":758,"o":"m 246 -17 q 111 26 164 -17 q 58 140 58 69 q 106 256 58 207 q 242 330 154 304 q 446 356 329 356 l 446 518 q 419 575 446 554 q 350 596 393 596 q 288 582 314 596 q 263 546 263 568 q 277 515 263 528 q 292 472 292 501 q 263 408 292 436 q 194 381 235 381 q 128 408 154 381 q 101 476 101 436 q 138 561 101 524 q 238 620 174 599 q 382 642 301 642 q 565 602 493 642 q 638 499 638 563 l 638 94 q 647 72 638 82 q 669 63 656 63 q 694 72 681 63 q 731 108 707 82 l 758 76 q 585 -17 682 -17 q 495 10 528 -17 q 451 79 463 36 l 446 79 q 369 13 421 43 q 246 -17 317 -17 m 339 60 q 415 99 383 60 q 446 203 446 139 l 446 313 q 308 275 357 313 q 260 164 260 238 q 280 88 260 117 q 339 60 300 60 m 104 736 q 138 826 113 783 q 202 898 163 869 q 296 926 242 926 q 365 913 333 926 q 425 885 396 899 q 486 871 454 871 q 565 890 539 871 q 601 926 592 908 l 649 926 q 614 836 638 879 q 551 765 590 793 q 456 738 513 738 q 386 751 417 738 q 327 779 356 765 q 265 793 299 793 q 190 777 221 793 q 150 736 160 761 l 104 736 z "},"æ":{"ha":1106,"x_min":58,"x_max":1057,"o":"m 775 -18 q 615 29 686 -18 q 504 153 544 76 q 464 317 464 231 q 500 472 464 397 q 604 594 536 546 q 768 642 672 642 q 910 608 846 642 q 1014 513 975 575 q 1053 367 1053 451 l 1053 351 l 571 351 l 571 393 l 857 393 l 857 478 q 757 597 857 597 q 688 571 714 597 q 649 481 661 544 q 638 308 638 418 q 650 135 638 196 q 693 53 663 75 q 776 31 724 31 q 910 67 850 31 q 1011 192 971 103 l 1057 192 q 997 83 1039 131 q 899 8 956 35 q 775 -18 842 -18 m 339 60 q 415 99 383 60 q 446 203 446 139 l 446 313 q 308 275 357 313 q 260 164 260 238 q 280 88 260 117 q 339 60 300 60 m 250 -17 q 111 26 164 -17 q 58 140 58 69 q 106 256 58 207 q 242 330 154 304 q 446 356 329 356 l 446 518 q 419 575 446 554 q 350 596 393 596 q 288 582 314 596 q 263 546 263 568 q 277 515 263 528 q 292 472 292 501 q 263 408 292 436 q 194 381 235 381 q 128 408 154 381 q 101 476 101 436 q 138 561 101 524 q 238 620 174 599 q 382 642 301 642 q 565 602 493 642 q 638 499 638 563 l 638 94 l 501 160 l 496 160 q 402 27 469 71 q 250 -17 335 -17 z "},"ǽ":{"ha":1106,"x_min":58,"x_max":1057,"o":"m 775 -18 q 615 29 686 -18 q 504 153 544 76 q 464 317 464 231 q 500 472 464 397 q 604 594 536 546 q 768 642 672 642 q 910 608 846 642 q 1014 513 975 575 q 1053 367 1053 451 l 1053 351 l 571 351 l 571 393 l 857 393 l 857 478 q 757 597 857 597 q 688 571 714 597 q 649 481 661 544 q 638 308 638 418 q 650 135 638 196 q 693 53 663 75 q 776 31 724 31 q 910 67 850 31 q 1011 192 971 103 l 1057 192 q 997 83 1039 131 q 899 8 956 35 q 775 -18 842 -18 m 339 60 q 415 99 383 60 q 446 203 446 139 l 446 313 q 308 275 357 313 q 260 164 260 238 q 280 88 260 117 q 339 60 300 60 m 250 -17 q 111 26 164 -17 q 58 140 58 69 q 106 256 58 207 q 242 330 154 304 q 446 356 329 356 l 446 518 q 419 575 446 554 q 350 596 393 596 q 288 582 314 596 q 263 546 263 568 q 277 515 263 528 q 292 472 292 501 q 263 408 292 436 q 194 381 235 381 q 128 408 154 381 q 101 476 101 436 q 138 561 101 524 q 238 620 174 599 q 382 642 301 642 q 565 602 493 642 q 638 499 638 563 l 638 94 l 501 160 l 496 160 q 402 27 469 71 q 250 -17 335 -17 m 525 728 l 693 956 q 744 1003 719 992 q 792 1014 768 1014 q 851 994 832 1014 q 869 950 869 975 q 856 910 869 932 q 803 860 843 888 l 613 728 l 525 728 z "},"b":{"ha":875,"x_min":28,"x_max":813,"o":"m 522 -17 q 410 11 458 -17 q 338 81 361 39 l 304 81 l 332 292 q 378 99 332 161 q 492 38 424 38 q 551 59 528 38 q 586 140 575 81 q 597 310 597 199 q 585 483 597 424 q 550 565 574 543 q 490 588 526 588 q 377 525 422 588 q 332 333 332 463 l 304 544 l 338 544 q 410 614 361 586 q 524 642 460 642 q 666 601 600 642 q 772 485 732 560 q 813 313 813 411 q 772 140 813 214 q 665 24 731 65 q 522 -17 599 -17 m 28 0 l 28 42 l 332 42 l 332 0 l 28 0 m 140 21 l 140 1025 l 332 1025 l 332 21 l 140 21 m 28 1006 l 28 1047 l 332 1047 l 332 1006 l 28 1006 z "},"c":{"ha":722,"x_min":63,"x_max":681,"o":"m 406 -18 q 272 10 335 -18 q 163 85 210 38 q 89 191 115 132 q 63 314 63 250 q 88 433 63 375 q 160 539 114 492 q 269 614 206 586 q 407 642 332 642 q 529 619 474 642 q 618 559 585 597 q 651 471 651 521 q 620 395 651 422 q 542 368 589 368 q 469 393 497 368 q 442 460 442 418 q 452 501 442 488 q 472 526 463 515 q 482 554 482 538 q 463 586 482 575 q 413 597 444 597 q 342 574 372 597 q 294 485 311 550 q 278 292 278 419 q 291 131 278 189 q 335 51 304 74 q 418 29 367 29 q 545 71 493 29 q 635 206 597 113 l 681 206 q 583 44 653 106 q 406 -18 513 -18 z "},"ć":{"ha":722,"x_min":63,"x_max":681,"o":"m 406 -18 q 272 10 335 -18 q 163 85 210 38 q 89 191 115 132 q 63 314 63 250 q 88 433 63 375 q 160 539 114 492 q 269 614 206 586 q 407 642 332 642 q 529 619 474 642 q 618 559 585 597 q 651 471 651 521 q 620 395 651 422 q 542 368 589 368 q 469 393 497 368 q 442 460 442 418 q 452 501 442 488 q 472 526 463 515 q 482 554 482 538 q 463 586 482 575 q 413 597 444 597 q 342 574 372 597 q 294 485 311 550 q 278 292 278 419 q 291 131 278 189 q 335 51 304 74 q 418 29 367 29 q 545 71 493 29 q 635 206 597 113 l 681 206 q 583 44 653 106 q 406 -18 513 -18 m 333 728 l 501 956 q 552 1003 528 992 q 600 1014 576 1014 q 659 994 640 1014 q 678 950 678 975 q 665 910 678 932 q 611 860 651 888 l 421 728 l 333 728 z "},"č":{"ha":722,"x_min":63,"x_max":681,"o":"m 406 -18 q 272 10 335 -18 q 163 85 210 38 q 89 191 115 132 q 63 314 63 250 q 88 433 63 375 q 160 539 114 492 q 269 614 206 586 q 407 642 332 642 q 529 619 474 642 q 618 559 585 597 q 651 471 651 521 q 620 395 651 422 q 542 368 589 368 q 469 393 497 368 q 442 460 442 418 q 452 501 442 488 q 472 526 463 515 q 482 554 482 538 q 463 586 482 575 q 413 597 444 597 q 342 574 372 597 q 294 485 311 550 q 278 292 278 419 q 291 131 278 189 q 335 51 304 74 q 418 29 367 29 q 545 71 493 29 q 635 206 597 113 l 681 206 q 583 44 653 106 q 406 -18 513 -18 m 346 728 l 136 1006 l 196 1006 l 389 886 l 582 1006 l 642 1006 l 432 728 l 346 728 z "},"ç":{"ha":722,"x_min":63,"x_max":681,"o":"m 406 -18 q 272 10 335 -18 q 163 85 210 38 q 89 191 115 132 q 63 314 63 250 q 88 433 63 375 q 160 539 114 492 q 269 614 206 586 q 407 642 332 642 q 529 619 474 642 q 618 559 585 597 q 651 471 651 521 q 620 395 651 422 q 542 368 589 368 q 469 393 497 368 q 442 460 442 418 q 452 501 442 488 q 472 526 463 515 q 482 554 482 538 q 463 586 482 575 q 413 597 444 597 q 342 574 372 597 q 294 485 311 550 q 278 292 278 419 q 291 131 278 189 q 335 51 304 74 q 418 29 367 29 q 545 71 493 29 q 635 206 597 113 l 681 206 q 583 44 653 106 q 406 -18 513 -18 m 313 -326 q 242 -318 271 -326 q 201 -303 213 -310 l 217 -256 q 251 -266 228 -261 q 294 -271 274 -271 q 356 -256 333 -271 q 378 -208 378 -240 q 267 -139 378 -140 l 321 14 l 383 14 l 350 -92 l 376 -92 q 481 -117 442 -92 q 521 -192 521 -143 q 464 -291 521 -256 q 313 -326 407 -326 z "},"ĉ":{"ha":722,"x_min":63,"x_max":681,"o":"m 406 -18 q 272 10 335 -18 q 163 85 210 38 q 89 191 115 132 q 63 314 63 250 q 88 433 63 375 q 160 539 114 492 q 269 614 206 586 q 407 642 332 642 q 529 619 474 642 q 618 559 585 597 q 651 471 651 521 q 620 395 651 422 q 542 368 589 368 q 469 393 497 368 q 442 460 442 418 q 452 501 442 488 q 472 526 463 515 q 482 554 482 538 q 463 586 482 575 q 413 597 444 597 q 342 574 372 597 q 294 485 311 550 q 278 292 278 419 q 291 131 278 189 q 335 51 304 74 q 418 29 367 29 q 545 71 493 29 q 635 206 597 113 l 681 206 q 583 44 653 106 q 406 -18 513 -18 m 136 728 l 346 1006 l 432 1006 l 642 728 l 582 728 l 389 847 l 196 728 l 136 728 z "},"ċ":{"ha":722,"x_min":63,"x_max":681,"o":"m 406 -18 q 272 10 335 -18 q 163 85 210 38 q 89 191 115 132 q 63 314 63 250 q 88 433 63 375 q 160 539 114 492 q 269 614 206 586 q 407 642 332 642 q 529 619 474 642 q 618 559 585 597 q 651 471 651 521 q 620 395 651 422 q 542 368 589 368 q 469 393 497 368 q 442 460 442 418 q 452 501 442 488 q 472 526 463 515 q 482 554 482 538 q 463 586 482 575 q 413 597 444 597 q 342 574 372 597 q 294 485 311 550 q 278 292 278 419 q 291 131 278 189 q 335 51 304 74 q 418 29 367 29 q 545 71 493 29 q 635 206 597 113 l 681 206 q 583 44 653 106 q 406 -18 513 -18 m 388 768 q 310 801 343 768 q 276 879 276 835 q 310 958 276 925 q 388 992 343 992 q 467 958 433 992 q 500 879 500 925 q 467 801 500 835 q 388 768 433 768 z "},"d":{"ha":876,"x_min":63,"x_max":849,"o":"m 354 -17 q 214 24 281 -17 q 105 140 147 65 q 63 313 63 214 q 104 485 63 411 q 213 601 146 560 q 353 642 279 642 q 467 614 418 642 q 539 544 517 586 l 572 544 l 544 333 q 499 526 544 465 q 385 588 454 588 q 324 565 347 588 q 289 483 300 543 q 278 311 278 424 q 288 140 278 200 q 322 59 299 81 q 383 38 346 38 q 499 99 453 38 q 544 292 544 160 l 572 81 l 539 81 q 468 11 517 39 q 354 -17 419 -17 m 544 0 l 544 42 l 849 42 l 849 0 l 544 0 m 544 21 l 544 1025 l 736 1025 l 736 21 l 544 21 m 407 1006 l 407 1047 l 736 1047 l 736 1006 l 407 1006 z "},"ð":{"ha":961,"x_min":90,"x_max":864,"o":"m 471 -15 q 326 10 394 -15 q 204 83 257 36 q 121 192 151 129 q 90 326 90 254 q 139 477 90 411 q 267 581 188 543 q 436 619 346 619 q 528 608 490 619 q 600 572 567 596 l 604 574 q 558 775 597 689 q 456 914 519 861 q 313 979 393 967 l 326 1019 q 530 966 433 1015 q 701 834 626 917 q 820 644 776 751 q 864 418 864 538 q 810 186 864 283 q 667 37 757 89 q 471 -15 578 -15 m 482 33 q 569 59 536 33 q 616 146 601 85 q 631 310 631 207 q 629 392 631 346 q 617 479 628 438 q 560 540 596 515 q 469 564 524 564 q 400 544 431 564 q 351 467 369 524 q 333 301 333 411 q 348 144 333 203 q 395 59 363 85 q 482 33 428 33 m 369 732 l 339 792 l 817 993 l 846 933 l 369 732 z "},"ď":{"ha":876,"x_min":63,"x_max":1032,"o":"m 354 -17 q 214 24 281 -17 q 105 140 147 65 q 63 313 63 214 q 104 485 63 411 q 213 601 146 560 q 353 642 279 642 q 467 614 418 642 q 539 544 517 586 l 572 544 l 544 333 q 499 526 544 465 q 385 588 454 588 q 324 565 347 588 q 289 483 300 543 q 278 311 278 424 q 288 140 278 200 q 322 59 299 81 q 383 38 346 38 q 499 99 453 38 q 544 292 544 160 l 572 81 l 539 81 q 468 11 517 39 q 354 -17 419 -17 m 544 0 l 544 42 l 849 42 l 849 0 l 544 0 m 544 21 l 544 1025 l 736 1025 l 736 21 l 544 21 m 407 1006 l 407 1047 l 736 1047 l 736 1006 l 407 1006 m 879 676 l 851 707 q 942 793 913 751 q 971 883 971 835 q 967 910 971 904 q 958 917 963 917 q 942 906 950 917 q 922 883 935 894 q 882 872 908 872 q 822 901 843 872 q 801 965 801 931 q 833 1041 801 1010 q 911 1072 864 1072 q 1001 1024 971 1072 q 1032 910 1032 975 q 990 778 1032 833 q 879 676 949 724 z "},"đ":{"ha":876,"x_min":63,"x_max":889,"o":"m 354 -17 q 214 24 281 -17 q 105 140 147 65 q 63 313 63 214 q 104 485 63 411 q 213 601 146 560 q 353 642 279 642 q 467 614 418 642 q 539 544 517 586 l 572 544 l 544 333 q 499 526 544 465 q 385 588 454 588 q 324 565 347 588 q 289 483 300 543 q 278 311 278 424 q 288 140 278 200 q 322 59 299 81 q 383 38 346 38 q 499 99 453 38 q 544 292 544 160 l 572 81 l 539 81 q 468 11 517 39 q 354 -17 419 -17 m 544 0 l 544 42 l 849 42 l 849 0 l 544 0 m 544 21 l 544 1025 l 736 1025 l 736 21 l 544 21 m 407 1006 l 407 1047 l 736 1047 l 736 1006 l 407 1006 m 340 783 l 340 849 l 889 849 l 889 783 l 340 783 z "},"ḍ":{"ha":876,"x_min":63,"x_max":849,"o":"m 354 -17 q 214 24 281 -17 q 105 140 147 65 q 63 313 63 214 q 104 485 63 411 q 213 601 146 560 q 353 642 279 642 q 467 614 418 642 q 539 544 517 586 l 572 544 l 544 333 q 499 526 544 465 q 385 588 454 588 q 324 565 347 588 q 289 483 300 543 q 278 311 278 424 q 288 140 278 200 q 322 59 299 81 q 383 38 346 38 q 499 99 453 38 q 544 292 544 160 l 572 81 l 539 81 q 468 11 517 39 q 354 -17 419 -17 m 544 0 l 544 42 l 849 42 l 849 0 l 544 0 m 544 21 l 544 1025 l 736 1025 l 736 21 l 544 21 m 407 1006 l 407 1047 l 736 1047 l 736 1006 l 407 1006 m 438 -361 q 360 -328 393 -361 q 326 -250 326 -294 q 360 -171 326 -204 q 438 -137 393 -137 q 517 -171 483 -137 q 550 -250 550 -204 q 517 -328 550 -294 q 438 -361 483 -361 z "},"ǳ":{"ha":1538,"x_min":63,"x_max":1496,"o":"m 354 -17 q 214 24 281 -17 q 105 140 147 65 q 63 313 63 214 q 104 485 63 411 q 213 601 146 560 q 353 642 279 642 q 467 614 418 642 q 539 544 517 586 l 572 544 l 544 333 q 499 526 544 465 q 385 588 454 588 q 324 565 347 588 q 289 483 300 543 q 278 311 278 424 q 288 140 278 200 q 322 59 299 81 q 383 38 346 38 q 499 99 453 38 q 544 292 544 160 l 572 81 l 539 81 q 468 11 517 39 q 354 -17 419 -17 m 544 0 l 544 42 l 849 42 l 849 0 l 544 0 m 544 21 l 544 1025 l 736 1025 l 736 21 l 544 21 m 407 1006 l 407 1047 l 736 1047 l 736 1006 l 407 1006 m 915 21 l 911 49 l 1297 613 l 1476 613 l 1496 578 l 1119 21 l 915 21 m 911 0 l 911 49 l 922 42 l 1254 42 q 1386 90 1332 42 q 1444 235 1440 139 l 1446 257 l 1488 257 l 1488 0 l 911 0 m 956 382 l 956 625 l 1496 625 l 1496 578 l 1485 583 l 1189 583 q 1087 556 1129 583 q 1022 483 1044 528 q 997 382 999 438 l 956 382 z "},"ǆ":{"ha":1538,"x_min":63,"x_max":1496,"o":"m 354 -17 q 214 24 281 -17 q 105 140 147 65 q 63 313 63 214 q 104 485 63 411 q 213 601 146 560 q 353 642 279 642 q 467 614 418 642 q 539 544 517 586 l 572 544 l 544 333 q 499 526 544 465 q 385 588 454 588 q 324 565 347 588 q 289 483 300 543 q 278 311 278 424 q 288 140 278 200 q 322 59 299 81 q 383 38 346 38 q 499 99 453 38 q 544 292 544 160 l 572 81 l 539 81 q 468 11 517 39 q 354 -17 419 -17 m 544 0 l 544 42 l 849 42 l 849 0 l 544 0 m 544 21 l 544 1025 l 736 1025 l 736 21 l 544 21 m 407 1006 l 407 1047 l 736 1047 l 736 1006 l 407 1006 m 915 21 l 911 49 l 1297 613 l 1476 613 l 1496 578 l 1119 21 l 915 21 m 911 0 l 911 49 l 922 42 l 1254 42 q 1386 90 1332 42 q 1444 235 1440 139 l 1446 257 l 1488 257 l 1488 0 l 911 0 m 956 382 l 956 625 l 1496 625 l 1496 578 l 1485 583 l 1189 583 q 1087 556 1129 583 q 1022 483 1044 528 q 997 382 999 438 l 956 382 m 1164 728 l 954 1006 l 1014 1006 l 1207 886 l 1400 1006 l 1460 1006 l 1250 728 l 1164 728 z "},"e":{"ha":746,"x_min":63,"x_max":697,"o":"m 410 -18 q 274 10 338 -18 q 163 85 211 38 q 89 192 115 132 q 63 317 63 251 q 104 472 63 397 q 222 594 146 546 q 401 642 299 642 q 551 608 485 642 q 655 513 617 575 q 693 367 693 451 l 693 351 l 211 351 l 211 393 l 497 393 l 497 478 q 397 597 497 597 q 328 571 354 597 q 290 481 301 544 q 278 308 278 418 q 290 135 278 196 q 333 53 303 75 q 417 31 364 31 q 551 67 490 31 q 651 192 611 103 l 697 192 q 591 39 668 96 q 410 -18 514 -18 z "},"é":{"ha":746,"x_min":63,"x_max":697,"o":"m 410 -18 q 274 10 338 -18 q 163 85 211 38 q 89 192 115 132 q 63 317 63 251 q 104 472 63 397 q 222 594 146 546 q 401 642 299 642 q 551 608 485 642 q 655 513 617 575 q 693 367 693 451 l 693 351 l 211 351 l 211 393 l 497 393 l 497 478 q 397 597 497 597 q 328 571 354 597 q 290 481 301 544 q 278 308 278 418 q 290 135 278 196 q 333 53 303 75 q 417 31 364 31 q 551 67 490 31 q 651 192 611 103 l 697 192 q 591 39 668 96 q 410 -18 514 -18 m 346 728 l 514 956 q 565 1003 540 992 q 613 1014 589 1014 q 672 994 653 1014 q 690 950 690 975 q 677 910 690 932 q 624 860 664 888 l 433 728 l 346 728 z "},"ĕ":{"ha":746,"x_min":63,"x_max":697,"o":"m 410 -18 q 274 10 338 -18 q 163 85 211 38 q 89 192 115 132 q 63 317 63 251 q 104 472 63 397 q 222 594 146 546 q 401 642 299 642 q 551 608 485 642 q 655 513 617 575 q 693 367 693 451 l 693 351 l 211 351 l 211 393 l 497 393 l 497 478 q 397 597 497 597 q 328 571 354 597 q 290 481 301 544 q 278 308 278 418 q 290 135 278 196 q 333 53 303 75 q 417 31 364 31 q 551 67 490 31 q 651 192 611 103 l 697 192 q 591 39 668 96 q 410 -18 514 -18 m 401 728 q 253 781 308 728 q 197 918 197 833 l 258 918 q 304 871 261 885 q 399 857 347 857 q 496 872 451 857 q 543 918 540 888 l 604 918 q 581 822 604 865 q 512 753 557 778 q 401 728 467 728 z "},"ě":{"ha":746,"x_min":63,"x_max":697,"o":"m 410 -18 q 274 10 338 -18 q 163 85 211 38 q 89 192 115 132 q 63 317 63 251 q 104 472 63 397 q 222 594 146 546 q 401 642 299 642 q 551 608 485 642 q 655 513 617 575 q 693 367 693 451 l 693 351 l 211 351 l 211 393 l 497 393 l 497 478 q 397 597 497 597 q 328 571 354 597 q 290 481 301 544 q 278 308 278 418 q 290 135 278 196 q 333 53 303 75 q 417 31 364 31 q 551 67 490 31 q 651 192 611 103 l 697 192 q 591 39 668 96 q 410 -18 514 -18 m 358 728 l 149 1006 l 208 1006 l 401 886 l 594 1006 l 654 1006 l 444 728 l 358 728 z "},"ê":{"ha":746,"x_min":63,"x_max":697,"o":"m 410 -18 q 274 10 338 -18 q 163 85 211 38 q 89 192 115 132 q 63 317 63 251 q 104 472 63 397 q 222 594 146 546 q 401 642 299 642 q 551 608 485 642 q 655 513 617 575 q 693 367 693 451 l 693 351 l 211 351 l 211 393 l 497 393 l 497 478 q 397 597 497 597 q 328 571 354 597 q 290 481 301 544 q 278 308 278 418 q 290 135 278 196 q 333 53 303 75 q 417 31 364 31 q 551 67 490 31 q 651 192 611 103 l 697 192 q 591 39 668 96 q 410 -18 514 -18 m 149 728 l 358 1006 l 444 1006 l 654 728 l 594 728 l 401 847 l 208 728 l 149 728 z "},"ế":{"ha":746,"x_min":63,"x_max":697,"o":"m 410 -18 q 274 10 338 -18 q 163 85 211 38 q 89 192 115 132 q 63 317 63 251 q 104 472 63 397 q 222 594 146 546 q 401 642 299 642 q 551 608 485 642 q 655 513 617 575 q 693 367 693 451 l 693 351 l 211 351 l 211 393 l 497 393 l 497 478 q 397 597 497 597 q 328 571 354 597 q 290 481 301 544 q 278 308 278 418 q 290 135 278 196 q 333 53 303 75 q 417 31 364 31 q 551 67 490 31 q 651 192 611 103 l 697 192 q 591 39 668 96 q 410 -18 514 -18 m 163 726 l 358 888 l 444 888 l 640 726 l 567 726 l 401 785 l 236 726 l 163 726 m 197 938 l 421 1082 q 481 1117 457 1106 q 535 1128 504 1128 q 587 1108 569 1128 q 604 1064 604 1089 q 590 1018 604 1040 q 531 986 576 996 l 285 938 l 197 938 z "},"ệ":{"ha":746,"x_min":63,"x_max":697,"o":"m 410 -18 q 274 10 338 -18 q 163 85 211 38 q 89 192 115 132 q 63 317 63 251 q 104 472 63 397 q 222 594 146 546 q 401 642 299 642 q 551 608 485 642 q 655 513 617 575 q 693 367 693 451 l 693 351 l 211 351 l 211 393 l 497 393 l 497 478 q 397 597 497 597 q 328 571 354 597 q 290 481 301 544 q 278 308 278 418 q 290 135 278 196 q 333 53 303 75 q 417 31 364 31 q 551 67 490 31 q 651 192 611 103 l 697 192 q 591 39 668 96 q 410 -18 514 -18 m 372 -361 q 294 -328 328 -361 q 261 -250 261 -294 q 294 -171 261 -204 q 372 -137 328 -137 q 451 -171 418 -137 q 485 -250 485 -204 q 451 -328 485 -294 q 372 -361 418 -361 m 149 728 l 358 1006 l 444 1006 l 654 728 l 594 728 l 401 847 l 208 728 l 149 728 z "},"ề":{"ha":746,"x_min":63,"x_max":697,"o":"m 410 -18 q 274 10 338 -18 q 163 85 211 38 q 89 192 115 132 q 63 317 63 251 q 104 472 63 397 q 222 594 146 546 q 401 642 299 642 q 551 608 485 642 q 655 513 617 575 q 693 367 693 451 l 693 351 l 211 351 l 211 393 l 497 393 l 497 478 q 397 597 497 597 q 328 571 354 597 q 290 481 301 544 q 278 308 278 418 q 290 135 278 196 q 333 53 303 75 q 417 31 364 31 q 551 67 490 31 q 651 192 611 103 l 697 192 q 591 39 668 96 q 410 -18 514 -18 m 163 726 l 358 888 l 444 888 l 640 726 l 567 726 l 401 785 l 236 726 l 163 726 m 517 947 l 271 996 q 211 1028 225 1006 q 197 1074 197 1050 q 215 1118 197 1099 q 267 1138 232 1138 q 321 1126 297 1138 q 381 1092 344 1115 l 604 947 l 517 947 z "},"ể":{"ha":746,"x_min":63,"x_max":740,"o":"m 410 -18 q 274 10 338 -18 q 163 85 211 38 q 89 192 115 132 q 63 317 63 251 q 104 472 63 397 q 222 594 146 546 q 401 642 299 642 q 551 608 485 642 q 655 513 617 575 q 693 367 693 451 l 693 351 l 211 351 l 211 393 l 497 393 l 497 478 q 397 597 497 597 q 328 571 354 597 q 290 481 301 544 q 278 308 278 418 q 290 135 278 196 q 333 53 303 75 q 417 31 364 31 q 551 67 490 31 q 651 192 611 103 l 697 192 q 591 39 668 96 q 410 -18 514 -18 m 163 726 l 358 888 l 444 888 l 640 726 l 567 726 l 401 785 l 236 726 l 163 726 m 583 890 q 594 949 583 926 q 619 985 604 971 q 644 1009 633 999 q 654 1032 654 1019 q 638 1082 654 1065 q 590 1099 621 1099 q 544 1084 561 1099 q 528 1054 528 1069 q 535 1033 528 1038 q 550 1024 543 1029 q 557 999 557 1018 q 539 971 557 979 q 503 963 521 963 q 460 981 478 963 q 442 1031 442 1000 q 461 1104 442 1076 q 515 1145 481 1132 q 590 1158 549 1158 q 703 1126 667 1158 q 740 1019 740 1093 q 725 972 740 988 q 689 949 710 957 q 653 928 668 940 q 638 890 638 917 l 583 890 z "},"ễ":{"ha":746,"x_min":63,"x_max":697,"o":"m 410 -18 q 274 10 338 -18 q 163 85 211 38 q 89 192 115 132 q 63 317 63 251 q 104 472 63 397 q 222 594 146 546 q 401 642 299 642 q 551 608 485 642 q 655 513 617 575 q 693 367 693 451 l 693 351 l 211 351 l 211 393 l 497 393 l 497 478 q 397 597 497 597 q 328 571 354 597 q 290 481 301 544 q 278 308 278 418 q 290 135 278 196 q 333 53 303 75 q 417 31 364 31 q 551 67 490 31 q 651 192 611 103 l 697 192 q 591 39 668 96 q 410 -18 514 -18 m 163 726 l 358 888 l 444 888 l 640 726 l 567 726 l 401 785 l 236 726 l 163 726 m 129 971 q 163 1061 138 1018 q 227 1133 188 1104 q 321 1161 267 1161 q 390 1147 358 1161 q 450 1119 421 1133 q 511 1106 479 1106 q 590 1124 564 1106 q 626 1161 617 1143 l 674 1161 q 639 1071 663 1114 q 576 1000 615 1028 q 481 972 538 972 q 411 986 442 972 q 352 1014 381 1000 q 290 1028 324 1028 q 215 1012 246 1028 q 175 971 185 996 l 129 971 z "},"ȅ":{"ha":746,"x_min":-7,"x_max":697,"o":"m 410 -18 q 274 10 338 -18 q 163 85 211 38 q 89 192 115 132 q 63 317 63 251 q 104 472 63 397 q 222 594 146 546 q 401 642 299 642 q 551 608 485 642 q 655 513 617 575 q 693 367 693 451 l 693 351 l 211 351 l 211 393 l 497 393 l 497 478 q 397 597 497 597 q 328 571 354 597 q 290 481 301 544 q 278 308 278 418 q 290 135 278 196 q 333 53 303 75 q 417 31 364 31 q 551 67 490 31 q 651 192 611 103 l 697 192 q 591 39 668 96 q 410 -18 514 -18 m 528 728 l 338 860 q 285 910 299 888 q 271 950 271 932 q 290 994 271 975 q 349 1014 310 1014 q 397 1003 372 1014 q 447 956 421 992 l 615 728 l 528 728 m 250 728 l 60 860 q 7 910 21 888 q -7 950 -7 932 q 13 994 -7 975 q 71 1014 32 1014 q 119 1003 94 1014 q 169 956 143 992 l 338 728 l 250 728 z "},"ë":{"ha":746,"x_min":63,"x_max":697,"o":"m 410 -18 q 274 10 338 -18 q 163 85 211 38 q 89 192 115 132 q 63 317 63 251 q 104 472 63 397 q 222 594 146 546 q 401 642 299 642 q 551 608 485 642 q 655 513 617 575 q 693 367 693 451 l 693 351 l 211 351 l 211 393 l 497 393 l 497 478 q 397 597 497 597 q 328 571 354 597 q 290 481 301 544 q 278 308 278 418 q 290 135 278 196 q 333 53 303 75 q 417 31 364 31 q 551 67 490 31 q 651 192 611 103 l 697 192 q 591 39 668 96 q 410 -18 514 -18 m 533 779 q 469 806 496 779 q 442 871 442 833 q 469 935 442 908 q 533 963 496 963 q 598 935 571 963 q 625 871 625 908 q 598 806 625 833 q 533 779 571 779 m 269 779 q 205 806 232 779 q 178 871 178 833 q 205 935 178 908 q 269 963 232 963 q 334 935 307 963 q 361 871 361 908 q 334 806 361 833 q 269 779 307 779 z "},"ė":{"ha":746,"x_min":63,"x_max":697,"o":"m 410 -18 q 274 10 338 -18 q 163 85 211 38 q 89 192 115 132 q 63 317 63 251 q 104 472 63 397 q 222 594 146 546 q 401 642 299 642 q 551 608 485 642 q 655 513 617 575 q 693 367 693 451 l 693 351 l 211 351 l 211 393 l 497 393 l 497 478 q 397 597 497 597 q 328 571 354 597 q 290 481 301 544 q 278 308 278 418 q 290 135 278 196 q 333 53 303 75 q 417 31 364 31 q 551 67 490 31 q 651 192 611 103 l 697 192 q 591 39 668 96 q 410 -18 514 -18 m 400 768 q 322 801 356 768 q 289 879 289 835 q 322 958 289 925 q 400 992 356 992 q 479 958 446 992 q 513 879 513 925 q 479 801 513 835 q 400 768 446 768 z "},"ẹ":{"ha":746,"x_min":63,"x_max":697,"o":"m 410 -18 q 274 10 338 -18 q 163 85 211 38 q 89 192 115 132 q 63 317 63 251 q 104 472 63 397 q 222 594 146 546 q 401 642 299 642 q 551 608 485 642 q 655 513 617 575 q 693 367 693 451 l 693 351 l 211 351 l 211 393 l 497 393 l 497 478 q 397 597 497 597 q 328 571 354 597 q 290 481 301 544 q 278 308 278 418 q 290 135 278 196 q 333 53 303 75 q 417 31 364 31 q 551 67 490 31 q 651 192 611 103 l 697 192 q 591 39 668 96 q 410 -18 514 -18 m 372 -361 q 294 -328 328 -361 q 261 -250 261 -294 q 294 -171 261 -204 q 372 -137 328 -137 q 451 -171 418 -137 q 485 -250 485 -204 q 451 -328 485 -294 q 372 -361 418 -361 z "},"è":{"ha":746,"x_min":63,"x_max":697,"o":"m 410 -18 q 274 10 338 -18 q 163 85 211 38 q 89 192 115 132 q 63 317 63 251 q 104 472 63 397 q 222 594 146 546 q 401 642 299 642 q 551 608 485 642 q 655 513 617 575 q 693 367 693 451 l 693 351 l 211 351 l 211 393 l 497 393 l 497 478 q 397 597 497 597 q 328 571 354 597 q 290 481 301 544 q 278 308 278 418 q 290 135 278 196 q 333 53 303 75 q 417 31 364 31 q 551 67 490 31 q 651 192 611 103 l 697 192 q 591 39 668 96 q 410 -18 514 -18 m 368 728 l 178 860 q 125 910 139 888 q 111 950 111 932 q 131 994 111 975 q 189 1014 150 1014 q 237 1003 213 1014 q 288 956 261 992 l 456 728 l 368 728 z "},"ẻ":{"ha":746,"x_min":63,"x_max":697,"o":"m 410 -18 q 274 10 338 -18 q 163 85 211 38 q 89 192 115 132 q 63 317 63 251 q 104 472 63 397 q 222 594 146 546 q 401 642 299 642 q 551 608 485 642 q 655 513 617 575 q 693 367 693 451 l 693 351 l 211 351 l 211 393 l 497 393 l 497 478 q 397 597 497 597 q 328 571 354 597 q 290 481 301 544 q 278 308 278 418 q 290 135 278 196 q 333 53 303 75 q 417 31 364 31 q 551 67 490 31 q 651 192 611 103 l 697 192 q 591 39 668 96 q 410 -18 514 -18 m 393 704 q 403 762 393 740 q 428 798 414 783 q 453 826 443 813 q 464 860 464 839 q 447 898 464 883 q 400 913 431 913 q 354 898 371 913 q 338 868 338 883 q 344 847 338 851 q 359 838 351 843 q 367 813 367 832 q 349 785 367 793 q 313 776 331 776 q 269 795 288 776 q 251 844 251 814 q 272 918 251 890 q 325 959 292 946 q 400 972 358 972 q 513 943 476 972 q 550 861 550 914 q 535 797 550 818 q 499 766 519 776 q 463 743 478 756 q 447 704 447 731 l 393 704 z "},"ȇ":{"ha":746,"x_min":63,"x_max":697,"o":"m 410 -18 q 274 10 338 -18 q 163 85 211 38 q 89 192 115 132 q 63 317 63 251 q 104 472 63 397 q 222 594 146 546 q 401 642 299 642 q 551 608 485 642 q 655 513 617 575 q 693 367 693 451 l 693 351 l 211 351 l 211 393 l 497 393 l 497 478 q 397 597 497 597 q 328 571 354 597 q 290 481 301 544 q 278 308 278 418 q 290 135 278 196 q 333 53 303 75 q 417 31 364 31 q 551 67 490 31 q 651 192 611 103 l 697 192 q 591 39 668 96 q 410 -18 514 -18 m 169 728 q 228 906 169 838 q 401 974 288 974 q 576 903 519 974 q 632 728 632 833 l 571 728 q 520 811 568 785 q 399 838 472 838 q 280 812 326 838 q 231 728 233 786 l 169 728 z "},"ē":{"ha":746,"x_min":63,"x_max":697,"o":"m 410 -18 q 274 10 338 -18 q 163 85 211 38 q 89 192 115 132 q 63 317 63 251 q 104 472 63 397 q 222 594 146 546 q 401 642 299 642 q 551 608 485 642 q 655 513 617 575 q 693 367 693 451 l 693 351 l 211 351 l 211 393 l 497 393 l 497 478 q 397 597 497 597 q 328 571 354 597 q 290 481 301 544 q 278 308 278 418 q 290 135 278 196 q 333 53 303 75 q 417 31 364 31 q 551 67 490 31 q 651 192 611 103 l 697 192 q 591 39 668 96 q 410 -18 514 -18 m 165 771 l 165 890 l 638 890 l 638 771 l 165 771 z "},"ę":{"ha":746,"x_min":63,"x_max":697,"o":"m 410 -18 q 274 10 338 -18 q 163 85 211 38 q 89 192 115 132 q 63 317 63 251 q 104 472 63 397 q 222 594 146 546 q 401 642 299 642 q 551 608 485 642 q 655 513 617 575 q 693 367 693 451 l 693 351 l 211 351 l 211 393 l 497 393 l 497 478 q 397 597 497 597 q 328 571 354 597 q 290 481 301 544 q 278 308 278 418 q 290 135 278 196 q 333 53 303 75 q 417 31 364 31 q 551 67 490 31 q 651 192 611 103 l 697 192 q 591 39 668 96 q 410 -18 514 -18 m 413 -337 q 323 -306 357 -337 q 289 -224 289 -275 q 308 -153 289 -187 q 369 -78 326 -118 q 485 14 413 -37 l 549 14 q 450 -103 486 -43 q 414 -211 414 -162 q 464 -264 414 -264 q 502 -256 483 -264 q 543 -229 521 -247 l 549 -229 l 549 -278 q 489 -322 525 -306 q 413 -337 453 -337 z "},"ẽ":{"ha":746,"x_min":63,"x_max":697,"o":"m 410 -18 q 274 10 338 -18 q 163 85 211 38 q 89 192 115 132 q 63 317 63 251 q 104 472 63 397 q 222 594 146 546 q 401 642 299 642 q 551 608 485 642 q 655 513 617 575 q 693 367 693 451 l 693 351 l 211 351 l 211 393 l 497 393 l 497 478 q 397 597 497 597 q 328 571 354 597 q 290 481 301 544 q 278 308 278 418 q 290 135 278 196 q 333 53 303 75 q 417 31 364 31 q 551 67 490 31 q 651 192 611 103 l 697 192 q 591 39 668 96 q 410 -18 514 -18 m 129 736 q 163 826 138 783 q 227 898 188 869 q 321 926 267 926 q 390 913 358 926 q 450 885 421 899 q 511 871 479 871 q 590 890 564 871 q 626 926 617 908 l 674 926 q 639 836 663 879 q 576 765 615 793 q 481 738 538 738 q 411 751 442 738 q 352 779 381 765 q 290 793 324 793 q 215 777 246 793 q 175 736 185 761 l 129 736 z "},"ə":{"ha":746,"x_min":49,"x_max":683,"o":"m 344 -18 q 196 15 263 -18 q 91 110 129 49 q 53 257 53 172 l 53 272 l 535 272 l 535 231 l 249 231 l 249 146 q 349 26 249 26 q 419 53 393 26 q 456 142 444 79 q 468 315 468 206 q 456 488 468 428 q 413 571 443 549 q 329 593 382 593 q 196 557 257 593 q 94 432 135 521 l 49 432 q 155 585 78 528 q 336 642 232 642 q 472 614 410 642 q 583 539 535 586 q 657 432 631 492 q 683 307 683 372 q 642 152 683 226 q 524 30 600 78 q 344 -18 449 -18 z "},"f":{"ha":481,"x_min":28,"x_max":633,"o":"m 143 0 l 143 665 q 181 873 143 783 q 287 1013 218 963 q 449 1064 356 1064 q 584 1024 535 1064 q 633 931 633 985 q 606 863 633 889 q 538 838 579 838 q 478 857 504 838 q 453 915 453 876 q 461 951 453 939 q 478 972 469 964 q 486 993 486 981 q 440 1019 486 1019 q 366 990 397 1019 q 335 874 335 960 l 335 0 l 143 0 m 32 0 l 32 42 l 475 42 l 475 0 l 32 0 m 28 569 l 28 611 l 485 611 l 485 569 l 28 569 z "},"g":{"ha":785,"x_min":56,"x_max":813,"o":"m 367 -450 l 367 -450 q 206 -423 276 -450 q 95 -351 135 -396 q 56 -251 56 -306 q 94 -156 56 -196 q 189 -93 132 -115 l 189 -87 q 94 -31 129 -65 q 60 65 60 4 q 98 170 60 128 q 214 226 136 213 q 128 302 160 254 q 96 415 96 350 q 133 538 96 488 q 235 615 171 588 q 378 642 300 642 q 513 619 451 642 q 614 551 575 596 q 656 618 629 592 q 724 644 683 644 q 785 624 758 644 q 813 564 813 603 q 798 522 813 539 q 753 506 783 506 q 715 517 726 506 q 697 539 704 528 q 671 550 689 550 q 652 541 658 550 q 643 507 646 532 q 658 463 653 486 q 664 415 664 440 q 625 294 664 344 q 522 217 586 243 q 378 190 457 190 l 292 190 q 183 170 224 190 q 143 119 143 150 q 160 85 143 101 q 217 69 178 69 l 511 69 q 633 53 582 69 q 713 -7 685 36 q 740 -128 740 -50 q 688 -309 740 -237 q 550 -415 635 -381 q 367 -450 465 -450 m 393 -401 l 393 -401 q 520 -374 458 -401 q 622 -296 582 -347 q 663 -172 663 -244 q 643 -110 663 -129 q 574 -92 624 -92 l 247 -92 q 217 -156 228 -112 q 206 -233 206 -199 q 255 -353 206 -306 q 393 -401 304 -401 m 379 240 q 433 254 414 240 q 461 306 453 268 q 469 417 469 344 q 460 532 469 493 q 432 585 451 571 q 379 599 413 599 q 326 585 346 599 q 299 532 307 571 q 290 418 290 493 q 299 305 290 343 q 326 253 307 267 q 379 240 346 240 z "},"ǵ":{"ha":785,"x_min":56,"x_max":813,"o":"m 367 -450 l 367 -450 q 206 -423 276 -450 q 95 -351 135 -396 q 56 -251 56 -306 q 94 -156 56 -196 q 189 -93 132 -115 l 189 -87 q 94 -31 129 -65 q 60 65 60 4 q 98 170 60 128 q 214 226 136 213 q 128 302 160 254 q 96 415 96 350 q 133 538 96 488 q 235 615 171 588 q 378 642 300 642 q 513 619 451 642 q 614 551 575 596 q 656 618 629 592 q 724 644 683 644 q 785 624 758 644 q 813 564 813 603 q 798 522 813 539 q 753 506 783 506 q 715 517 726 506 q 697 539 704 528 q 671 550 689 550 q 652 541 658 550 q 643 507 646 532 q 658 463 653 486 q 664 415 664 440 q 625 294 664 344 q 522 217 586 243 q 378 190 457 190 l 292 190 q 183 170 224 190 q 143 119 143 150 q 160 85 143 101 q 217 69 178 69 l 511 69 q 633 53 582 69 q 713 -7 685 36 q 740 -128 740 -50 q 688 -309 740 -237 q 550 -415 635 -381 q 367 -450 465 -450 m 393 -401 l 393 -401 q 520 -374 458 -401 q 622 -296 582 -347 q 663 -172 663 -244 q 643 -110 663 -129 q 574 -92 624 -92 l 247 -92 q 217 -156 228 -112 q 206 -233 206 -199 q 255 -353 206 -306 q 393 -401 304 -401 m 379 240 q 433 254 414 240 q 461 306 453 268 q 469 417 469 344 q 460 532 469 493 q 432 585 451 571 q 379 599 413 599 q 326 585 346 599 q 299 532 307 571 q 290 418 290 493 q 299 305 290 343 q 326 253 307 267 q 379 240 346 240 m 338 728 l 506 956 q 556 1003 532 992 q 604 1014 581 1014 q 663 994 644 1014 q 682 950 682 975 q 669 910 682 932 q 615 860 656 888 l 425 728 l 338 728 z "},"ğ":{"ha":785,"x_min":56,"x_max":813,"o":"m 367 -450 l 367 -450 q 206 -423 276 -450 q 95 -351 135 -396 q 56 -251 56 -306 q 94 -156 56 -196 q 189 -93 132 -115 l 189 -87 q 94 -31 129 -65 q 60 65 60 4 q 98 170 60 128 q 214 226 136 213 q 128 302 160 254 q 96 415 96 350 q 133 538 96 488 q 235 615 171 588 q 378 642 300 642 q 513 619 451 642 q 614 551 575 596 q 656 618 629 592 q 724 644 683 644 q 785 624 758 644 q 813 564 813 603 q 798 522 813 539 q 753 506 783 506 q 715 517 726 506 q 697 539 704 528 q 671 550 689 550 q 652 541 658 550 q 643 507 646 532 q 658 463 653 486 q 664 415 664 440 q 625 294 664 344 q 522 217 586 243 q 378 190 457 190 l 292 190 q 183 170 224 190 q 143 119 143 150 q 160 85 143 101 q 217 69 178 69 l 511 69 q 633 53 582 69 q 713 -7 685 36 q 740 -128 740 -50 q 688 -309 740 -237 q 550 -415 635 -381 q 367 -450 465 -450 m 393 -401 l 393 -401 q 520 -374 458 -401 q 622 -296 582 -347 q 663 -172 663 -244 q 643 -110 663 -129 q 574 -92 624 -92 l 247 -92 q 217 -156 228 -112 q 206 -233 206 -199 q 255 -353 206 -306 q 393 -401 304 -401 m 379 240 q 433 254 414 240 q 461 306 453 268 q 469 417 469 344 q 460 532 469 493 q 432 585 451 571 q 379 599 413 599 q 326 585 346 599 q 299 532 307 571 q 290 418 290 493 q 299 305 290 343 q 326 253 307 267 q 379 240 346 240 m 393 728 q 244 781 300 728 q 189 918 189 833 l 250 918 q 296 871 253 885 q 390 857 339 857 q 488 872 443 857 q 535 918 532 888 l 596 918 q 572 822 596 865 q 503 753 549 778 q 393 728 458 728 z "},"ĝ":{"ha":785,"x_min":56,"x_max":813,"o":"m 367 -450 l 367 -450 q 206 -423 276 -450 q 95 -351 135 -396 q 56 -251 56 -306 q 94 -156 56 -196 q 189 -93 132 -115 l 189 -87 q 94 -31 129 -65 q 60 65 60 4 q 98 170 60 128 q 214 226 136 213 q 128 302 160 254 q 96 415 96 350 q 133 538 96 488 q 235 615 171 588 q 378 642 300 642 q 513 619 451 642 q 614 551 575 596 q 656 618 629 592 q 724 644 683 644 q 785 624 758 644 q 813 564 813 603 q 798 522 813 539 q 753 506 783 506 q 715 517 726 506 q 697 539 704 528 q 671 550 689 550 q 652 541 658 550 q 643 507 646 532 q 658 463 653 486 q 664 415 664 440 q 625 294 664 344 q 522 217 586 243 q 378 190 457 190 l 292 190 q 183 170 224 190 q 143 119 143 150 q 160 85 143 101 q 217 69 178 69 l 511 69 q 633 53 582 69 q 713 -7 685 36 q 740 -128 740 -50 q 688 -309 740 -237 q 550 -415 635 -381 q 367 -450 465 -450 m 393 -401 l 393 -401 q 520 -374 458 -401 q 622 -296 582 -347 q 663 -172 663 -244 q 643 -110 663 -129 q 574 -92 624 -92 l 247 -92 q 217 -156 228 -112 q 206 -233 206 -199 q 255 -353 206 -306 q 393 -401 304 -401 m 379 240 q 433 254 414 240 q 461 306 453 268 q 469 417 469 344 q 460 532 469 493 q 432 585 451 571 q 379 599 413 599 q 326 585 346 599 q 299 532 307 571 q 290 418 290 493 q 299 305 290 343 q 326 253 307 267 q 379 240 346 240 m 140 728 l 350 1006 l 436 1006 l 646 728 l 586 728 l 393 847 l 200 728 l 140 728 z "},"ģ":{"ha":785,"x_min":56,"x_max":813,"o":"m 367 -450 l 367 -450 q 206 -423 276 -450 q 95 -351 135 -396 q 56 -251 56 -306 q 94 -156 56 -196 q 189 -93 132 -115 l 189 -87 q 94 -31 129 -65 q 60 65 60 4 q 98 170 60 128 q 214 226 136 213 q 128 302 160 254 q 96 415 96 350 q 133 538 96 488 q 235 615 171 588 q 378 642 300 642 q 513 619 451 642 q 614 551 575 596 q 656 618 629 592 q 724 644 683 644 q 785 624 758 644 q 813 564 813 603 q 798 522 813 539 q 753 506 783 506 q 715 517 726 506 q 697 539 704 528 q 671 550 689 550 q 652 541 658 550 q 643 507 646 532 q 658 463 653 486 q 664 415 664 440 q 625 294 664 344 q 522 217 586 243 q 378 190 457 190 l 292 190 q 183 170 224 190 q 143 119 143 150 q 160 85 143 101 q 217 69 178 69 l 511 69 q 633 53 582 69 q 713 -7 685 36 q 740 -128 740 -50 q 688 -309 740 -237 q 550 -415 635 -381 q 367 -450 465 -450 m 393 -401 l 393 -401 q 520 -374 458 -401 q 622 -296 582 -347 q 663 -172 663 -244 q 643 -110 663 -129 q 574 -92 624 -92 l 247 -92 q 217 -156 228 -112 q 206 -233 206 -199 q 255 -353 206 -306 q 393 -401 304 -401 m 379 240 q 433 254 414 240 q 461 306 453 268 q 469 417 469 344 q 460 532 469 493 q 432 585 451 571 q 379 599 413 599 q 326 585 346 599 q 299 532 307 571 q 290 418 290 493 q 299 305 290 343 q 326 253 307 267 q 379 240 346 240 m 444 1061 l 472 1031 q 363 958 396 990 q 331 886 331 926 q 338 862 331 868 q 351 856 344 856 q 367 867 360 856 q 388 889 375 878 q 428 900 401 900 q 488 873 468 900 q 508 814 508 846 q 480 748 508 775 q 403 721 451 721 q 308 766 339 721 q 278 867 278 811 q 320 977 278 932 q 444 1061 363 1022 z "}}}
